<?xml version="1.0" encoding="UTF-8" standalone="no"?>
<!DOCTYPE svg PUBLIC "-//W3C//DTD SVG 1.1//EN" "http://www.w3.org/Graphics/SVG/1.1/DTD/svg11.dtd">
<svg width="100%" height="100%" viewBox="0 0 1418 945" version="1.1" xmlns="http://www.w3.org/2000/svg" xmlns:xlink="http://www.w3.org/1999/xlink" xml:space="preserve" xmlns:serif="http://www.serif.com/" style="fill-rule:evenodd;clip-rule:evenodd;stroke-linejoin:round;stroke-miterlimit:2;">
    <g transform="matrix(1.07626,0,0,1.07626,-62.3531,-1460.78)">
        <g transform="matrix(3.53486,0,0,3.53486,-3322.51,-784.566)">
            <g transform="matrix(5.50355,0,0,5.50916,-1398.48,-3623.97)">
                <path d="M440.49,788.02C435.24,788.02 433.51,784.49 433.51,780.74C433.51,775.94 435.99,772.56 441.09,772.56C442.14,772.56 443.34,772.71 444.31,772.94L444.01,775.57C442.96,775.34 441.99,775.12 440.94,775.12C438.09,775.12 436.74,777.29 436.74,780.22C436.74,783.52 438.09,785.39 441.16,785.39C442.06,785.39 443.26,785.09 444.09,784.72L444.39,787.34C443.26,787.72 441.91,788.02 440.49,788.02Z" style="fill:rgb(15,105,177);fill-rule:nonzero;"/>
            </g>
            <g transform="matrix(5.50355,0,0,5.50916,-1398.48,-3624.8)">
                <path d="M456.17,787.94L456.17,781.42L449.79,781.42L449.79,787.94L446.87,787.94L446.87,772.79L449.79,772.79L449.79,778.87L456.17,778.87L456.17,772.79L459.09,772.79L459.09,787.94L456.17,787.94Z" style="fill:rgb(15,105,177);fill-rule:nonzero;"/>
            </g>
            <g transform="matrix(5.50355,0,0,5.50916,-1398.48,-3625.24)">
                <path d="M483.17,775.2C482.72,775.2 482.27,775.2 481.97,775.27L481.97,779.62C482.2,779.62 482.65,779.7 483.02,779.7C484.82,779.7 485.87,778.8 485.87,777.37C485.87,775.87 484.97,775.2 483.17,775.2ZM486.32,788.02L482.12,781.8L481.97,781.8L481.97,788.02L479.12,788.02L479.12,772.87C480.25,772.79 481.67,772.79 483.47,772.79C486.77,772.79 488.95,774 488.95,777.07C488.95,779.32 487.37,780.9 485.05,781.27C485.5,781.87 485.95,782.4 486.32,782.92L489.92,788.02L486.32,788.02Z" style="fill:rgb(15,105,177);fill-rule:nonzero;"/>
            </g>
            <g transform="matrix(5.50355,0,0,5.50916,-1398.48,-3639.67)">
                <path d="M464.19,783.37C464.19,780.67 466.37,778.42 469.14,778.42C471.85,778.42 474.02,780.67 474.02,783.37C474.02,784.27 473.8,785.09 473.35,785.77L475.6,788.02C476.5,786.67 477.1,785.09 477.1,783.37C477.1,778.94 473.5,775.41 469.14,775.41L469.07,775.41C464.72,775.41 461.12,778.94 461.12,783.37C461.12,785.09 461.64,786.67 462.62,788.02L464.79,785.77C464.42,785.02 464.19,784.19 464.19,783.37Z" style="fill:rgb(15,105,177);fill-rule:nonzero;"/>
            </g>
        </g>
        <g transform="matrix(0,-19.4741,-19.4543,0,15924.8,10851.5)">
            <ellipse cx="469.105" cy="774.36" rx="1.8" ry="1.835" style="fill:rgb(226,1,13);"/>
        </g>
        <g transform="matrix(3.53486,0,0,3.53486,-3322.51,-784.566)">
            <g transform="matrix(4.16328,0,0,4.16752,-1057.31,-2490.1)">
                <path d="M492.85,787.94C492.17,787.94 491.65,787.87 491.12,787.79L491.12,785.99C491.57,786.14 492.1,786.22 492.7,786.22C493.9,786.22 494.57,785.77 494.57,783.74L494.57,772.64L496.6,772.64L496.6,783.89C496.6,786.37 495.55,787.94 492.85,787.94Z" style="fill:rgb(87,172,241);fill-rule:nonzero;"/>
            </g>
            <g transform="matrix(4.16328,0,0,4.16752,-1057.31,-2489.76)">
                <path d="M505.08,787.94C500.35,787.94 499.38,785.31 499.38,782.61L499.38,772.56L501.48,772.56L501.48,782.46C501.48,784.56 502.15,786.21 505.15,786.21C507.85,786.21 509.05,785.16 509.05,782.09L509.05,772.56L511.08,772.56L511.08,781.94C511.08,785.91 508.98,787.94 505.08,787.94Z" style="fill:rgb(87,172,241);fill-rule:nonzero;"/>
            </g>
            <g transform="matrix(4.16328,0,0,4.16752,-1057.31,-2490.39)">
                <path d="M524.66,775.11C523.38,774.59 522.03,774.29 520.6,774.29C517.53,774.29 514.83,776.31 514.83,780.36C514.83,784.11 517,786.29 520.45,786.29C521.43,786.29 522.33,786.14 523.08,785.91L523.08,780.14L525.18,780.14L525.18,787.19C523.68,787.79 521.81,788.09 520.15,788.09C515.58,788.09 512.65,785.31 512.65,780.59C512.65,775.94 515.73,772.56 520.83,772.56C522.26,772.56 523.61,772.78 524.96,773.16L524.66,775.11Z" style="fill:rgb(87,172,241);fill-rule:nonzero;"/>
            </g>
            <g transform="matrix(4.16328,0,0,4.16752,-1057.31,-2490.72)">
                <path d="M527.81,787.94L527.81,772.79L535.53,772.79L535.53,774.52L529.83,774.52L529.83,779.32L535.31,779.32L535.31,780.97L529.83,780.97L529.83,786.22L535.53,786.22L535.53,787.94L527.81,787.94Z" style="fill:rgb(87,172,241);fill-rule:nonzero;"/>
            </g>
            <g transform="matrix(4.16328,0,0,4.16752,-1057.31,-2490.72)">
                <path d="M547.61,787.94L541.83,778.57C541.16,777.44 540.56,776.47 540.11,775.42C540.18,777.07 540.26,780.67 540.26,783.07L540.26,787.94L538.23,787.94L538.23,772.79L540.93,772.79L546.56,781.87C547.24,782.99 547.91,784.12 548.44,785.24C548.36,783.37 548.29,779.62 548.29,777.14L548.29,772.79L550.31,772.79L550.31,787.94L547.61,787.94Z" style="fill:rgb(87,172,241);fill-rule:nonzero;"/>
            </g>
            <g transform="matrix(4.16328,0,0,4.16752,-1057.31,-2490.72)">
                <path d="M557.74,774.44C556.99,774.44 556.09,774.44 555.49,774.52L555.49,786.14C556.09,786.22 556.91,786.29 557.51,786.29C561.04,786.29 563.51,784.49 563.51,780.37C563.51,776.47 561.71,774.44 557.74,774.44ZM557.29,788.02C555.71,788.02 554.51,787.94 553.46,787.94L553.46,772.86C554.59,772.79 556.31,772.71 557.96,772.71C562.84,772.71 565.69,775.04 565.69,780.22C565.69,785.39 562.24,788.02 557.29,788.02Z" style="fill:rgb(87,172,241);fill-rule:nonzero;"/>
            </g>
        </g>
        <g transform="matrix(19.4763,0,0,19.4763,-20211.3,-6049.67)">
            <text x="1045.97px" y="420.565px" style="font-family:'TheSans-Regular', 'TheSans';font-weight:500;font-size:5.165px;fill:rgb(126,126,126);">NO<tspan x="1053.41px 1056.39px 1059.97px 1062.95px 1066.73px 1069.39px 1070.91px " y="420.565px 420.565px 420.565px 420.565px 420.565px 420.565px 420.565px ">RDRHEIN</tspan>-WE<tspan x="1083.92px 1086.41px 1089.1px 1091.3px 1094.55px 1096.82px " y="420.565px 420.565px 420.565px 420.565px 420.565px 420.565px ">STFALE</tspan>N</text>
        </g>
    </g>
</svg>
