<?xml version="1.0" encoding="UTF-8" standalone="no"?><!DOCTYPE svg PUBLIC "-//W3C//DTD SVG 1.1//EN" "http://www.w3.org/Graphics/SVG/1.1/DTD/svg11.dtd"><svg width="100%" height="100%" viewBox="0 0 121 90" version="1.1" xmlns="http://www.w3.org/2000/svg" xmlns:xlink="http://www.w3.org/1999/xlink" xml:space="preserve" style="fill-rule:evenodd;clip-rule:evenodd;stroke-linejoin:round;stroke-miterlimit:1.41421;"><g><path d="M37.697,7.29c-1.248,3.832 -2.846,7.565 -3.725,11.5c-0.875,3.927 -0.565,8.039 -1.956,11.861c-0.055,0.154 -0.796,0.129 -0.891,-0.014c-3.101,-4.635 -3.191,-9.552 -2.909,-14.504c0.291,-5.07 0.402,-10.146 -2.895,-14.88c-0.091,-0.13 0.226,-0.321 0.344,-0.157c3.162,4.543 3.243,9.409 2.965,14.294c-0.292,5.138 0.136,10.4 3.368,15.231c-0.297,-0.004 -0.593,-0.008 -0.89,-0.014c1.39,-3.818 1.471,-7.836 2.31,-11.767c0.84,-3.941 2.837,-7.58 4.082,-11.408c0.061,-0.194 0.23,-0.236 0.197,-0.142" style="fill:#fc1872;fill-rule:nonzero;"/><path d="M14.667,49.358l-0.341,0.609c-0.546,0.517 -1.287,0.935 -2.203,0.299c-0.671,-0.609 0.246,-0.657 0.459,-1.039c0.529,-0.038 1.403,-0.687 2.085,0.131" style="fill:#fc1872;fill-rule:nonzero;"/><path d="M26.55,51.616c-0.041,0.028 -0.083,0.057 -0.127,0.078c0.048,-0.036 0.09,-0.062 0.127,-0.078" style="fill:#fc1872;fill-rule:nonzero;"/><path d="M9.496,41.734c-0.614,0.191 -1.529,-0.442 -1.269,-0.903c0.484,0.041 1.098,0.528 1.269,0.903" style="fill:#fc1872;fill-rule:nonzero;"/><path d="M110.389,61.652c-1.238,-2.501 -2.356,-4.876 -2.398,-7.527c-0.435,-0.559 -1.6,-2.172 -0.123,-2.329c1.281,0.033 1.189,1.052 1.419,1.658c0.402,2.323 1.804,4.688 2.668,7.017c-0.067,0.465 0.341,1.082 -0.161,1.487c-0.439,0.645 -0.796,-0.234 -1.405,-0.306" style="fill:#fc1872;fill-rule:nonzero;"/><path d="M111.721,65.335c0.335,0.228 0.831,-0.675 0.949,0.302c-0.248,0.452 -0.744,0.007 -0.949,-0.302" style="fill:#fc1872;fill-rule:nonzero;"/><path d="M88.534,26.123c-0.352,-0.38 -0.316,-0.787 -0.027,-1.149c0.365,-0.326 0.723,-0.302 1.318,-0.377c0.746,-0.004 1.465,0.547 1.857,1.018c-0.202,0.542 -0.829,0.675 -1.487,0.861c-0.599,0.076 -1.221,-0.146 -1.661,-0.353" style="fill:#fc1872;fill-rule:nonzero;"/><path d="M89.62,49.274c0.14,-0.111 0.159,-0.21 0.127,-0.31c0.071,0.125 0.177,0.23 0.408,0.246c-0.387,-0.053 -0.26,0.323 -0.535,0.064" style="fill:#fc1872;fill-rule:nonzero;"/><path d="M89.672,48.825c-0.05,-0.073 -0.112,-0.15 -0.172,-0.239c0.082,0.061 0.127,0.147 0.172,0.239" style="fill:#fc1872;fill-rule:nonzero;"/><path d="M90.28,49.584c-0.093,0.021 -0.229,-0.043 -0.29,-0.072c0.014,-0.182 0.186,-0.039 0.29,0.072" style="fill:#fc1872;fill-rule:nonzero;"/><path d="M91.193,48.815l0.028,-0.054l0.591,0.278l-0.028,0.053l-0.591,-0.277Z" style="fill:#fc1872;fill-rule:nonzero;"/><path d="M86.915,58.946l-0.463,0.096l0.083,-0.149l0.38,0.053Z" style="fill:#fc1872;fill-rule:nonzero;"/><path d="M92.129,49.065c0.057,-0.1 0.175,-0.17 0.096,-0.332c0.211,0.222 0.25,0.304 -0.096,0.332" style="fill:#fc1872;fill-rule:nonzero;"/><path d="M95.207,48.867l-0.043,0.233l-0.316,-0.024l0.359,-0.209Z" style="fill:#fc1872;fill-rule:nonzero;"/><path d="M89.03,60.067l-0.102,-0.111l0.235,0.173l-0.133,-0.062Z" style="fill:#fc1872;fill-rule:nonzero;"/><path d="M92.669,36.243l0.445,0.209c-0.032,0.057 -0.108,0.019 -0.17,0.133c-0.148,-0.069 -0.158,-0.216 -0.275,-0.342" style="fill:#fc1872;fill-rule:nonzero;"/><path d="M102.09,37.428l0.315,0.022l-0.304,0.111l-0.011,-0.133Z" style="fill:#fc1872;fill-rule:nonzero;"/><path d="M102.274,38.148l0.265,0.123l-0.488,-0.165l0.223,0.042Z" style="fill:#fc1872;fill-rule:nonzero;"/><path d="M96.449,49.768l-0.586,0.167c-0.192,-0.406 0.4,-0.128 0.586,-0.167" style="fill:#fc1872;fill-rule:nonzero;"/><path d="M93.525,62.875c0.082,-0.152 -0.022,-0.26 0.269,-0.191l-0.269,0.191Z" style="fill:#fc1872;fill-rule:nonzero;"/><path d="M105.292,45.593c-1.292,-1.035 -0.588,-2.839 1.025,-3.075c0.93,-0.344 2.204,0.039 2.95,0.534c0.428,0.414 0.849,0.825 0.678,1.312c0.152,0.927 -0.832,1.531 -1.725,1.821c-0.822,-0.029 -2.034,0.325 -2.928,-0.592" style="fill:#fc1872;fill-rule:nonzero;"/><path d="M73.801,27.349l0.178,-0.182l0.054,0.036l-0.184,0.181l-0.048,-0.035Z" style="fill:#fc1872;fill-rule:nonzero;"/><path d="M68.218,13.744c-0.072,0.074 -0.165,0.257 -0.264,0.184c0.071,-0.071 0.114,-0.291 0.264,-0.184" style="fill:#fc1872;fill-rule:nonzero;"/><path d="M69.513,24.587c0.009,-0.183 0.068,-0.329 0.289,-0.293l-0.007,0.181c-0.07,0.076 -0.11,0.112 -0.282,0.112" style="fill:#fc1872;fill-rule:nonzero;"/><path d="M78.789,14.844c0.061,-0.326 0.494,-0.331 0.763,-0.077l-0.184,0.182c-0.157,0.071 -0.392,-0.033 -0.579,-0.105" style="fill:#fc1872;fill-rule:nonzero;"/><path d="M68.41,75.595l0.187,0.052c0.224,0.168 0.103,0.351 -0.064,0.468c-0.19,-0.051 0.288,-0.3 -0.123,-0.52" style="fill:#fc1872;fill-rule:nonzero;"/><path d="M31.707,8.589c-0.206,-0.108 -0.411,-0.228 -0.593,-0.358c-0.194,0.035 -0.421,0.022 -0.608,-0.033c-0.362,-0.066 -0.413,-0.416 -0.581,-0.573c0,-0.151 0.042,-0.278 0.118,-0.381c0.113,-0.153 0.288,-0.195 0.489,-0.187c0.024,-0.078 0.054,-0.158 0.105,-0.242c0.523,-0.584 0.872,0.158 1.4,0.312c0.216,0.427 1.278,1.098 0.513,1.704l-0.843,-0.242Z" style="fill:#fc1872;fill-rule:nonzero;"/><path d="M33.644,18.645c-0.047,-0.031 -0.096,-0.064 -0.135,-0.099c0.061,0.037 0.101,0.07 0.135,0.099" style="fill:#fc1872;fill-rule:nonzero;"/><path d="M48.462,87.533c2.614,-1.16 5.114,-2.213 8.292,-2.407c0.533,-0.39 2.104,-1.436 2.769,-0.24c0.369,1.045 -0.889,1.031 -1.542,1.255c-2.67,0.467 -5.069,1.753 -7.591,2.599c-0.586,-0.029 -1.198,0.339 -1.847,-0.044c-0.915,-0.321 0.029,-0.663 -0.081,-1.163" style="fill:#fc1872;fill-rule:nonzero;"/><path d="M44.397,89.631c-0.627,-0.176 -0.248,-0.608 0.058,-0.792c-0.169,0.289 1.08,0.638 -0.058,0.792" style="fill:#fc1872;fill-rule:nonzero;"/><path d="M56.949,70.302c-0.059,-0.317 -0.472,-0.193 -0.248,-0.43c0.178,0.106 0.304,0.118 0.413,0.084c-0.124,0.067 -0.22,0.158 -0.165,0.346" style="fill:#fc1872;fill-rule:nonzero;"/><path d="M57.49,69.734c-0.046,0.067 -0.136,0.11 -0.229,0.151c0.069,-0.044 0.141,-0.1 0.229,-0.151" style="fill:#fc1872;fill-rule:nonzero;"/><path d="M56.538,70.427c-0.054,-0.076 -0.021,-0.187 -0.005,-0.24c0.224,0 0.108,0.149 0.005,0.24" style="fill:#fc1872;fill-rule:nonzero;"/><path d="M57.831,71.144l-0.145,0.499l-0.073,-0.021l0.146,-0.496l0.072,0.018Z" style="fill:#fc1872;fill-rule:nonzero;"/><path d="M44.129,67.938l0.06,0.315l-0.268,-0.374l0.208,0.059Z" style="fill:#fc1872;fill-rule:nonzero;"/><path d="M57.759,71.903c0.139,0.037 0.263,0.132 0.432,0.058c-0.202,0.183 -0.287,0.22 -0.432,-0.058" style="fill:#fc1872;fill-rule:nonzero;"/><path d="M61.409,74.834c0.45,-0.776 1.509,-1.321 2.626,-0.77c0.6,1.543 2.192,-0.049 2.81,1.436c0.563,0.637 0.493,1.396 0.106,1.948c-1.303,0.355 -2.313,0.734 -2.674,1.71c-0.317,-0.446 -0.794,-0.101 -1.176,-0.087c-0.788,-1.416 -2.469,-2.599 -1.692,-4.237" style="fill:#fc1872;fill-rule:nonzero;"/><path d="M58.986,74.398l-0.296,-0.021l-0.074,-0.262l0.37,0.283Z" style="fill:#fc1872;fill-rule:nonzero;"/><path d="M43.517,70.041l0.101,-0.089l-0.135,0.201l0.034,-0.112Z" style="fill:#fc1872;fill-rule:nonzero;"/><path d="M73.046,71.812c0.035,-0.12 0.211,-0.141 0.326,-0.244l-0.108,0.375c-0.08,-0.023 -0.062,-0.087 -0.218,-0.131" style="fill:#fc1872;fill-rule:nonzero;"/><path d="M58.301,75.462l-0.391,-0.467c0.425,-0.181 0.281,0.318 0.391,0.467" style="fill:#fc1872;fill-rule:nonzero;"/><path d="M41.893,74.079l-0.314,-0.208c0.208,0.056 0.307,-0.033 0.314,0.208" style="fill:#fc1872;fill-rule:nonzero;"/><path d="M69.133,86.13c-1.065,0.179 -2.108,-0.585 -2.744,-1.297c-0.226,-0.67 -1.042,-1.638 -0.226,-2.42c0.832,-1.114 3.228,-0.648 4.029,0.651c0.714,0.735 0.663,1.794 0.304,2.433c-0.361,0.374 -0.721,0.741 -1.363,0.633" style="fill:#fc1872;fill-rule:nonzero;"/><path d="M94.682,58.975c0.416,0.031 0.557,0.383 0.338,0.616l-0.279,-0.137c-0.137,-0.126 -0.085,-0.325 -0.059,-0.479" style="fill:#fc1872;fill-rule:nonzero;"/><path d="M21.77,25.382l-0.16,0.068c-0.286,-0.004 -0.368,-0.221 -0.368,-0.415c0.16,-0.068 0.082,0.411 0.528,0.347" style="fill:#fc1872;fill-rule:nonzero;"/><path d="M104.587,58.313c0.184,0.772 -0.673,0.383 -1.128,0.571c-0.502,-0.214 -1.739,-0.132 -1.795,-1.065l0.728,-0.3c0.845,-0.138 1.803,-0.11 2.195,0.794" style="fill:#fc1872;fill-rule:nonzero;"/><path d="M92.482,50.599c0.056,-0.001 0.114,-0.003 0.171,0c-0.072,0.006 -0.125,0.006 -0.171,0" style="fill:#fc1872;fill-rule:nonzero;"/><path d="M89.494,51.985c-0.003,-0.031 -0.006,-0.066 -0.003,-0.098c0.032,0.015 0.067,0.026 0.11,0.036c-0.063,0.008 -0.091,0.033 -0.107,0.062M89.614,52.194c-0.147,-0.158 0.144,-0.195 0.01,-0.329c-0.053,0.027 -0.095,0.028 -0.133,0.016c0.004,-0.059 0.014,-0.12 0.04,-0.176c-0.024,-0.058 -0.052,-0.111 -0.08,-0.161c0.062,-0.039 0.125,-0.077 0.194,-0.112c0.16,0.076 0.315,0.179 0.45,0.279c-0.091,0.016 -0.207,-0.11 -0.287,-0.025c0.296,0.062 -0.072,0.321 0.24,0.39c-0.153,0.108 -0.245,0.074 -0.434,0.118M93.28,42.206c-0.15,-0.127 -0.308,-0.242 -0.449,-0.372c0.012,-0.036 0.027,-0.072 0.04,-0.106c0.392,-0.056 0.834,-0.03 1.129,-0.058c-0.371,0.042 -0.577,0.373 -0.72,0.536M93.639,41.018c-0.077,0.302 -0.394,0.403 -0.705,0.52c0.084,-0.252 0.151,-0.513 0.207,-0.787c0.007,-0.176 -0.005,-0.347 -0.035,-0.52c0.174,0.083 0.317,0.19 0.397,0.355c-0.066,0.056 -0.223,0.079 -0.147,0.193c0.089,0.048 0.228,0.118 0.283,0.239M93.055,39.98c-0.029,-0.12 -0.064,-0.24 -0.106,-0.358c0.106,0.049 0.197,0.123 0.229,0.276c-0.01,0.056 -0.062,0.073 -0.123,0.082M62.248,20.317c0.045,0.361 0.116,0.722 0.171,1.052c1.043,0.263 0.673,1.366 1.171,1.817c-0.432,0.1 -0.838,0.227 -1.202,0.353c-0.238,0.251 -0.339,0.626 -0.352,1.006c-0.904,-0.511 -1.782,-1.056 -2.589,-1.697c-0.031,-0.085 -0.07,-0.171 -0.114,-0.256c0.475,-1.137 1.666,-1.706 2.915,-2.275M38.27,22.003c-0.073,-0.058 -0.075,-0.115 -0.05,-0.17c0,-0.003 0.002,-0.004 0.005,-0.007c0.31,0.196 0.609,0.399 0.885,0.618c-0.226,0.137 -0.276,0.267 -0.226,0.395c-0.153,-0.014 -0.282,-0.013 -0.249,0.191c-0.17,-0.029 -0.461,0.065 -0.514,-0.137c0.166,-0.248 0.016,-0.652 0.381,-0.792c0.011,-0.081 -0.136,-0.081 -0.232,-0.098M38.921,24.587c0.211,0.078 0.416,0.104 0.617,0.086c-0.03,0.021 -0.057,0.043 -0.089,0.065c-0.176,0.046 -0.352,-0.042 -0.528,-0.151M24.982,27.825c-0.031,0.024 -0.062,0.045 -0.095,0.071c-0.01,0.008 -0.018,0.018 -0.027,0.028c-0.029,-0.033 -0.092,-0.07 0.013,-0.093c0.035,-0.004 0.075,-0.006 0.109,-0.006M32.129,48.652c0.562,-0.21 1.199,-1.066 2.107,0.192c0.086,0.296 -0.399,0.443 -0.556,0.682c-0.575,-0.212 -1.044,-0.579 -1.551,-0.874M33.647,49.591c-0.038,0.114 -0.003,0.244 0.19,0.419c0.28,0.136 0.557,0.287 0.826,0.447c-0.15,0.044 -0.301,0.155 -0.499,0.104c-0.16,-0.133 -0.456,-0.087 -0.578,-0.27c0.047,-0.025 0.181,-0.06 0.082,-0.123c-0.148,-0.102 -0.49,-0.036 -0.424,-0.246c0.031,-0.067 0.091,-0.154 0.16,-0.165c-0.069,-0.037 -0.194,-0.079 -0.287,-0.127c0.08,-0.269 0.331,-0.05 0.53,-0.039M36.408,56.055c-0.062,0.008 -0.125,0.016 -0.19,0.02c0.018,-0.024 0.016,-0.057 -0.014,-0.108c0.096,0.025 0.152,0.054 0.204,0.088M64.662,65.069c0.121,0.004 0.241,0.012 0.365,0.018c0.171,0.169 0.355,0.33 0.543,0.482c-0.332,0.079 -0.642,-0.015 -0.949,-0.187c0,0 0.003,0.003 0.002,0c-0.001,-0.1 0.015,-0.206 0.039,-0.313M70.002,32.442c0.212,0.045 0.416,0.102 0.612,0.166c-0.071,0.066 -0.137,0.142 -0.188,0.226c-0.144,0.042 -0.287,0.077 -0.438,0.105c-0.128,-0.092 -0.205,-0.201 -0.101,-0.351c0.019,-0.049 0.073,-0.096 0.115,-0.146M66.299,23.45c0.344,0.128 0.533,0.353 0.659,0.638c0,0 -0.004,-0.003 -0.004,0c-0.145,0.123 -0.341,0.229 -0.566,0.33c0.006,-0.324 -0.028,-0.651 -0.089,-0.968M70.261,33.103c0.027,-0.031 0.054,-0.062 0.081,-0.095c-0.015,0.039 -0.027,0.079 -0.039,0.119c-0.013,-0.007 -0.03,-0.016 -0.042,-0.024M68.005,33.075c-0.099,0 -0.2,-0.004 -0.301,-0.006c0.016,-0.104 0.04,-0.205 0.072,-0.299c0.036,0.112 0.122,0.213 0.229,0.305M69.939,33.427c0.025,0.012 0.047,0.024 0.074,0.034c-0.039,0.006 -0.075,0.009 -0.114,0.013c0.013,-0.016 0.025,-0.032 0.04,-0.047M84.763,41.32c0.003,-0.024 0.009,-0.049 0.019,-0.073c0.021,-0.007 0.045,-0.014 0.067,-0.022c-0.026,0.032 -0.056,0.065 -0.086,0.095M93.238,51.583c0.097,-0.085 0.207,-0.154 0.327,-0.208c0.176,0.063 0.354,0.111 0.404,0.344c-0.023,0.105 -0.182,0.079 -0.293,0.086c-0.117,-0.13 -0.277,-0.175 -0.438,-0.222M95.354,51.164c0.381,-0.003 0.767,-0.015 1.117,-0.089c-0.01,0.063 -0.025,0.123 -0.044,0.178c-0.282,0.159 -0.649,0.122 -0.997,0.038c0.013,-0.055 -0.023,-0.096 -0.076,-0.127M94.758,51.172c-0.185,0.085 -0.357,0.2 -0.623,0.11c-0.048,-0.01 -0.09,-0.025 -0.131,-0.042c0.235,-0.045 0.491,-0.061 0.754,-0.068M90.56,50.16c-0.125,0.025 -0.25,0.048 -0.376,0.073c-0.075,-0.247 0.224,-0.115 0.376,-0.073M71.287,28.814c0.04,-0.02 0.083,-0.042 0.123,-0.064c0.023,0.03 0.05,0.05 0.089,0.009l-0.048,-0.029c0.065,-0.034 0.129,-0.069 0.195,-0.107c0.023,0.028 0.049,0.058 0.059,0.088l0.076,-0.079c-0.017,0.091 0.092,0.087 0.071,0.18l0.016,-0.017c0.033,0.076 0.28,0.159 0.093,0.194c0.09,0.103 0.272,0.098 0.435,0.11c-0.208,0.14 0.173,0.145 -0.101,0.226c0.109,0.088 0.068,-0.119 0.181,-0.002c0.205,0.219 0.176,0.537 0.117,0.792c-0.065,-0.057 0.003,-0.179 -0.13,-0.207c0.098,0.224 -0.368,0.056 -0.267,0.294c-0.195,-0.072 -0.208,-0.147 -0.359,-0.264c0.079,-0.15 0.28,0.039 0.343,-0.097c-0.221,-0.116 0.061,-0.242 -0.231,-0.342c0.19,0.131 0.091,0.179 0.159,0.343c-0.134,-0.133 -0.267,0.021 -0.338,-0.066l0.129,-0.08c-0.074,0.023 -0.112,-0.016 -0.148,-0.074c0.005,0.002 0.005,0.002 0.008,0.003c-0.003,-0.001 -0.003,-0.001 -0.008,-0.003c-0.036,-0.063 -0.064,-0.151 -0.123,-0.204l-0.016,0.015c-0.077,-0.027 -0.013,-0.075 -0.021,-0.105l-0.078,0.063c-0.253,-0.177 -0.166,-0.396 -0.226,-0.577M90.023,56.795l0.581,-0.072c0.121,0.114 0.206,0.247 0.183,0.441c0.312,-0.313 0.822,0.266 1.183,0.15c0.53,-0.155 1.176,-0.252 1.331,-0.813c-0.116,-0.624 -0.118,-1.594 -1.024,-1.844c-0.659,-0.306 -1.176,-0.031 -1.716,0.005c-0.503,0.386 -0.756,0.722 -0.593,1.36c-1.01,-0.435 -1.861,-1.077 -2.499,-1.889c0.26,-0.641 1.563,-0.119 1.574,-0.439c-0.191,-0.027 -0.516,-0.046 -0.835,-0.109c0.017,-0.034 0.017,-0.071 0.018,-0.11c0.417,0.021 0.812,-0.027 1.131,-0.141c0.446,-0.216 0.366,-0.538 0.259,-0.876c0.157,-0.015 0.309,-0.052 0.451,-0.126c0.268,-0.079 0.171,-0.402 0.243,-0.572c-0.13,-0.203 -0.335,-0.307 -0.564,-0.382c0.257,-0.134 0.522,-0.256 0.793,-0.361c0.832,0.276 1.701,0.513 2.429,0.908c0.033,-0.066 0.073,-0.123 0.115,-0.177c0.451,0.191 1.02,0.263 1.211,0.658c-0.066,0.058 -0.224,0.08 -0.146,0.194c0.088,0.049 0.229,0.117 0.281,0.239c-0.126,0.499 -0.915,0.449 -1.224,0.83c0.452,-0.21 1.166,-0.139 1.588,-0.177c-0.402,0.044 -0.61,0.431 -0.757,0.575c0.555,-0.105 0.788,-0.251 1.22,-0.469c0.508,0.21 0.956,0.561 1.316,0.913c0.051,0.236 -0.402,0.446 -0.079,0.684c0.281,-0.058 0.054,-0.427 0.292,-0.585c0.221,-0.016 0.324,-0.259 0.584,-0.212c-0.003,0.05 -0.035,0.17 0.083,0.148c0.184,-0.032 0.288,-0.323 0.477,-0.118c0.054,0.071 0.117,0.175 0.093,0.235c0.073,-0.022 0.181,-0.082 0.28,-0.11c0.292,0.31 -0.306,0.266 -0.264,0.515c0.752,-0.413 1.789,-0.353 2.501,-0.765c0.376,-0.438 0.915,-0.898 0.739,-1.545c-0.101,-0.207 -0.019,-0.655 -0.432,-0.776c-0.283,-0.641 -1.021,-0.755 -1.573,-1.112c-0.137,0.214 -0.332,-0.077 -0.557,-0.095c-0.142,-0.069 -0.208,-0.262 -0.386,-0.296c-0.152,0.11 0.271,0.269 -0.018,0.342c-0.506,0.141 -0.767,-0.456 -1.211,-0.508c0.092,0.285 0.66,0.399 0.524,0.715c-0.301,0.067 -0.699,0.148 -0.961,0.068c0.042,-0.033 0.087,-0.068 0.125,-0.111c0.111,-0.041 0.217,-0.089 0.319,-0.148c-0.069,-0.047 -0.155,-0.076 -0.239,-0.096c-0.001,-0.005 -0.003,-0.012 -0.005,-0.02c-0.059,-0.054 -0.13,-0.044 -0.188,-0.012c-0.315,-0.032 -0.666,0.012 -0.948,-0.078l0.199,0.407c-0.341,-0.288 -0.506,0.015 -0.847,-0.269l0.039,0.08c-0.358,-0.104 -1.107,0.367 -0.94,-0.251c-0.317,-0.008 -0.543,0.147 -0.735,0.36c-0.026,-0.007 -0.053,-0.015 -0.079,-0.018c-0.085,0.05 -0.16,0.124 -0.136,0.215c0.009,0.014 0.018,0.023 0.028,0.037c-0.079,0.104 -0.154,0.213 -0.231,0.317c-0.235,-0.933 -0.874,0.096 -0.765,-0.867c-0.535,0.069 0.387,0.5 -0.275,0.504c-0.384,-0.002 -0.768,-0.092 -1.146,-0.237c0.55,-0.187 1.104,-0.303 1.642,-0.31c-0.232,-0.031 -0.162,-0.214 -0.109,-0.404c0.072,0.039 0.178,0.074 0.24,0.105c0.067,-0.103 -0.098,-0.137 -0.222,-0.175c0.023,-0.097 0.035,-0.191 -0.016,-0.262c-0.575,0.072 -1.154,0.172 -1.735,0.281l0,-0.009c-0.488,-0.168 -0.352,-0.416 -0.779,-0.239c-0.168,0.182 0.195,0.223 0.312,0.338c-0.145,0.029 -0.292,0.056 -0.44,0.085c-0.422,-0.28 -0.818,-0.6 -1.173,-0.911c0.344,-0.026 0.733,0.47 1.059,0.182c-1.07,-0.315 0.375,-1.149 -0.759,-1.496c0.604,-0.348 0.932,-0.19 1.65,-0.296c0.491,0.611 -0.609,0.661 -0.155,1.19c0.83,-0.306 0.889,0.798 1.756,0.259c-0.836,0.176 -0.871,-0.221 -1.647,-0.46c0.757,-0.026 0.346,-0.788 0.821,-0.752l0.11,0.558c0.026,-0.264 0.253,-0.267 0.551,-0.205c-0.009,0.001 -0.02,0.004 -0.03,0.007c0.01,-0.003 0.021,-0.006 0.03,-0.007c0.321,0.064 0.717,0.205 1.027,0.187l-0.039,-0.081c0.243,-0.139 0.327,0.154 0.463,0.217l-0.131,-0.378c1.584,-0.329 2.455,1.408 3.803,0.901c-0.473,-0.506 -1.497,-0.242 -1.793,-0.896c0.29,-0.101 0.337,-0.467 0.176,-0.673c-0.248,-0.163 -0.51,-0.194 -0.724,-0.044c-0.064,0.06 -0.11,0.131 -0.131,0.209c-1.934,-0.845 -3.982,-1.4 -5.719,-0.673c-1.027,0.212 -0.767,1.406 -1.097,2.014c0.302,0.572 0.774,0.963 1.333,1.265c-0.345,0.063 -0.687,0.121 -1.03,0.172c-0.11,-0.03 -0.222,-0.056 -0.337,-0.069c-0.027,-0.05 -0.052,-0.097 -0.077,-0.144c-0.264,-0.231 -0.668,-0.085 -0.923,-0.283c-0.282,-0.04 -0.543,0.125 -0.765,0.242c0.053,0.123 -0.05,0.188 -0.152,0.248c-0.056,-0.368 -0.441,-0.375 -0.871,-0.379c0,-0.008 -0.002,-0.015 0.003,-0.022c-0.043,-0.057 -0.114,-0.019 -0.182,0.018c-0.048,-0.002 -0.094,-0.002 -0.144,-0.004c-0.131,-0.08 -0.094,-0.284 -0.183,-0.372l-0.263,0.067l-0.13,-0.198c-0.085,0.016 -0.191,0.101 -0.294,0.084c-0.09,-0.158 -0.135,-0.374 -0.126,-0.671c0.191,-0.4 1.345,0.078 1.162,-0.694c-0.412,-0.586 -0.72,-1.214 -0.957,-1.868c0.538,0.057 1.127,0.33 1.692,0.221c-0.213,-0.375 -0.925,-0.674 -1.578,-0.718c0.05,-0.049 0.099,-0.104 0.139,-0.159c-0.134,-0.159 -0.342,-0.266 -0.553,-0.343c-0.03,-0.134 -0.061,-0.266 -0.087,-0.402c1.03,-0.361 1.962,-0.816 2.021,-1.776c0.631,-0.411 1.311,-0.681 2.151,0.068c0.491,0.317 0.883,1.178 1.531,1.055c0.111,0.187 0.245,0.355 0.426,0.486c0.928,-0.482 1.962,1.197 2.37,0.017c0.866,0.746 1.189,-0.416 1.616,-0.792c0.376,-0.566 0.109,-1.319 -0.174,-1.905c-0.027,-0.029 -0.06,-0.056 -0.089,-0.083c0.505,-0.104 0.743,-0.245 1.156,-0.453c0.507,0.208 0.952,0.559 1.317,0.913c0.048,0.234 -0.403,0.445 -0.081,0.684c0.282,-0.061 0.057,-0.429 0.293,-0.587c0.22,-0.016 0.324,-0.259 0.582,-0.212c-0.003,0.05 -0.031,0.171 0.086,0.149c0.181,-0.03 0.284,-0.323 0.474,-0.119c0.036,0.048 0.072,0.106 0.088,0.16c-0.073,0.014 -0.143,0.03 -0.216,0.054c-1.828,0.027 -0.003,1.832 -1.898,1.825c-0.731,0.735 -0.138,1.77 0.771,2.387c1.922,1.158 3.449,0.168 5.2,-0.019c0.007,-0.316 -0.381,-0.815 0.175,-0.932c-1.153,-0.605 -1.55,-1.55 -1.896,-2.725c-0.265,-0.202 -0.571,-0.371 -0.896,-0.483c0.458,-0.09 0.913,-0.177 1.28,-0.392c0.378,-0.438 0.916,-0.898 0.741,-1.544c-0.102,-0.206 -0.018,-0.655 -0.432,-0.78c-0.284,-0.639 -1.021,-0.751 -1.573,-1.109c-0.133,0.214 -0.331,-0.076 -0.557,-0.094c-0.139,-0.069 -0.209,-0.262 -0.385,-0.296c-0.154,0.108 0.27,0.267 -0.018,0.342c-0.506,0.14 -0.766,-0.455 -1.21,-0.509c0.093,0.285 0.661,0.399 0.524,0.715c-0.303,0.068 -0.7,0.15 -0.964,0.068c0.122,-0.088 0.269,-0.23 0.2,-0.373c-0.088,-0.085 -0.225,-0.019 -0.255,0.051c-0.153,0.158 -0.121,0.336 -0.183,0.479c-0.279,0.16 -0.646,0.122 -0.994,0.037c0.025,-0.106 -0.141,-0.169 -0.245,-0.173c-0.422,-0.112 -0.604,0.317 -1.051,0.165c-0.24,-0.051 -0.375,-0.202 -0.574,-0.287c-0.269,-0.593 -0.636,-1.182 -0.948,-1.788c-1.091,-0.988 -2.759,-0.41 -3.823,-1.252c-1.163,-0.187 -2.249,0.483 -3.159,0.949c0.154,0.378 -0.03,0.617 -0.303,0.811c-0.012,-0.11 -0.058,-0.227 -0.027,-0.328c-0.269,0.305 -0.769,0.492 -1.134,0.773c0.022,-0.283 0.043,-0.562 0.064,-0.835c-0.154,0.2 -0.432,0.349 -0.747,0.492c-0.06,-0.04 -0.126,-0.081 -0.189,-0.117c-0.499,-0.095 -1.066,0.023 -1.533,0.213c-0.319,-0.48 -0.543,-0.967 -0.431,-1.483c0.031,0 0.055,-0.021 0.058,-0.068c-0.009,-0.018 -0.017,-0.031 -0.027,-0.042c0.014,-0.046 0.027,-0.091 0.045,-0.137c-0.229,-0.3 -0.631,0.021 -0.959,0.168c-1.016,-0.131 -0.713,-1.254 -1.144,-1.701l-0.656,0.155c0.04,-0.159 0.09,-0.319 0.003,-0.469c-0.182,0.118 -0.115,0.396 -0.245,0.526l-0.188,0.044l-0.243,-0.38c0.356,-0.214 0.62,-0.536 0.71,-1.052c0.646,-0.721 -1.165,-1.247 0.102,-1.685c-0.183,-0.04 -0.398,-0.076 -0.609,-0.149c0.022,-0.04 0.025,-0.095 -0.019,-0.169c-0.122,-0.153 -0.276,-0.122 -0.404,-0.046c-0.058,-0.045 -0.112,-0.091 -0.162,-0.149c-0.197,-0.229 0.111,-0.645 -0.244,-0.795c-0.655,-0.062 -1.528,0.05 -1.695,-0.652c-0.317,0.49 -0.947,0.286 -1.461,-0.047c0.328,1.146 -1.656,-0.013 -1.426,1.113c-0.259,0.019 -0.352,0.113 -0.384,0.23c-0.978,-0.127 -2.165,-0.011 -3.106,-0.615c0.021,-0.336 0.004,-0.699 0.092,-0.979c0.309,-0.052 0.582,-0.172 0.825,-0.334c0.549,0.159 0.982,0.235 1.119,0.037c0.132,-0.07 0.201,-0.208 0.206,-0.35l0,-0.008c0.154,-0.058 0.307,-0.122 0.459,-0.192c0.036,0.074 0.05,0.146 -0.062,0.206c0.096,0.48 0.283,0.971 0.82,1.227c0.231,0.162 0.504,-0.011 0.719,-0.016c0.309,-0.353 -0.107,-0.809 -0.149,-1.215c-0.371,0.009 -0.522,-0.303 -0.772,-0.501c0.704,-0.421 1.334,-0.958 1.878,-1.467c-0.779,0.286 -2.184,1.051 -2.915,1.825c-0.007,-0.02 -0.014,-0.038 -0.023,-0.057l0.237,-0.59c-0.234,0 -0.294,0.182 -0.374,0.383c-0.037,-0.037 -0.077,-0.072 -0.116,-0.107c0.006,-0.013 0.011,-0.026 0.018,-0.038c0.003,0.021 0.008,0.038 0.01,0.057c-0.007,-0.033 -0.005,-0.061 0,-0.089c0.01,-0.021 0.014,-0.043 0.018,-0.065c0.03,-0.08 0.082,-0.158 0.121,-0.249c-0.031,-0.028 -0.061,-0.049 -0.088,-0.07c0.028,-1.218 0.171,-2.558 -1.119,-3.362c-0.202,-0.707 -0.232,-1.359 0.882,-1.513c0.523,-0.162 1.59,0.079 1.704,-0.464c0.242,0.033 0.471,0.038 0.68,-0.013c-0.166,-0.961 2.018,-0.688 0.908,-1.7c1.124,-0.173 0.003,-1.113 -0.236,-1.649c-0.357,-0.474 -0.976,-0.74 -1.579,-0.908c0.091,-0.38 0.064,-0.776 -0.072,-1.118c-0.411,-0.761 -1.322,-0.305 -1.952,-0.663c-0.511,0 -0.898,0.189 -1.159,0.471c-1.004,-0.365 -2.103,-0.465 -3.194,-0.668c-1.466,0.188 -1.477,1.744 -2.777,2c-0.168,0.191 -0.268,0.416 -0.325,0.662l-2.365,-0.767c0.191,-2.509 -2.846,-2.74 -3.547,-4.591c-0.341,0.362 -0.387,1.267 -0.963,1.651c-0.38,1.63 -2.455,-0.246 -3.266,0.896c-1.271,-0.362 -1.625,-1.842 -2.529,-2.65c0.108,-0.203 0.157,-0.407 0.169,-0.608c0.033,-0.004 0.055,-0.025 0.049,-0.077c0.371,-0.069 0.68,-0.297 0.982,-0.469c-0.003,-0.128 -0.134,-0.132 -0.238,-0.131c-0.2,0.186 -0.551,0.256 -0.791,0.401c-0.041,-0.72 -0.375,-1.415 0.146,-2.048c-0.008,-1.102 -1.373,-0.027 -1.932,-0.463c-0.045,1.126 0.186,2.354 0.242,3.546c-0.041,-0.006 -0.078,-0.013 -0.123,-0.015c-0.283,0.016 -0.512,0.176 -0.582,0.352c-0.051,0.204 0.264,0.232 0.35,0.386c0.119,0.064 0.248,0.076 0.363,0.057c-0.021,0.687 -0.143,1.345 -0.446,1.955c-0.257,-0.118 -0.567,-0.167 -0.842,-0.281c-0.064,0.062 -0.067,0.212 -0.226,0.162c0.1,0.167 0.103,0.321 0.06,0.48c-0.067,0.071 -0.1,0.17 -0.118,0.277c-0.006,0.011 -0.01,0.019 -0.016,0.03c0.001,0.003 0.006,0.01 0.008,0.016c-0.063,0.383 -0.036,0.82 -0.905,0.373l-0.827,-1.067c-0.128,0.424 -0.442,0.702 -1.077,0.52c-0.611,-0.633 -1.306,-1.383 -1.761,-2.156c-0.225,0.374 -0.253,1.134 -0.984,1.313c0.034,-0.065 0.045,-0.14 0.02,-0.221c-0.035,-0.266 -0.36,-0.344 -0.535,-0.446c-0.233,-0.049 -0.526,-0.057 -0.669,0.09l-0.6,-0.336c0.173,0.18 0.33,0.363 0.476,0.548c0,0.041 0.006,0.082 0.013,0.128c0.051,0.119 0.166,0.255 0.319,0.346c0.615,0.986 0.825,2.029 0.599,3.049c-0.763,0.238 -1.356,-0.848 -1.643,-0.658c0.267,0.262 1.01,0.843 0.88,1.264c-0.554,0.044 -1.185,0.037 -1.836,-0.019c-0.437,-0.535 -1.091,-0.945 -1.711,-1.108c-0.63,-0.107 -0.789,0.254 -0.995,0.585c-0.677,-0.216 -1.291,-0.498 -1.774,-0.841c0.258,0.255 -0.485,0.287 -0.555,0.512c0.577,0.329 1.188,0.631 1.809,0.933c-0.027,0.086 -0.04,0.171 -0.042,0.26c-0.367,-0.052 -0.739,-0.167 -1.052,0.044c0.187,0.203 0.119,0.473 0.219,0.693c-0.49,-0.505 -0.988,-1.005 -1.314,-1.543c-0.107,0.045 -0.208,0.077 -0.31,0.101c0.005,-0.033 0.006,-0.067 0.002,-0.104c0.013,-0.227 -0.265,-0.418 -0.444,-0.555c-0.412,-0.081 -0.895,-0.231 -1.124,0.078c-0.06,0.082 -0.096,0.176 -0.11,0.286c-0.797,-0.367 -1.603,-0.902 -2.501,-0.907c0.173,0.353 0.814,0.498 1.105,0.794l0.102,-0.397c0.111,0.375 0.467,0.222 0.579,0.596l0.018,-0.08c0.251,0.244 1.253,0.236 0.676,0.626c0.263,0.141 0.551,0.14 0.847,0.082c0.298,0.028 0.613,-0.035 0.765,-0.218c0.019,-0.005 0.036,-0.011 0.056,-0.016c-0.426,0.813 0.856,0.332 0.099,1.008c0.526,0.196 -0.008,-0.558 0.59,-0.253c0.437,0.226 0.775,0.558 1.047,0.94c-0.12,0.078 -0.318,0.078 -0.435,0.123c0.009,0.164 0.215,0.345 0.22,0.472c-0.038,-0.008 -0.073,-0.013 -0.103,-0.012c-0.1,-0.092 -0.184,-0.209 -0.205,-0.134c0.051,0.056 0.085,0.104 0.113,0.149c-0.145,0.044 -0.237,0.173 -0.385,0.206c0.177,0.018 0.36,0.062 0.548,0.118c0.039,0.024 0.093,0.041 0.182,0.056c0.221,0.073 0.447,0.151 0.676,0.211c0.095,0.262 0.178,0.524 0.247,0.773c-0.329,-0.141 -0.34,-0.694 -0.831,-0.629c0.749,0.735 -1.13,0.695 -0.342,1.479c-0.783,-0.016 -0.973,-0.286 -1.696,-0.539c-0.024,-0.69 1.006,-0.217 0.955,-0.826c-0.957,-0.154 -0.252,-1.017 -1.408,-1.011c0.877,0.254 0.639,0.57 1.173,1.111c-0.699,-0.332 -0.85,0.434 -1.258,0.185l0.287,-0.47c-0.208,0.187 -0.415,0.084 -0.642,-0.099c0.013,0.003 0.024,0.005 0.036,0.007c-0.012,-0.002 -0.023,-0.004 -0.036,-0.008c-0.243,-0.198 -0.506,-0.488 -0.796,-0.617l-0.022,0.078c-0.312,-0.008 -0.19,-0.268 -0.267,-0.378l-0.144,0.345c-1.655,-0.489 -1.247,-2.201 -2.815,-2.446c0.088,0.663 1.434,0.929 0.908,1.716c1.222,1.72 2.777,3.368 5.064,3.656c1.071,0.312 1.661,-0.709 2.373,-1.014c0.09,-0.433 0.022,-0.835 -0.147,-1.214c0.039,0.001 0.08,0 0.121,-0.001c0.146,0.09 0.495,0.107 0.462,0.34c-0.036,0.255 -0.138,0.443 -0.343,0.576c-0.136,0.201 0.208,0.274 0.061,0.46c0.297,0.033 0.197,-0.391 0.528,-0.369c0.059,-0.19 0.027,-0.455 0.246,-0.596c0.317,-0.213 0.751,-0.101 1.085,-0.228c0.387,0.074 0.761,0.098 1.107,0.262c-0.059,0.412 -0.749,-0.048 -1.003,0.29c-0.078,0.104 -0.02,0.249 0.131,0.284c0.285,0.077 0.798,-0.063 0.852,0.323c0.024,0.072 0.003,0.17 0.019,0.249c-0.232,-0.128 -0.47,-0.188 -0.707,0.08c-0.138,0.452 -0.343,0.884 -0.594,1.304c-0.135,-0.048 -0.267,-0.084 -0.387,-0.105c-0.097,0.252 0.044,0.286 0.212,0.378c-0.267,0.397 -0.578,0.779 -0.926,1.149c-0.077,-0.08 -0.161,-0.146 -0.254,-0.203l-0.049,-0.418c-0.547,-0.3 -0.816,-0.939 -1.479,-1.21c-0.112,0.347 0.206,0.884 0.678,1.264c-0.133,-0.049 -0.26,-0.102 -0.386,-0.166c0.001,-0.004 0.001,-0.006 0.002,-0.009c-0.121,-0.086 -0.042,-0.281 -0.253,-0.219c-0.141,0.012 -0.184,0.108 -0.243,0.186c-0.023,-0.005 -0.05,-0.011 -0.074,-0.01c-0.149,-0.058 -0.24,-0.244 -0.418,-0.262c-0.134,0.121 0.299,0.245 0.029,0.346c-0.475,0.188 -0.806,-0.388 -1.251,-0.403c0.13,0.279 0.699,0.342 0.611,0.672c-0.291,0.094 -0.666,0.213 -0.936,0.152c0.109,-0.097 0.235,-0.254 0.147,-0.391c-0.099,-0.077 -0.222,0.001 -0.243,0.075c-0.126,0.172 -0.072,0.349 -0.113,0.498c-0.146,0.107 -0.327,0.15 -0.521,0.156c-0.073,-0.163 -0.196,-0.294 -0.409,-0.36c0.027,-0.195 0.022,-0.384 -0.05,-0.565c-1.168,-0.067 -0.951,-1.815 -2.127,-1.113c-0.273,-0.966 -1.365,-0.237 -2.004,-0.152c-0.73,0.252 -1.004,0.945 -1.153,1.517c0.043,0.213 0.136,0.418 0.185,0.628c-0.292,0.163 -0.577,0.347 -0.854,0.55c-0.166,-0.024 -0.331,-0.051 -0.481,-0.104c-0.105,0.388 -0.732,0.228 -1.004,0.489c0.109,0.046 0.249,-0.026 0.365,-0.01l-0.072,-0.102c0.105,0.061 0.127,-0.027 0.234,0.034l-0.014,-0.019c0.1,0.011 0.262,-0.15 0.256,0.024c0.15,-0.023 0.189,-0.172 0.244,-0.302c0.114,0.235 0.212,-0.044 0.248,0.175c-0.203,0.219 -0.358,0.459 -0.475,0.714c-0.241,-0.064 -0.467,-0.219 -0.68,-0.085c0.168,0.128 0.454,-0.032 0.549,0.221c0.02,0.007 0.04,0.011 0.064,0.017c-0.045,0.11 -0.085,0.22 -0.121,0.333c-0.017,-0.009 -0.033,-0.02 -0.052,-0.027c-0.565,-0.224 -0.903,0.115 -1.344,0.246c0.018,0.088 0.149,0.204 0.011,0.261c0.336,0.111 0.495,0.348 0.656,0.652c0.138,0.072 0.308,0.114 0.462,0.093c-0.043,0.221 -0.082,0.442 -0.131,0.663c0.002,0.014 0.01,0.026 0.011,0.04c-0.473,0.276 -0.996,0.488 -1.681,0.481c0.417,0.394 1.504,0.723 1.932,1.315c1.942,0.835 -0.444,1.92 0.884,2.947c-0.515,0.919 -2.318,0.734 -3.341,1.21c-1.216,-0.776 -2.487,-0.319 -3.516,-1.199c-1.328,-0.347 -0.115,1.109 -0.672,1.426c2.121,0.623 4.591,0.778 6.643,1.697c-0.002,0.002 -0.01,0.004 -0.013,0.007c0.15,0.268 -0.509,0.307 -0.114,0.578c-0.123,0.078 -0.212,0.326 -0.424,0.203c-0.122,-0.292 -0.57,-0.514 -0.48,-0.842c-0.061,-0.067 -0.149,0.019 -0.22,0.065c-0.244,-0.004 -0.208,-0.282 -0.324,-0.38l-0.246,0.089l-0.154,-0.185c-0.109,0.032 -0.235,0.19 -0.382,0.069c-0.252,-0.121 0.004,-0.323 -0.269,-0.366c-0.082,0.073 0.062,0.226 -0.022,0.315c-0.268,0.084 -0.567,-0.017 -0.702,-0.183c-0.081,0.072 -0.045,0.178 -0.116,0.273c-0.187,0.027 -0.399,0.128 -0.578,-0.037c-0.178,0.063 0.054,0.177 -0.008,0.257c-0.248,-0.135 -0.374,0.249 -0.61,0.004c-0.002,0.162 0.252,0.118 0.272,0.269c0.144,0.748 -0.893,0.68 -0.881,1.311c0.39,0.063 0.615,0.494 1.034,0.454c0.302,0.229 0.045,0.43 0.001,0.593c0.152,0.124 0.431,0.14 0.544,0.234c-0.225,0.118 -0.069,0.355 -0.157,0.515c0.451,-0.359 1.301,-0.453 1.69,-0.933c0.169,-0.017 0.384,-0.213 0.576,-0.015c0.202,0.219 0.31,0.427 0.31,0.651c0.098,0.237 0.362,0.086 0.442,0.317c0.203,-0.151 -0.232,-0.419 -0.022,-0.6c-0.133,-0.181 -0.388,-0.365 -0.384,-0.607c-0.005,-0.356 0.347,-0.529 0.428,-0.828c0.289,-0.175 0.53,-0.381 0.875,-0.459c0.329,0.35 -0.477,0.412 -0.325,0.826c0.048,0.125 0.209,0.202 0.329,0.14c0.229,-0.113 0.405,-0.528 0.778,-0.262c0.144,0.071 0.28,0.319 0.461,0.179c0.085,-0.021 0.157,-0.051 0.224,-0.083c0.472,0.208 1.173,0.288 0.52,0.909l-1.329,0.331c0.5,0.238 0.815,0.585 0.559,1.043c-0.799,0.296 -1.742,0.621 -2.701,0.743c0.459,0.318 1.445,0.595 1.544,1.322l-1.231,1.06c0.618,-0.228 1.259,-0.359 1.906,-0.393c0.212,0.305 0.419,0.611 0.548,0.928c0.08,0.135 0.118,0.388 0.413,0.343c0.332,-0.1 -0.02,-0.44 -0.152,-0.557c-0.062,-0.256 -0.16,-0.493 -0.284,-0.722c0.857,0.023 1.721,0.21 2.554,0.563c0.242,0.696 -1.099,0.831 -0.889,1.125c0.33,-0.132 1.077,-0.551 1.575,-0.312c0.067,1.637 -0.646,3.808 -2.046,4.702c0.32,-0.129 0.317,0.487 0.584,0.617c0.654,-0.558 1.251,-1.2 1.865,-1.824c0.02,0.092 0.039,0.181 0.04,0.271c0.288,-0.013 0.146,0.241 0.277,0.394c0.026,0.121 -0.108,0.25 -0.022,0.377c0.196,0.05 0.071,-0.292 0.329,-0.144c0.462,0.259 0.073,0.692 0.318,0.997c0.204,-0.186 -0.06,-0.599 0.32,-0.656c0.263,0.163 0.6,0.377 0.696,0.58c-0.161,-0.037 -0.393,-0.067 -0.481,0.041c-0.019,0.096 0.132,0.153 0.219,0.141c0.246,0.024 0.39,-0.077 0.565,-0.103c0.005,0.002 0.01,0.004 0.014,0.006c-0.079,0.051 -0.151,0.102 -0.231,0.116c-0.054,0.171 0.452,0.347 0.528,0.228l-0.233,-0.12c-0.039,-0.093 -0.011,-0.146 0.05,-0.179c0.26,0.122 0.429,0.339 0.561,0.563c-0.117,0.031 -0.066,0.165 -0.004,0.233c0.171,0.317 0.692,0.237 0.841,0.589c0.143,0.228 0.013,0.42 0.187,0.643c0.104,0.027 0.218,0.044 0.288,-0.014c0.16,-0.258 -0.273,-0.488 0.043,-0.722c0.114,-0.034 0.194,0.08 0.273,0.145c-0.079,0.231 0.161,0.429 0.19,0.657c0.037,-0.1 0.128,-0.003 0.185,0.003c0.019,-0.44 -0.521,-0.949 -0.219,-1.321c0.098,0.017 0.224,0.106 0.277,0.004c-0.011,-0.077 -0.038,-0.197 0.039,-0.287c0.549,-0.144 1.022,0.376 1.579,0.401c-0.494,-0.19 -0.892,-0.674 -1.205,-0.924c0.307,0.234 0.803,0.192 1.033,0.219c-0.462,-0.305 -0.747,-0.386 -1.237,-0.562c-0.136,-0.417 -0.099,-0.855 -0.006,-1.245c0.159,-0.117 0.549,0.008 0.658,-0.158c0.333,0.208 0.653,0.433 0.968,0.673c0.177,0.393 0.358,0.78 0.536,1.169l-0.024,-0.02c0.005,0.006 0.014,0.017 0.026,0.025c0.49,1.086 0.942,2.178 1.147,3.321c-0.162,0.071 -0.328,0.128 -0.493,0.178l0.42,-0.415c-0.303,0.056 -0.546,0.25 -0.714,0.479c-0.093,-0.058 -0.193,-0.11 -0.304,-0.151c-0.255,-0.133 -0.485,0.072 -0.694,0.104c-0.033,0.052 -0.048,0.103 -0.057,0.155c-1.038,0 -2.131,-0.246 -3.243,-0.449c-0.341,-0.9 -1.074,-1.49 -2.162,-1.513c-1.019,0.087 -1.818,0.706 -2.047,1.362c-0.149,0.766 0.986,0.843 1.309,1.406c0.957,0.494 1.975,0.135 2.517,-0.458c0.029,0.019 0.06,0.034 0.086,0.052l1.421,1.826c-1.008,0.741 -1.025,1.527 -0.847,2.318c-0.349,0.134 -0.622,0.378 -0.978,0.516c0.2,0.221 -0.186,0.211 -0.276,0.369c-0.12,0.069 -0.356,0.014 -0.448,0.131c0.077,0.175 0.384,-0.057 0.377,0.201c0.003,0.461 -0.743,0.329 -0.937,0.637c0.345,0.088 0.647,-0.281 0.958,-0.007c-0.021,0.27 -0.048,0.613 -0.22,0.766c-0.062,-0.136 -0.177,-0.328 -0.357,-0.356c-0.124,0.026 -0.091,0.164 -0.019,0.225c0.13,0.202 0.337,0.276 0.479,0.4c0.091,0.299 -0.064,0.556 -0.264,0.773c-0.111,-0.077 -0.231,0.017 -0.271,0.091c-0.251,0.256 0.174,0.632 -0.137,0.887c-0.172,0.196 -0.472,0.173 -0.618,0.394c0.031,0.092 0.088,0.187 0.2,0.218c0.399,0.025 0.384,-0.403 0.856,-0.25c0.113,0.077 0.035,0.182 0.008,0.269c-0.313,0.031 -0.389,0.293 -0.632,0.407c0.139,-0.011 0.088,0.099 0.115,0.144c0.517,-0.156 0.757,-0.775 1.378,-0.689c0.043,0.082 0.022,0.216 0.172,0.217c0.081,-0.038 0.201,-0.107 0.355,-0.082c0.521,0.374 0.221,0.941 0.551,1.386c-0.099,-0.459 0.202,-0.96 0.289,-1.302c-0.071,0.331 0.295,0.7 0.413,0.89c0.009,-0.095 0.014,-0.182 0.013,-0.262c0.471,0.352 1.431,0.354 1.196,-0.325c-0.128,-0.446 -0.936,-0.514 -1.285,-0.305c-0.022,-0.089 -0.048,-0.184 -0.072,-0.289c0.387,-0.269 0.92,-0.415 1.424,-0.493c0.277,0.09 0.376,0.548 0.741,0.433c0.019,-0.244 -0.46,-0.275 -0.567,-0.543c0.051,-0.176 -0.19,-0.386 -0.057,-0.554c0.053,0.027 0.18,0.116 0.189,0.017c0.024,-0.156 -0.27,-0.396 0.016,-0.427c0.098,-0.001 0.234,0.01 0.288,0.059c0,-0.067 -0.032,-0.184 -0.034,-0.272c0.438,-0.05 0.203,0.377 0.494,0.48c-0.177,-0.621 0.018,-1.215 -0.007,-1.81c0.831,0.278 1.279,1.553 2.473,1.302c0.788,0.931 -0.088,2.118 0.035,3.149c-0.119,0.037 -0.223,0.082 -0.321,0.134c-0.201,-0.161 -0.439,-0.3 -0.648,-0.442c-0.15,0.021 -0.106,0.127 -0.061,0.209c0.186,0.085 0.341,0.222 0.498,0.353c-0.784,0.515 -0.96,1.382 -2.07,1.557c-0.87,0.746 1.139,0.757 1.267,1.351c1.805,-1.42 3.045,-3.659 5.658,-4.274c0.871,1.33 1.379,-0.885 2.076,0.528l-0.149,1.162c0.446,-0.218 0.932,-0.234 1.325,0.23c0.014,0.757 0.007,1.636 -0.224,2.4c0.512,-0.137 1.181,-0.678 1.995,-0.309l0.378,0.869c-0.176,0.221 -0.252,0.503 -0.704,0.489c0.475,0.237 -0.058,0.687 0.201,0.973c0.354,0.423 0.679,0.943 1.403,1.035c0.712,-0.131 1.884,-0.191 1.891,-0.945c0.156,-0.555 -0.341,-0.959 -0.554,-1.396c-0.636,-0.39 -1.123,-0.578 -1.853,-0.397c-0.007,0.001 -0.01,0.002 -0.014,0.002c0.217,-1.098 0.891,-1.994 1.968,-2.601c0.838,0.25 0.475,1.301 0.87,1.327c-0.019,-0.319 -0.187,-1.113 0.258,-1.327c1.102,0.587 2.312,1.52 3.174,2.516c-0.09,0.768 -0.068,1.588 -0.337,2.273c1.806,0.501 1.344,2.349 2.64,3.306c0.168,-0.314 -0.222,-0.78 -0.196,-1.133l-0.426,0.183c0.236,-0.294 -0.183,-0.408 0.052,-0.704l-0.084,0.035c0.011,-0.295 -0.799,-0.878 -0.001,-0.779c-0.165,-0.461 -0.857,-0.654 -1.465,-0.884c1.048,-0.251 -0.398,-0.707 0.796,-0.677c-0.252,-0.43 -0.478,0.348 -0.695,-0.19c-0.144,-0.374 -0.136,-0.756 -0.037,-1.132c0.398,0.511 0.696,1.03 0.832,1.52c-0.016,-0.31 0.637,0.065 0.877,-0.048c-0.24,-0.558 -0.533,-1.12 -0.835,-1.685c0.099,-0.2 0.275,-0.19 -0.012,-0.462c-0.129,-0.061 -0.182,-0.023 -0.211,0.042c-0.067,-0.121 -0.131,-0.242 -0.193,-0.361c0.173,-0.271 0.372,-0.534 0.573,-0.772c0.142,0.28 -0.332,0.624 0.12,0.873c0.035,-0.889 1.507,0.239 1.557,-0.706c0.615,0.468 0.531,0.747 0.89,1.325c-0.578,0.438 -0.995,-0.457 -1.486,-0.053c0.637,0.655 -0.675,0.77 0.256,1.446c-0.483,-0.67 -0.015,-0.723 0.023,-1.371c0.272,0.615 1.058,0.235 1.168,0.625l-0.637,0.122c0.328,0.004 0.406,0.19 0.427,0.436c-0.006,-0.008 -0.013,-0.017 -0.019,-0.023c0.005,0.006 0.013,0.015 0.019,0.023c0.024,0.266 -0.019,0.599 0.102,0.846l0.087,-0.033c0.242,0.189 -0.083,0.276 -0.115,0.387l0.413,-0.127c0.904,1.272 -0.909,2.081 0.134,3.15c0.508,-0.456 -0.339,-1.41 0.761,-1.584c0.515,-1.772 0.699,-3.693 -0.884,-5.212c-0.587,-0.821 -1.945,-0.54 -2.78,-0.771c-0.441,0.208 -0.731,0.489 -0.926,0.811c-0.329,-0.657 -0.623,-1.308 -0.809,-1.953c0.009,0.001 0.017,0.001 0.028,0.009c-0.066,-0.159 -0.052,-0.3 0.008,-0.433c1.189,-0.006 -0.904,-1.885 1.394,-1.736c0.531,0.179 0.192,1.111 1.096,0.995c0.593,-0.286 1.248,-0.501 1.946,-0.658c0.195,0.107 0.429,0.171 0.644,0.203c0.07,-0.102 0.089,-0.223 0.087,-0.346c0.181,-0.03 0.365,-0.059 0.551,-0.081c0.619,0.556 1.32,0.972 2.207,0.965c0.699,0.489 1.241,1.026 0.61,1.756c-0.224,0.417 -1.136,0.788 -0.779,1.309c-0.191,0.104 -0.35,0.224 -0.448,0.376c0.877,0.727 -0.815,1.672 0.738,1.932c-0.618,0.751 0.886,0.943 1.475,1.269c0.801,0.271 1.621,0.008 2.236,-0.256c0.152,-0.155 0.254,-0.336 0.398,-0.494c0.45,0.088 0.917,0.151 1.402,0.186c1.411,-0.026 2.452,-0.731 3.628,-1.274c0.84,-0.949 -0.392,-2.272 0.28,-3.19c-0.076,-0.485 -0.407,-0.939 -0.828,-1.364c0.011,-0.031 0.02,-0.066 0.029,-0.102c-0.145,-0.173 -0.133,-0.519 -0.483,-0.626c-0.148,-0.063 -0.321,-0.099 -0.491,-0.107c-0.13,-0.108 -0.261,-0.213 -0.383,-0.316c-0.035,0.015 -0.069,0.021 -0.106,0.029c-0.462,-0.395 -0.865,-1.014 -1.4,-1.451c0.095,-0.007 0.198,-0.006 0.274,-0.023c0.021,-0.16 -0.155,-0.362 -0.136,-0.485c0.271,0.101 0.406,-0.114 0.623,-0.134c-0.335,-0.073 -0.666,-0.239 -1.01,-0.397c1.543,-0.215 3.076,-0.452 4.698,-0.418c-0.015,0.139 -0.008,0.281 0.034,0.424c-0.085,0.105 -0.047,0.374 -0.319,0.329c-0.298,-0.051 -0.529,-0.147 -0.715,-0.317c-0.251,-0.123 -0.278,0.135 -0.516,0.006c0.008,0.228 0.478,0.186 0.507,0.442c0.228,0.062 0.525,0.062 0.721,0.243c0.295,0.266 0.234,0.592 0.435,0.861c-0.024,0.294 0.005,0.583 -0.129,0.835c-0.48,-0.081 -0.062,-0.575 -0.492,-0.803c-0.129,-0.068 -0.285,-0.038 -0.302,0.077c-0.042,0.213 0.198,0.624 -0.234,0.63c-0.142,0.024 -0.425,-0.085 -0.413,0.123c-0.195,0.383 -0.004,0.78 0.371,1.153c0.244,0.197 0.569,0.255 0.881,0.354c0.337,-0.002 0.405,-0.349 0.71,-0.371c0.17,-0.144 0.148,-0.417 0.151,-0.632c-0.308,-0.118 0.04,-0.517 -0.407,-0.501c0.005,-0.129 -0.148,-0.363 0.074,-0.385c0.168,0.08 0.371,0.095 0.56,0.136c-0.2,1.374 -0.81,2.764 -0.402,4.291c0.73,-0.302 0.475,-1.686 1.125,-2.27l2.158,-0.79c1.43,1.472 2.862,1.153 4.285,1.179c0.075,0.225 0.331,0.429 0.602,0.393c0.242,-0.004 0.314,-0.165 0.378,-0.293c0.299,0.063 0.595,0.16 0.892,0.317c-0.104,-0.49 -0.861,-1.242 -0.842,-1.888c-0.68,-0.88 -0.009,-1.16 0.59,-1.502c0.084,0.032 0.156,0.065 0.201,0.11c-0.247,0.092 -0.12,0.341 -0.229,0.491c0.501,-0.315 1.373,-0.327 1.835,-0.764c0.17,-0.003 0.415,-0.174 0.581,0.037c0.175,0.232 0.256,0.446 0.226,0.667c0.067,0.242 0.355,0.119 0.405,0.353c0.225,-0.131 -0.178,-0.433 0.059,-0.592c-0.111,-0.193 -0.344,-0.397 -0.307,-0.631c0.027,-0.222 0.191,-0.36 0.337,-0.505c0.253,0.083 0.506,0.164 0.756,0.226c0.064,0.077 0.174,0.119 0.27,0.082c0.01,-0.004 0.021,-0.008 0.032,-0.015c0.109,0.021 0.213,0.037 0.317,0.047c0.565,1.151 2.026,1.393 2.35,2.535c0.961,0.879 0.868,-0.783 1.589,-0.762c-0.723,-0.706 -1.595,-1.366 -2.442,-2.047c0.161,-0.158 0.26,-0.374 0.311,-0.619c0.008,-0.278 -0.181,-0.533 -0.319,-0.801c-0.266,-0.235 -0.669,-0.086 -0.926,-0.284c-0.271,-0.038 -0.522,0.111 -0.737,0.228c-0.348,-0.356 -0.659,-0.729 -0.921,-1.121c0.186,-0.102 0.313,-0.24 0.275,-0.477c0.148,-0.146 -0.036,-0.263 -0.103,-0.406c-0.073,-0.104 -0.175,-0.171 -0.288,-0.22c0.643,-0.467 -1.346,-1.194 0.155,-1.442l1.432,0.369c-0.291,-0.416 -0.335,-0.819 0.21,-1.047c0.926,0.149 2,0.339 2.95,0.694c-0.196,-0.454 -0.898,-1.122 -0.487,-1.716" style="fill:#fc1872;fill-rule:nonzero;"/><path d="M101.104,65.972c0.685,0.142 1.075,1.042 0.528,1.27c-0.411,-0.256 -0.632,-0.907 -0.528,-1.27" style="fill:#fc1872;fill-rule:nonzero;"/><path d="M37.305,15.939c0.411,0.08 0.47,0.752 0.967,0.661c-0.429,0.38 0.22,0.796 -0.034,1.225c-0.291,0.574 -0.752,0.709 -1.479,0.771c-0.51,-0.225 -1.166,-0.259 -1.551,-0.794c-0.649,-0.61 0.018,-1.343 0.339,-1.868c0.526,-0.351 1.177,-0.124 1.758,0.005" style="fill:#fc1872;fill-rule:nonzero;"/><path d="M24.324,0.052c0.536,-0.227 0.675,0.339 0.651,0.666c-0.15,-0.329 -1.216,0.125 -0.651,-0.666" style="fill:#fc1872;fill-rule:nonzero;"/><path d="M19.009,41.074c0.06,0.447 -0.254,0.739 -0.765,0.878c-0.523,0.072 -0.828,-0.089 -1.357,-0.293c-0.252,0.082 -0.548,-0.112 -0.764,-0.132c-0.131,-0.115 -0.218,-0.238 -0.266,-0.364c-0.073,-0.192 0.001,-0.331 0.13,-0.445c-0.104,-0.25 -0.16,-0.505 -0.172,-0.723c0.557,-0.315 1.214,-0.125 1.937,0.038c0.593,0.221 1.003,0.678 1.257,1.041" style="fill:#fc1872;fill-rule:nonzero;"/><path d="M33.387,22.898c0.311,0.217 0.455,-0.124 0.527,0.199c-0.203,0.019 -0.289,0.084 -0.327,0.175c0.019,-0.128 -0.001,-0.257 -0.2,-0.374" style="fill:#fc1872;fill-rule:nonzero;"/><path d="M33.557,23.41c-0.003,0.08 0,0.165 -0.006,0.262c-0.034,-0.085 -0.015,-0.17 0.006,-0.262" style="fill:#fc1872;fill-rule:nonzero;"/><path d="M33.587,23.272c-0.007,0.045 -0.02,0.092 -0.031,0.138c0.005,-0.051 0.014,-0.097 0.031,-0.138" style="fill:#fc1872;fill-rule:nonzero;"/><path d="M33.53,22.557c0.1,0.027 0.177,0.137 0.214,0.189c-0.14,0.128 -0.197,-0.058 -0.214,-0.189" style="fill:#fc1872;fill-rule:nonzero;"/><path d="M32.117,22.74l-0.344,-0.484l0.059,-0.026l0.345,0.483l-0.06,0.027Z" style="fill:#fc1872;fill-rule:nonzero;"/><path d="M33.498,21.31l0.011,0.342l-0.309,-0.215l0.298,-0.127Z" style="fill:#fc1872;fill-rule:nonzero;"/><path d="M31.502,22.089c-0.118,0.051 -0.274,0.048 -0.314,0.208c-0.035,-0.266 -0.018,-0.347 0.314,-0.208" style="fill:#fc1872;fill-rule:nonzero;"/><path d="M26.721,21.883c0.397,0.888 0.221,1.942 -0.941,2.159c-1.707,-0.885 -1.299,1.325 -2.969,0.495c-0.901,-0.178 -1.513,-0.826 -1.753,-1.495c0.488,-1.05 0.781,-1.946 0.155,-2.938c0.12,0.036 0.214,0.038 0.29,0.02c-0.012,-0.063 0.011,-0.126 0.062,-0.182c0.072,-0.054 0.137,-0.064 0.227,-0.071c0.071,-0.134 0.125,-0.288 0.217,-0.388c1.71,0.672 3.771,0.632 4.712,2.4" style="fill:#fc1872;fill-rule:nonzero;"/><path d="M28.588,20.811l0.198,-0.156l0.273,0.165l-0.471,-0.009Z" style="fill:#fc1872;fill-rule:nonzero;"/><path d="M41.774,15.116l0.076,0.108l0.017,0.131l-0.093,-0.239Z" style="fill:#fc1872;fill-rule:nonzero;"/><path d="M22.218,31.516l-0.259,-0.363c0.066,-0.029 0.112,0.033 0.246,-0.023c0.083,0.12 -0.006,0.236 0.013,0.386" style="fill:#fc1872;fill-rule:nonzero;"/><path d="M14.254,26.086l0.352,0.057l-0.086,0.108l-0.266,-0.165Z" style="fill:#fc1872;fill-rule:nonzero;"/><path d="M14.85,25.62l-0.153,-0.215l0.325,0.349l-0.172,-0.134Z" style="fill:#fc1872;fill-rule:nonzero;"/><path d="M28.083,19.555l0.645,0.146c-0.104,0.395 -0.449,-0.089 -0.645,-0.146" style="fill:#fc1872;fill-rule:nonzero;"/><path d="M39.346,11.041l0.37,-0.021c-0.177,0.077 -0.158,0.207 -0.37,0.021" style="fill:#fc1872;fill-rule:nonzero;"/><path d="M17.232,18.602c0.459,1.38 -1.415,2.416 -3.034,1.845c-0.564,-0.091 -1.074,-0.376 -1.482,-0.728c-0.158,-0.006 -0.311,-0.074 -0.452,-0.193c-0.055,-0.093 -0.063,-0.211 -0.033,-0.319c-0.139,-0.179 -0.251,-0.361 -0.329,-0.533c-0.103,-0.511 -0.202,-1.017 0.286,-1.304c0.498,-0.77 1.801,-0.77 2.81,-0.573c0.717,0.402 2.057,0.699 2.234,1.805" style="fill:#fc1872;fill-rule:nonzero;"/><path d="M29.696,52.464c-0.152,0.084 -0.577,0.109 -0.701,-0.192l0.088,-0.235c0.369,-0.016 0.893,0.049 0.613,0.427" style="fill:#fc1872;fill-rule:nonzero;"/><path d="M29.23,59.824c-0.112,0.023 -0.302,0.169 -0.365,0.017c0.117,-0.02 0.322,-0.117 0.365,-0.017" style="fill:#fc1872;fill-rule:nonzero;"/><path d="M35.423,51.763l0.04,0.103l-0.462,0.087l-0.042,-0.104l0.464,-0.086Z" style="fill:#fc1872;fill-rule:nonzero;"/><path d="M34.804,51.011c0.115,-0.021 0.173,-0.033 0.328,0.047c-0.131,0.135 -0.285,0.217 -0.461,0.087l0.133,-0.134Z" style="fill:#fc1872;fill-rule:nonzero;"/><path d="M20.073,54.106c-0.282,0.217 -0.672,0.019 -0.743,-0.296l0.29,-0.053c0.192,0.021 0.337,0.208 0.453,0.349" style="fill:#fc1872;fill-rule:nonzero;"/><path d="M72.185,14.739c0.12,0.135 -0.485,0.047 -0.311,0.418l-0.117,-0.136c-0.057,-0.235 0.19,-0.294 0.428,-0.282" style="fill:#fc1872;fill-rule:nonzero;"/><path d="M55.999,72.301c0.014,0.045 0.028,0.094 0.035,0.14c-0.024,-0.058 -0.033,-0.102 -0.035,-0.14" style="fill:#fc1872;fill-rule:nonzero;"/><path d="M84.596,29.179c-0.028,-0.012 -0.051,-0.022 -0.078,-0.033c-0.016,0.082 0.195,0.165 0.041,0.244c-0.203,-0.141 -0.389,-0.015 -0.568,0.037c-0.046,0.103 0.005,0.204 -0.063,0.287c-0.164,-0.152 -0.471,-0.217 -0.713,-0.098c-0.066,0.099 0.1,0.236 0.034,0.32c-0.272,-0.012 -0.059,-0.245 -0.325,-0.335c-0.165,-0.107 -0.26,0.067 -0.36,0.116l-0.183,-0.172l-0.221,0.121c-0.13,-0.083 -0.146,-0.368 -0.383,-0.345c-0.062,0.054 -0.13,0.154 -0.202,0.094c0.028,-0.342 -0.446,-0.512 -0.62,-0.793c-0.225,-0.098 -0.264,0.162 -0.369,0.255c0.429,0.227 -0.202,0.347 -0.01,0.599c-0.137,0.132 -0.291,0.301 -0.494,0.37c0.29,-0.036 0.555,-0.118 0.728,-0.357c0.076,0.263 -0.264,0.382 -0.453,0.572c-0.078,0.21 -0.328,0.452 -0.039,0.703c0.218,0.209 0.599,0.05 0.668,0.201c-0.547,0.008 -0.971,0.206 -1.45,0.335c-0.059,0.242 -0.461,0.161 -0.388,0.456c-0.266,-0.073 -0.622,-0.004 -0.878,-0.234c-0.106,-0.128 -0.314,-0.208 -0.222,-0.382c-0.232,-0.496 0.385,-0.695 0.682,-0.978c0.287,-0.28 0.742,-0.267 1.171,-0.298c-0.288,-0.107 -0.605,0.093 -0.908,-0.076c-0.214,-0.241 -0.469,-0.455 -0.545,-0.734c-0.059,-0.481 0.072,-0.886 0.554,-1.076c0.148,-0.166 0.325,0.068 0.477,0.125c0.411,0.221 0.505,-0.22 0.71,-0.36c0.107,-0.077 0.272,-0.02 0.343,0.102c0.221,0.399 -0.551,0.558 -0.166,0.872c0.319,-0.121 0.513,-0.358 0.763,-0.57c0.028,-0.312 0.337,-0.528 0.268,-0.887c-0.039,-0.242 -0.317,-0.398 -0.48,-0.566c0.17,-0.207 -0.298,-0.425 -0.125,-0.601c0.114,0.222 0.343,0.038 0.483,0.266c0.039,0.227 0.177,0.422 0.419,0.618c0.218,0.177 0.394,-0.047 0.55,-0.084c0.293,-0.533 1.104,-0.728 1.475,-1.147c-0.058,0.173 0.14,0.394 -0.062,0.538c0.128,0.084 0.402,0.067 0.571,0.172c-0.002,0.027 -0.01,0.056 -0.02,0.086c0.617,-0.24 1.501,0.252 2.131,0.512c0.539,0.452 0.401,0.978 0.364,1.453c-0.009,0.334 -0.819,0.348 -0.603,0.766c-0.555,-0.379 -0.925,0.138 -1.504,-0.094" style="fill:#fc1872;fill-rule:nonzero;"/><path d="M75.782,26.036l-0.696,0.616c-0.013,-0.071 0.427,-0.431 0.696,-0.616c-0.57,-0.417 -1.197,-0.864 -1.087,-1.465c-0.134,-1.877 1.551,-3.077 3.396,-3.995c1.074,0.476 1.113,-0.623 1.905,-0.659c0.031,1.175 -1.793,0.914 -2.291,1.894c0.091,0.068 0.146,0.183 0.209,0.259c0.035,0.059 0.072,0.115 0.113,0.173l0.029,0.009c-0.005,0.004 -0.01,0.005 -0.019,0.007c0.315,0.446 0.765,0.856 1.123,1.287c0.029,0.116 0.178,0.231 0.108,0.364c-0.036,0.184 -0.195,0 -0.332,0.025c-0.507,-0.505 -0.973,-0.99 -1.237,-1.616c-0.004,-0.002 -0.01,-0.006 -0.014,-0.01c-0.034,0.026 -0.053,0.068 -0.037,0.143l0.102,0.023c-0.094,0.232 -0.398,0.435 -0.587,0.627c-0.003,0.01 0,0.019 -0.003,0.027c0.003,-0.008 0,-0.017 0.003,-0.027c-0.176,0.177 -0.26,0.345 0.013,0.524l-0.637,-0.261c-0.215,0.322 0.752,0.489 0.496,1.051c0.547,-0.417 0.982,-0.201 1.112,-0.912c0.248,0.956 -0.956,0.328 -0.939,1.112c-0.735,0.009 -0.376,-0.819 -1.215,-0.835c-0.156,0.583 -0.446,0.726 -0.299,1.373c0.79,-0.61 1.142,0.942 1.878,0.361c0.187,0.411 -0.489,0.39 -0.59,0.654c1.239,-0.186 2.67,-0.535 3.145,-1.419c0.246,-0.481 -0.565,-0.078 -0.437,-0.503c0.987,0.662 0.129,-0.424 1.215,-0.027c-0.33,-0.484 -0.769,-0.987 -0.538,-1.388c0.597,0.498 0.377,-0.331 0.619,-0.526l-0.101,-0.02c0.434,-0.071 0.173,-0.375 0.605,-0.447l-0.507,-0.105c0.304,-0.225 0.344,-0.75 0.739,-0.871c0.336,1.345 -1.528,2.341 -0.4,3.651c-1.643,0.675 -2.651,2.47 -4.89,2.072c-0.158,-0.185 -0.396,-0.363 -0.65,-0.55" style="fill:#fc1872;fill-rule:nonzero;"/><path d="M76.953,25.043c0.159,0.021 0.311,0.011 0.415,-0.146c-0.201,0.245 0.248,0.384 -0.13,0.425c-0.068,-0.17 -0.166,-0.245 -0.285,-0.279" style="fill:#fc1872;fill-rule:nonzero;"/><path d="M76.456,24.99c0.097,-0.022 0.205,-0.003 0.32,0.019c-0.097,-0.006 -0.199,-0.007 -0.32,-0.019" style="fill:#fc1872;fill-rule:nonzero;"/><path d="M77.817,25.033c-0.012,0.081 -0.134,0.139 -0.188,0.165c-0.189,-0.12 0.027,-0.158 0.188,-0.165" style="fill:#fc1872;fill-rule:nonzero;"/><path d="M78.571,25.526c-0.035,-0.008 -0.063,-0.017 -0.089,-0.024c0.03,-0.002 0.059,0.005 0.089,0.024" style="fill:#fc1872;fill-rule:nonzero;"/><path d="M77.989,25.524c-0.029,-0.417 0.19,-0.165 0.55,-0.416c0.189,0.041 -0.491,0.259 -0.057,0.394c-0.166,0.006 -0.356,0.261 -0.493,0.022" style="fill:#fc1872;fill-rule:nonzero;"/><path d="M77.291,23.854l0.521,-0.259l0.045,0.051l-0.521,0.26l-0.045,-0.052Z" style="fill:#fc1872;fill-rule:nonzero;"/><path d="M79.333,25.073l-0.416,-0.011l0.197,-0.241l0.219,0.252Z" style="fill:#fc1872;fill-rule:nonzero;"/><path d="M86.546,33.15l-0.07,0.396l-0.13,-0.153l0.2,-0.243Z" style="fill:#fc1872;fill-rule:nonzero;"/><path d="M77.639,23.109c0.317,-0.015 0.417,0.006 0.318,0.272c-0.087,-0.1 -0.117,-0.231 -0.318,-0.272" style="fill:#fc1872;fill-rule:nonzero;"/><path d="M78.648,18.076c0.505,-0.05 1.072,0.005 1.371,-0.408c0.078,0.264 -0.265,0.383 -0.454,0.574c-0.077,0.207 -0.329,0.451 -0.04,0.7c0.22,0.21 0.603,0.051 0.67,0.203c-0.547,0.007 -0.974,0.208 -1.451,0.334c-0.059,0.244 -0.461,0.163 -0.387,0.458c-0.266,-0.074 -0.622,-0.006 -0.88,-0.235c-0.08,-0.1 -0.223,-0.171 -0.241,-0.28c-0.012,0.005 -0.024,0.011 -0.038,0.017c-1,0.279 -2.328,0.077 -2.837,-0.894c0.72,-1.366 -1.896,-1.146 -1.237,-2.483c0.029,-0.734 0.693,-1.206 1.461,-1.37c1.386,0.461 2.545,0.75 3.624,0.284c-0.086,0.474 0.592,0.496 0.928,0.693c-0.26,0.78 -0.22,1.664 -0.489,2.407" style="fill:#fc1872;fill-rule:nonzero;"/><path d="M79.137,21.212l-0.145,0.215l-0.088,-0.389l0.233,0.174Z" style="fill:#fc1872;fill-rule:nonzero;"/><path d="M88.542,32.305l-0.16,0.006l0.274,-0.065l-0.114,0.059Z" style="fill:#fc1872;fill-rule:nonzero;"/><path d="M64.467,15.202l0.392,-0.195c0.048,0.057 -0.02,0.092 0.078,0.203c-0.129,0.065 -0.291,-0.016 -0.47,-0.008" style="fill:#fc1872;fill-rule:nonzero;"/><path d="M69.422,8.904l0.004,0.286l-0.148,-0.073l0.144,-0.213Z" style="fill:#fc1872;fill-rule:nonzero;"/><path d="M70.348,9.304l-0.358,0.253l0.127,-0.135l0.231,-0.118Z" style="fill:#fc1872;fill-rule:nonzero;"/><path d="M80.292,21.215c-0.506,-0.111 0.011,-0.369 0.042,-0.526l-0.042,0.526Z" style="fill:#fc1872;fill-rule:nonzero;"/><path d="M93.128,30.454l0.104,0.31c-0.134,-0.15 -0.291,-0.143 -0.104,-0.31" style="fill:#fc1872;fill-rule:nonzero;"/><path d="M76.304,9.157c-0.016,-0.881 0.872,-1.567 1.682,-1.806c0.605,-0.056 1.203,-0.112 1.658,0.308c1.045,0.45 1.321,1.53 1.295,2.352c-0.342,0.574 -0.422,1.664 -1.737,1.754c-1.591,0.303 -3.252,-1.3 -2.898,-2.608" style="fill:#fc1872;fill-rule:nonzero;"/><path d="M36.596,11.63l0.127,0.243c0.017,0.159 -0.184,0.265 -0.331,0.354c-0.324,-0.244 -0.165,-0.557 0.204,-0.597" style="fill:#fc1872;fill-rule:nonzero;"/><path d="M95.948,60.186c-0.179,-0.084 -0.409,0.061 -0.539,-0.139c-0.09,-0.184 -0.066,-0.441 0.11,-0.605c0.213,-0.151 0.476,-0.12 0.727,0.042c0.179,0.234 0.099,0.668 -0.298,0.702" style="fill:#fc1872;fill-rule:nonzero;"/><path d="M96.293,56.913c-0.062,0.308 -0.088,0.666 -0.283,0.924c0.141,0.119 -0.103,0.143 -0.177,0.112c-0.112,-0.34 0.218,-0.662 0.199,-1.018c0.068,-0.058 0.159,-0.123 0.261,-0.018" style="fill:#fc1872;fill-rule:nonzero;"/><path d="M83.66,73.348c0.007,-0.263 0.387,-0.304 0.636,-0.441c0.14,-0.18 0.47,-0.353 0.254,-0.651c-0.151,-0.24 -0.586,-0.171 -0.605,-0.329c0.552,0.108 1.04,0.011 1.56,-0.007c0.133,-0.217 0.512,-0.057 0.53,-0.346c0.243,0.125 0.622,0.135 0.806,0.405c0.069,0.14 0.251,0.261 0.104,0.406c0.082,0.512 -0.603,0.566 -0.987,0.769c-0.691,0.369 -1.637,-0.304 -2.298,0.194" style="fill:#fc1872;fill-rule:nonzero;"/><path d="M93.969,54.706c-0.033,-0.001 -0.063,0.007 -0.091,0.033c0.025,-0.032 0.056,-0.036 0.091,-0.033" style="fill:#fc1872;fill-rule:nonzero;"/><path d="M93.969,54.706c0.089,0 0.19,0.064 0.249,0.028c-0.047,0.078 -0.157,-0.016 -0.249,-0.028" style="fill:#fc1872;fill-rule:nonzero;"/><path d="M93.803,54.81c-0.018,0.012 -0.044,0.005 -0.07,0l0.07,0Z" style="fill:#fc1872;fill-rule:nonzero;"/><path d="M93.733,54.81l-0.057,0c0.019,-0.005 0.035,-0.004 0.057,0" style="fill:#fc1872;fill-rule:nonzero;"/><path d="M93.733,54.93c-0.05,0.015 -0.11,0.008 -0.155,-0.042l0.061,-0.04c0.049,0.033 0.155,0.039 0.094,0.082" style="fill:#fc1872;fill-rule:nonzero;"/><path d="M82.463,65.006c-0.029,0.034 -0.064,0.066 -0.124,0.087c0.036,-0.031 0.076,-0.06 0.124,-0.087" style="fill:#fc1872;fill-rule:nonzero;"/><path d="M86.22,66.768c0.012,0.001 0.022,-0.004 0.034,-0.005c0.795,-0.049 0.864,0.697 0.498,1.031c0.329,0.549 0.619,1.078 0.685,1.686c0.116,0.127 0.428,0.493 0.078,0.562c-0.303,0.018 -0.303,-0.232 -0.371,-0.374c-0.15,-0.553 -0.535,-1.098 -0.791,-1.643c0,-0.024 -0.006,-0.05 -0.011,-0.075c-0.105,0.001 -0.203,-0.027 -0.281,-0.085c0.155,0.187 0.253,0.404 0.418,0.688c0.244,0.606 -0.187,1.224 -0.627,1.573c-0.719,-0.133 -1.08,-0.635 -1.517,-1.16c-0.28,-0.483 -0.215,-1.002 -0.106,-1.374c0.342,-0.312 0.847,-0.304 1.374,-0.091c0.126,0.068 0.226,0.139 0.311,0.212c-0.203,-0.3 -0.179,-0.778 0.159,-0.912c0,-0.004 -0.004,-0.006 -0.005,-0.015c0.033,-0.074 0.095,-0.057 0.152,-0.018" style="fill:#fc1872;fill-rule:nonzero;"/><path d="M87.15,60.191c-0.08,0.087 -0.165,0.087 -0.307,0.117c-0.178,0.015 -0.363,-0.103 -0.465,-0.209c0.039,-0.133 0.185,-0.179 0.336,-0.237c0.14,-0.03 0.293,0.011 0.404,0.052c0.093,0.085 0.092,0.185 0.032,0.277" style="fill:#fc1872;fill-rule:nonzero;"/><path d="M89.675,51.802c0.101,0.004 0.061,-0.093 0.14,-0.03c-0.034,0.032 -0.036,0.061 -0.026,0.087c-0.024,-0.034 -0.053,-0.058 -0.114,-0.057" style="fill:#fc1872;fill-rule:nonzero;"/><path d="M89.789,51.859c0.009,0.011 0.018,0.026 0.021,0.037c-0.007,-0.014 -0.015,-0.026 -0.021,-0.037" style="fill:#fc1872;fill-rule:nonzero;"/><path d="M89.81,51.896c0.017,0.018 0.035,0.036 0.057,0.06c-0.027,-0.014 -0.038,-0.035 -0.057,-0.06" style="fill:#fc1872;fill-rule:nonzero;"/><path d="M89.632,51.703c0.024,-0.008 0.061,0.007 0.08,0.013c0,0.051 -0.05,0.015 -0.08,-0.013" style="fill:#fc1872;fill-rule:nonzero;"/><path d="M89.632,51.503c0.004,0.007 0.006,0.011 0.006,0.016c-0.006,-0.005 -0.006,-0.01 -0.006,-0.016" style="fill:#fc1872;fill-rule:nonzero;"/><path d="M89.523,51.561c-0.025,-0.04 0.156,0.055 0.115,-0.042c0.029,0.033 0.138,0.033 0.098,0.089c-0.112,0.059 -0.08,-0.013 -0.213,-0.047" style="fill:#fc1872;fill-rule:nonzero;"/><path d="M90.401,49.089l-0.103,-0.007l0.123,-0.036l-0.02,0.043Z" style="fill:#fc1872;fill-rule:nonzero;"/><path d="M89.704,48.825l0.029,0.03l-0.066,-0.042l0.037,0.012Z" style="fill:#fc1872;fill-rule:nonzero;"/><path d="M78.705,33.891c0.31,0.521 0.839,0.984 1.247,1.475c0.032,0.115 0.175,0.232 0.109,0.366c-0.034,0.182 -0.196,-0.002 -0.333,0.023c-0.506,-0.507 -0.974,-0.99 -1.239,-1.616c-0.148,-0.102 -0.55,-0.403 -0.246,-0.543c0.276,-0.081 0.357,0.167 0.462,0.295" style="fill:#fc1872;fill-rule:nonzero;"/><path d="M84.509,37.566c0.012,-0.041 0.036,-0.08 0.088,-0.114c-0.025,0.04 -0.054,0.08 -0.088,0.114" style="fill:#fc1872;fill-rule:nonzero;"/><path d="M87.147,46.273c0.169,-0.148 0.48,-0.144 0.688,-0.08c0.133,0.069 0.262,0.138 0.271,0.265c0.121,0.208 -0.034,0.421 -0.199,0.552c-0.179,0.049 -0.408,0.217 -0.687,0.062c-0.377,-0.157 -0.398,-0.631 -0.073,-0.799" style="fill:#fc1872;fill-rule:nonzero;"/><path d="M35.959,52.128c0.108,-0.007 0.09,0.111 0.139,0.175c-0.059,-0.059 -0.062,-0.152 -0.139,-0.175" style="fill:#fc1872;fill-rule:nonzero;"/><path d="M36.188,52.342c-0.045,-0.001 -0.072,-0.018 -0.09,-0.039c0.021,0.02 0.05,0.033 0.09,0.039" style="fill:#fc1872;fill-rule:nonzero;"/><path d="M36.351,52.403l-0.049,-0.045c0.025,0.005 0.033,0.024 0.049,0.045" style="fill:#fc1872;fill-rule:nonzero;"/><path d="M33.311,22.329c-0.053,0.012 -0.116,0.013 -0.189,-0.008c0.062,-0.001 0.124,0.003 0.189,0.008" style="fill:#fc1872;fill-rule:nonzero;"/><path d="M35.088,25.662c-0.034,-0.08 -0.3,0.024 -0.151,-0.162c0.131,-0.052 0.16,0.085 0.151,0.162" style="fill:#fc1872;fill-rule:nonzero;"/><path d="M52.784,15.81l0.134,0.041l-0.052,0.018l-0.082,-0.059Z" style="fill:#fc1872;fill-rule:nonzero;"/><path d="M52.486,15.311l0.003,0.035l-0.024,-0.064l0.021,0.029Z" style="fill:#fc1872;fill-rule:nonzero;"/><path d="M51.833,14.171l0.106,-0.002c-0.052,0.019 -0.048,0.054 -0.106,0.002" style="fill:#fc1872;fill-rule:nonzero;"/><path d="M12.404,21.064c0.053,0.345 -0.338,0.618 -0.381,0.968c-0.08,0.044 -0.184,0.096 -0.271,-0.017c0.124,-0.291 0.212,-0.634 0.453,-0.86c-0.121,-0.133 0.131,-0.126 0.199,-0.091" style="fill:#fc1872;fill-rule:nonzero;"/><path d="M26.343,8.553c0.111,0.253 0.562,0.239 0.554,0.394c-0.539,-0.173 -1.045,-0.138 -1.575,-0.182c-0.174,0.193 -0.527,-0.008 -0.598,0.273c-0.221,-0.152 -0.605,-0.209 -0.741,-0.492c-0.042,-0.146 -0.207,-0.283 -0.032,-0.403c0.007,-0.507 0.71,-0.479 1.132,-0.631c0.764,-0.275 1.597,0.494 2.355,0.091c-0.054,0.256 -0.444,0.248 -0.721,0.35c-0.174,0.158 -0.536,0.286 -0.374,0.6" style="fill:#fc1872;fill-rule:nonzero;"/><path d="M13.457,24.38c0.064,-0.069 0.157,0.035 0.248,0.057c-0.091,-0.011 -0.176,-0.085 -0.248,-0.057" style="fill:#fc1872;fill-rule:nonzero;"/><path d="M13.705,24.437c0.032,0.004 0.067,0.001 0.099,-0.019c-0.032,0.026 -0.064,0.03 -0.099,0.019" style="fill:#fc1872;fill-rule:nonzero;"/><path d="M22.935,10.897c-0.093,-0.137 -0.341,-0.531 0.02,-0.554c0.313,0.021 0.269,0.261 0.312,0.408c0.048,0.555 0.341,1.128 0.504,1.69c-0.026,0.109 0.061,0.262 -0.068,0.352c-0.124,0.147 -0.191,-0.064 -0.34,-0.087c-0.248,-0.605 -0.468,-1.18 -0.428,-1.809" style="fill:#fc1872;fill-rule:nonzero;"/><path d="M13.963,24.366l0.057,0.006c-0.019,0.003 -0.038,0 -0.057,-0.006" style="fill:#fc1872;fill-rule:nonzero;"/><path d="M13.963,24.366l-0.074,-0.007c0.021,-0.012 0.045,-0.002 0.074,0.007" style="fill:#fc1872;fill-rule:nonzero;"/><path d="M13.984,24.248c0.052,-0.009 0.113,0.007 0.148,0.058l-0.07,0.035c-0.043,-0.04 -0.149,-0.059 -0.078,-0.093" style="fill:#fc1872;fill-rule:nonzero;"/><path d="M27.295,15.77c-0.044,0.025 -0.091,0.049 -0.143,0.07c0.036,-0.03 0.078,-0.057 0.143,-0.07" style="fill:#fc1872;fill-rule:nonzero;"/><path d="M26.731,18.865c-0.026,0.142 0.242,0.159 0.19,0.309c-0.165,-0.28 -0.406,0.055 -0.614,-0.124c-0.087,0.061 0.111,0.217 -0.087,0.237c-0.128,-0.191 -0.372,-0.141 -0.571,-0.156c-0.096,0.075 -0.093,0.18 -0.198,0.233c-0.087,-0.186 -0.354,-0.343 -0.647,-0.317c-0.113,0.063 -0.019,0.236 -0.123,0.288c-0.259,-0.1 0.061,-0.235 -0.154,-0.398c-0.112,-0.146 -0.286,-0.026 -0.406,-0.017l-0.096,-0.209l-0.277,0.033c-0.086,-0.114 0.037,-0.368 -0.206,-0.422c-0.087,0.024 -0.199,0.09 -0.242,0.013c0.192,-0.288 -0.187,-0.589 -0.221,-0.89c-0.174,-0.16 -0.339,0.057 -0.484,0.101c0.31,0.339 -0.367,0.236 -0.299,0.517c-0.24,0.088 -0.537,0.217 -0.811,0.142c-0.225,-0.222 -0.656,-0.127 -0.883,-0.385c-0.089,-0.277 -0.237,-0.55 -0.175,-0.815c0.174,-0.44 0.496,-0.749 1.056,-0.76c0.226,-0.092 0.284,0.167 0.405,0.265c0.295,0.329 0.599,-0.025 0.868,-0.08c0.136,-0.034 0.275,0.072 0.283,0.201c0.024,0.418 -0.805,0.306 -0.584,0.703c0.373,0 0.677,-0.143 1.024,-0.245c0.174,-0.264 0.578,-0.352 0.686,-0.687c0.076,-0.223 -0.118,-0.449 -0.198,-0.649c0.268,-0.125 -0.084,-0.466 0.165,-0.565c0.009,0.231 0.321,0.147 0.345,0.389c-0.07,0.212 -0.028,0.428 0.111,0.675c0.127,0.226 0.405,0.088 0.578,0.107c0.541,-0.368 1.425,-0.276 1.987,-0.519c-0.136,0.133 -0.051,0.388 -0.318,0.448c0.087,0.116 0.363,0.188 0.475,0.337c-0.027,0.041 -0.073,0.083 -0.12,0.125c0.167,0.026 0.346,0.086 0.52,0.11c0.267,-0.046 0.687,0.017 0.741,-0.302c0.064,-0.246 -0.36,-0.437 -0.251,-0.554c0.384,0.376 0.876,0.575 1.333,0.846c0.288,-0.074 0.481,0.24 0.734,0.053c0.024,0.048 0.056,0.094 0.095,0.145c0.246,0.017 0.463,0.225 0.654,0.282c0.096,0.136 0.147,0.268 0.154,0.396c0.024,0.383 -0.442,0.458 -0.815,0.565c-0.16,-0.031 -0.378,-0.069 -0.539,-0.165c-0.288,-0.029 -0.61,-0.152 -0.888,-0.195c-0.794,-0.111 -1.089,-0.898 -1.831,-1.08c-0.064,0.087 -0.087,0.191 0.03,0.331c0.432,0.045 0.524,0.501 0.894,0.64c-0.18,0.594 -1.201,0.312 -1.29,1.043" style="fill:#fc1872;fill-rule:nonzero;"/><path d="M23.837,13.674c-0.073,0.104 -0.182,-0.006 -0.225,-0.082c0.077,0.059 0.216,-0.151 0.225,0.082" style="fill:#fc1872;fill-rule:nonzero;"/><path d="M18.927,27.535c0.016,0.256 0.355,0.167 0.483,0.323c-0.381,0.118 -0.577,-0.354 -1.018,-0.283l0.027,0.102c-0.035,-0.018 -0.054,-0.097 -0.123,-0.064l0.011,0.024c-0.088,0.001 -0.192,-0.043 -0.28,-0.064c-0.002,0.003 -0.006,0.003 -0.009,0.004c0.003,-0.001 0.009,-0.001 0.009,-0.004c-0.08,-0.018 -0.142,-0.018 -0.155,0.051l-0.016,-0.15c-0.128,-0.015 -0.036,0.192 -0.245,0.191c0.209,0.071 0.209,0.178 0.443,0.14c-0.251,0.135 -0.242,-0.16 -0.475,-0.088c-0.112,-0.146 0.191,-0.147 0.07,-0.316c-0.2,0.02 -0.286,-0.025 -0.46,0.063c0.305,0.103 -0.112,0.312 0.174,0.406c-0.098,0.074 -0.192,-0.064 -0.288,-0.061c0.241,0.233 0.561,0.486 0.9,0.5c0.18,0.007 -0.061,-0.118 0.085,-0.129c-0.052,0.254 0.148,-0.012 0.191,0.238c0.094,-0.109 0.183,-0.239 0.339,-0.229c-0.062,0.162 0.154,0.045 0.248,0.076l-0.009,-0.022c0.088,0.08 0.14,0.001 0.225,0.083l-0.044,-0.111c0.113,0.041 0.277,0 0.374,0.069c-0.355,0.186 -0.935,-0.097 -1.159,0.245c-0.452,-0.268 -1.139,-0.309 -1.356,-0.79c0.105,-0.16 0.062,-0.48 0.347,-0.525c0.547,-0.195 1.16,0.035 1.711,0.321" style="fill:#fc1872;fill-rule:nonzero;"/><path d="M17.394,27.665c-0.011,-0.02 -0.029,-0.039 -0.042,-0.064c0.023,0.017 0.032,0.041 0.042,0.064" style="fill:#fc1872;fill-rule:nonzero;"/><path d="M17.413,27.705c-0.008,-0.012 -0.013,-0.026 -0.018,-0.04c0.007,0.015 0.016,0.028 0.018,0.04" style="fill:#fc1872;fill-rule:nonzero;"/><path d="M17.517,27.773c-0.104,-0.017 -0.077,0.083 -0.146,0.014c0.039,-0.03 0.048,-0.055 0.042,-0.082c0.017,0.033 0.043,0.062 0.104,0.068" style="fill:#fc1872;fill-rule:nonzero;"/><path d="M17.544,27.877c-0.028,0.002 -0.061,-0.014 -0.077,-0.024c0.006,-0.048 0.052,-0.007 0.077,0.024" style="fill:#fc1872;fill-rule:nonzero;"/><path d="M17.504,28.051c-0.024,-0.034 -0.135,-0.047 -0.081,-0.098c0.121,-0.042 0.076,0.025 0.207,0.073c0.014,0.043 -0.15,-0.072 -0.126,0.025" style="fill:#fc1872;fill-rule:nonzero;"/><path d="M17.508,28.07c-0.003,-0.009 -0.003,-0.012 -0.004,-0.019c0.004,0.006 0.005,0.012 0.004,0.019" style="fill:#fc1872;fill-rule:nonzero;"/><path d="M17.966,27.76l-0.153,-0.079l0.007,-0.015l0.156,0.08l-0.01,0.014Z" style="fill:#fc1872;fill-rule:nonzero;"/><path d="M17.76,28.182l-0.061,-0.084l0.102,0.019l-0.041,0.065Z" style="fill:#fc1872;fill-rule:nonzero;"/><path d="M16.272,30.357l0.027,-0.039l0.102,0.017l-0.129,0.022Z" style="fill:#fc1872;fill-rule:nonzero;"/><path d="M18.064,27.758c0.016,-0.027 0.051,-0.045 0.034,-0.089c0.051,0.062 0.058,0.084 -0.034,0.089" style="fill:#fc1872;fill-rule:nonzero;"/><path d="M20.178,26.314c0.067,0.318 0.152,0.573 0.456,0.749c-0.157,0.024 -0.061,0.16 -0.072,0.243c-0.482,0.032 -0.925,0.279 -1.425,-0.05c-0.232,-0.173 -0.371,-0.457 -0.156,-0.643c0.522,0.022 0.064,-0.482 0.563,-0.466c0.228,-0.062 0.469,0.03 0.634,0.167" style="fill:#fc1872;fill-rule:nonzero;"/><path d="M18.893,27.799l-0.088,-0.01l0.104,-0.052l-0.016,0.062Z" style="fill:#fc1872;fill-rule:nonzero;"/><path d="M16.955,30.658l-0.027,-0.032l0.059,0.049l-0.032,-0.017Z" style="fill:#fc1872;fill-rule:nonzero;"/><path d="M21.063,24.763l0.087,0.009l-0.084,0.027l-0.003,-0.036Z" style="fill:#fc1872;fill-rule:nonzero;"/><path d="M21.038,24.943l0.059,0.012l0.07,0.038l-0.129,-0.05Z" style="fill:#fc1872;fill-rule:nonzero;"/><path d="M19.227,27.992l-0.163,0.04c-0.043,-0.113 0.111,-0.032 0.163,-0.04" style="fill:#fc1872;fill-rule:nonzero;"/><path d="M18.12,31.458c0.026,-0.04 -0.001,-0.073 0.078,-0.051l-0.078,0.051Z" style="fill:#fc1872;fill-rule:nonzero;"/><path d="M25.537,24.278c0.234,-0.072 0.537,0.031 0.708,0.155c0.095,0.102 0.189,0.205 0.137,0.318c0.017,0.222 -0.235,0.355 -0.459,0.415c-0.199,-0.017 -0.502,0.058 -0.7,-0.169c-0.293,-0.258 -0.086,-0.678 0.314,-0.719" style="fill:#fc1872;fill-rule:nonzero;"/><path d="M24.548,48.489c0.259,0.106 0.629,0.082 0.845,0.335c0.088,0.138 0.28,0.241 0.157,0.398c0.146,0.508 -0.514,0.626 -0.863,0.865c-0.626,0.435 -1.643,-0.157 -2.219,0.402c-0.029,-0.265 0.335,-0.339 0.56,-0.499c0.115,-0.196 0.414,-0.397 0.164,-0.679c-0.181,-0.229 -0.595,-0.119 -0.636,-0.274c0.552,0.059 1.016,-0.083 1.522,-0.15c0.102,-0.229 0.494,-0.101 0.47,-0.398" style="fill:#fc1872;fill-rule:nonzero;"/><path d="M20.181,42.205c-0.021,0.04 -0.051,0.075 -0.106,0.102c0.028,-0.036 0.068,-0.069 0.106,-0.102" style="fill:#fc1872;fill-rule:nonzero;"/><path d="M25.825,25.434l-0.011,0.046l-0.101,0.003l0.112,-0.049Z" style="fill:#fc1872;fill-rule:nonzero;"/><path d="M23.327,34.467c-0.091,0.104 -0.286,0.225 -0.467,0.22c-0.276,-0.107 -0.615,-0.268 -0.773,-0.52c0.248,-0.237 0.648,-0.445 1.094,-0.287c0.307,0.134 0.205,0.362 0.146,0.587" style="fill:#fc1872;fill-rule:nonzero;"/><path d="M24.177,28.537l0.085,-0.011l-0.085,0.075l0,-0.064Z" style="fill:#fc1872;fill-rule:nonzero;"/><path d="M25.058,25.266l0.039,0.011l0.034,0.025l-0.073,-0.036Z" style="fill:#fc1872;fill-rule:nonzero;"/><path d="M23.807,28.416l0.138,-0.074c0.074,0.101 -0.096,0.054 -0.138,0.074" style="fill:#fc1872;fill-rule:nonzero;"/><path d="M23.708,24.787l0.056,-0.063c-0.011,0.043 0.024,0.071 -0.056,0.063" style="fill:#fc1872;fill-rule:nonzero;"/><path d="M19.147,32.66c0.168,0.092 0.237,0.242 0.231,0.39c0.496,-0.127 1.282,0.751 0.782,1.078c-0.558,0.408 -1.117,-0.213 -1.084,-0.684c-0.195,0.121 -0.508,0.081 -0.705,-0.007c-0.123,-0.083 -0.24,-0.165 -0.227,-0.289c-0.084,-0.217 0.11,-0.404 0.301,-0.51c0.189,-0.027 0.448,-0.162 0.702,0.022" style="fill:#fc1872;fill-rule:nonzero;"/><path d="M72.259,29.971c0.006,-0.006 0.01,-0.013 0.015,-0.017c-0.004,0.004 -0.007,0.011 -0.015,0.017" style="fill:#fc1872;fill-rule:nonzero;"/><path d="M72.259,29.971c-0.013,0.019 -0.024,0.041 -0.042,0.064c0.003,-0.024 0.024,-0.044 0.042,-0.064" style="fill:#fc1872;fill-rule:nonzero;"/><path d="M72.272,29.854c0.049,0.073 0.128,0.011 0.108,0.089c-0.053,-0.015 -0.084,-0.007 -0.105,0.012c0.021,-0.028 0.032,-0.059 -0.003,-0.101" style="fill:#fc1872;fill-rule:nonzero;"/><path d="M72.38,29.852c-0.052,0.016 -0.042,-0.032 -0.03,-0.06c0.022,0.013 0.029,0.043 0.03,0.06" style="fill:#fc1872;fill-rule:nonzero;"/><path d="M72.543,29.736c-0.022,0.031 0.041,0.107 -0.04,0.097c-0.119,-0.057 -0.03,-0.059 -0.067,-0.164c0.028,-0.029 0.029,0.127 0.107,0.067" style="fill:#fc1872;fill-rule:nonzero;"/><path d="M72.556,29.727c-0.007,0.003 -0.011,0.004 -0.013,0.009c0,-0.005 0.005,-0.008 0.013,-0.009" style="fill:#fc1872;fill-rule:nonzero;"/><path d="M71.991,29.709l-0.017,0l-0.026,-0.135l0.017,0.001l0.026,0.134Z" style="fill:#fc1872;fill-rule:nonzero;"/><path d="M72.455,29.592l-0.049,-0.072l0.09,-0.003l-0.041,0.075Z" style="fill:#fc1872;fill-rule:nonzero;"/><path d="M75.447,29.473l-0.049,-0.072l0.104,0.071l-0.055,0.001Z" style="fill:#fc1872;fill-rule:nonzero;"/><path d="M71.9,29.518c-0.035,0 -0.078,-0.016 -0.105,0.016c0.025,-0.061 0.04,-0.076 0.105,-0.016" style="fill:#fc1872;fill-rule:nonzero;"/><path d="M71.442,29.03l-0.115,-0.041l0.071,-0.016l0.044,0.057Z" style="fill:#fc1872;fill-rule:nonzero;"/><path d="M75.329,28.876l0.01,0.031l-0.014,0.028l0.004,-0.059Z" style="fill:#fc1872;fill-rule:nonzero;"/><path d="M75.224,27.78l0.098,0.03c-0.054,0 -0.065,0.029 -0.098,-0.03" style="fill:#fc1872;fill-rule:nonzero;"/><path d="M69.287,63.211c-0.062,-0.007 -0.125,-0.016 -0.187,-0.032c0.057,-0.005 0.118,0.002 0.187,0.032" style="fill:#fc1872;fill-rule:nonzero;"/><path d="M56.618,66.061l0.03,0.061l-0.07,-0.102l0.04,0.041Z" style="fill:#fc1872;fill-rule:nonzero;"/><path d="M60.097,68.332c-0.039,-0.334 0.475,-0.504 0.845,-0.316c0.259,0.078 0.433,0.313 0.479,0.49c-0.001,0.123 -0.001,0.242 -0.14,0.293c-0.162,0.158 -0.484,0.111 -0.724,0.031c-0.158,-0.119 -0.473,-0.236 -0.46,-0.498" style="fill:#fc1872;fill-rule:nonzero;"/><path d="M86.358,48.371c-0.08,0.086 -0.165,0.088 -0.306,0.118c-0.176,0.014 -0.362,-0.105 -0.464,-0.209c0.037,-0.137 0.182,-0.18 0.336,-0.241c0.141,-0.028 0.292,0.013 0.402,0.055c0.093,0.084 0.093,0.183 0.032,0.277" style="fill:#fc1872;fill-rule:nonzero;"/><path d="M84.676,45.461c0.281,-0.208 0.717,-0.377 1.143,-0.181c0.294,0.161 0.161,0.376 0.069,0.588c-0.103,0.098 -0.319,0.196 -0.501,0.177c-0.262,-0.132 -0.585,-0.321 -0.711,-0.584" style="fill:#fc1872;fill-rule:nonzero;"/><path d="M85.983,43.449l-0.086,0l0.078,-0.037l0.008,0.037Z" style="fill:#fc1872;fill-rule:nonzero;"/><path d="M85.974,43.262l-0.058,-0.006l-0.075,-0.028l0.133,0.034Z" style="fill:#fc1872;fill-rule:nonzero;"/><path d="M83.719,25.746c0.013,-0.042 0.035,-0.081 0.085,-0.114c-0.024,0.041 -0.051,0.078 -0.085,0.114" style="fill:#fc1872;fill-rule:nonzero;"/><path d="M79.807,24.722c-0.01,0.125 -0.159,0.051 -0.234,-0.007c0.096,0.031 0.115,-0.217 0.234,0.007" style="fill:#fc1872;fill-rule:nonzero;"/><path d="M80.841,31.533c0.047,-0.101 0.128,-0.121 0.249,-0.179c0.159,-0.054 0.365,0.026 0.496,0.11c0.009,0.143 -0.113,0.219 -0.237,0.308c-0.122,0.061 -0.278,0.049 -0.394,0.032c-0.111,-0.065 -0.14,-0.166 -0.114,-0.271" style="fill:#fc1872;fill-rule:nonzero;"/><path d="M82.053,33.934c0.011,-0.021 0.028,-0.039 0.042,-0.057c-0.024,-0.017 -0.047,-0.035 -0.069,-0.052c-0.268,-0.088 -0.603,-0.327 -0.872,-0.114c-0.224,0.157 0.03,0.493 -0.15,0.531c-0.087,-0.456 -0.394,-0.832 -0.623,-1.246c-0.307,-0.076 -0.267,-0.401 -0.619,-0.375c0.051,-0.214 -0.085,-0.519 0.159,-0.702c0.14,-0.074 0.209,-0.238 0.438,-0.141c0.572,-0.136 0.91,0.402 1.302,0.683c0.475,0.335 0.444,0.828 0.626,1.255c0.056,-0.03 0.115,-0.056 0.179,-0.063c0.285,0.077 0.645,0.199 0.839,0.433c-0.194,0.268 -0.549,0.528 -1.008,0.42c-0.32,-0.098 -0.264,-0.341 -0.244,-0.572" style="fill:#fc1872;fill-rule:nonzero;"/><path d="M82.717,36.369l0.078,-0.019l-0.063,0.056l-0.015,-0.037Z" style="fill:#fc1872;fill-rule:nonzero;"/><path d="M82.778,36.552l0.061,-0.003l0.075,0.012l-0.136,-0.009Z" style="fill:#fc1872;fill-rule:nonzero;"/><path d="M88.099,26.275c0.208,0.364 -0.162,0.587 -0.433,0.813c-0.219,0.027 -0.535,0.087 -0.756,-0.075c-0.52,-0.305 -0.322,-0.839 0.026,-1.067c0.232,-0.198 0.606,0.002 0.839,-0.006c0.148,0.1 0.256,0.215 0.324,0.335" style="fill:#fc1872;fill-rule:nonzero;"/><path d="M86.427,35.252c-0.374,-0.157 -0.397,-0.631 -0.072,-0.801c0.17,-0.145 0.48,-0.143 0.69,-0.079c0.132,0.069 0.26,0.139 0.27,0.264c0.12,0.21 -0.034,0.42 -0.2,0.552c-0.178,0.05 -0.408,0.218 -0.688,0.064" style="fill:#fc1872;fill-rule:nonzero;"/><path d="M53.768,12.255c0.164,-0.192 0.64,0.164 0.637,-0.204c-0.104,-0.035 -0.244,-0.056 -0.325,-0.081c0.067,-0.024 0.101,-0.131 0.11,-0.209c0.003,-0.241 -0.323,-0.099 -0.499,-0.177c-0.12,-0.049 0.005,-0.114 0.045,-0.149c-0.181,-0.172 -0.467,-0.063 -0.664,-0.171c-0.019,-0.001 -0.037,-0.002 -0.053,0c-0.048,0.086 -0.105,0.164 -0.165,0.238c0.165,-0.047 0.354,-0.055 0.526,-0.005c0.953,0.272 -0.068,1.354 -0.729,0.888c-0.254,-0.16 -0.33,-0.333 -0.294,-0.484c-0.084,0.052 -0.17,0.1 -0.256,0.14c-0.533,0.025 -0.956,-0.249 -1.232,-0.679c-0.213,-0.463 -0.052,-0.705 0.095,-1.181c0.145,-0.284 0.451,-0.469 0.803,-0.583c-0.18,-0.043 -0.371,-0.105 -0.601,-0.199c0.24,-0.017 0.728,-0.167 1.107,0.02c-0.39,-0.202 -0.942,-0.64 -1.496,-0.744c0.57,-0.086 1.202,0.375 1.714,0.106c0.049,-0.11 -0.014,-0.237 -0.048,-0.315c0.024,-0.121 0.176,-0.049 0.28,-0.051c0.191,-0.463 -0.51,-0.901 -0.623,-1.375c0.061,-0.005 0.182,0.08 0.186,-0.035c0.103,0.239 0.402,0.404 0.392,0.667c0.104,0.055 0.215,0.159 0.322,0.099c0.247,-0.316 -0.261,-0.473 -0.177,-0.784c0.052,-0.075 0.172,-0.084 0.287,-0.072c0.239,0.205 0.17,0.435 0.38,0.651c0.257,0.344 0.759,0.155 1.028,0.457c0.082,0.062 0.175,0.194 0.068,0.255c0.23,0.245 0.512,0.47 0.88,0.515c0.166,-0.064 0.28,-0.201 0.539,-0.224c0.084,-0.035 0.251,-0.005 0.261,0.104c-0.055,0.131 -0.298,0.149 -0.469,0.142c0.154,0.198 0.557,0.359 0.876,0.482c0.364,-0.143 -0.028,-0.53 0.124,-0.772c0.336,0.278 0.077,0.822 0.621,1.003c0.305,0.106 0.074,-0.232 0.289,-0.222c0.124,0.12 0.029,0.287 0.095,0.409c0.174,0.135 0.107,0.442 0.396,0.367c0.18,0.543 0.719,1.023 0.445,1.608c0.254,0.311 -0.18,0.57 -0.255,0.765c-0.375,0.532 -1.203,0.552 -1.877,0.643c-0.934,-0.106 -1.77,-0.713 -2.743,-0.843" style="fill:#fc1872;fill-rule:nonzero;"/><path d="M50.491,9.768c0.045,-0.008 0.078,0.004 0.103,0.027c-0.028,-0.019 -0.06,-0.028 -0.103,-0.027" style="fill:#fc1872;fill-rule:nonzero;"/><path d="M50.594,9.795c0.076,0.047 0.108,0.147 0.191,0.156c-0.107,0.026 -0.123,-0.098 -0.191,-0.156" style="fill:#fc1872;fill-rule:nonzero;"/><path d="M32.741,16.216c0.321,-0.455 0.429,-1.035 0.651,-1.545c0.096,-0.073 0.114,-0.23 0.298,-0.243c0.208,-0.062 0.133,0.135 0.251,0.218c-0.168,0.584 -0.342,1.131 -0.797,1.602c-0.006,0.149 -0.036,0.568 -0.385,0.424c-0.274,-0.155 -0.074,-0.325 -0.018,-0.456" style="fill:#fc1872;fill-rule:nonzero;"/><path d="M50.307,9.735l-0.045,-0.029c0.019,0.007 0.034,0.019 0.045,0.029" style="fill:#fc1872;fill-rule:nonzero;"/><path d="M50.307,9.735l0.064,0.041c-0.026,-0.002 -0.042,-0.02 -0.064,-0.041" style="fill:#fc1872;fill-rule:nonzero;"/><path d="M50.113,9.707l0.087,0.005c0.014,0.049 0.097,0.11 0.012,0.107c-0.054,-0.016 -0.099,-0.054 -0.099,-0.112" style="fill:#fc1872;fill-rule:nonzero;"/><path d="M32.519,10.509c-0.056,0.012 -0.114,0.013 -0.189,-0.008c0.062,-0.002 0.126,0.002 0.189,0.008" style="fill:#fc1872;fill-rule:nonzero;"/><path d="M38.012,12.72c-0.27,-0.027 -0.153,-0.256 -0.2,-0.387c-0.056,-0.385 -0.568,-0.245 -0.85,-0.321c-0.154,-0.037 -0.21,-0.182 -0.134,-0.285c0.253,-0.339 0.946,0.12 1.003,-0.291c-0.345,-0.164 -0.719,-0.186 -1.107,-0.262c-0.332,0.128 -0.767,0.016 -1.085,0.23c-0.219,0.14 -0.187,0.403 -0.245,0.594c-0.331,-0.022 -0.23,0.402 -0.528,0.368c0.146,-0.186 -0.196,-0.258 -0.06,-0.459c0.203,-0.133 0.308,-0.321 0.342,-0.576c0.032,-0.233 -0.317,-0.248 -0.461,-0.339c-0.741,0.044 -1.49,-0.417 -2.168,-0.483c0.209,-0.045 0.297,-0.278 0.579,-0.209c-0.004,-0.127 -0.211,-0.308 -0.219,-0.473c0.184,-0.069 0.568,-0.03 0.539,-0.352c-0.368,-0.23 -0.152,-0.626 -0.405,-0.901c0.563,-0.381 1.315,0.294 1.879,-0.238c0.12,-0.1 -0.118,-0.232 0.03,-0.326c-0.033,0.292 0.41,0.139 0.485,0.37c0.12,-0.007 0.038,-0.218 0.235,-0.146c-0.007,0.207 0.252,0.275 0.425,0.375c0.137,-0.014 0.208,-0.098 0.34,-0.091c-0.047,0.184 0.098,0.425 0.384,0.539c0.149,-0.001 0.175,-0.178 0.305,-0.172c0.172,0.193 -0.21,0.154 -0.122,0.377c0.007,0.166 0.248,0.147 0.367,0.196l-0.052,0.204l0.28,0.096c0.002,0.13 -0.279,0.274 -0.09,0.426c0.095,0.017 0.241,0.017 0.234,0.096c-0.368,0.14 -0.216,0.544 -0.385,0.793c0.057,0.201 0.347,0.107 0.517,0.138c-0.066,-0.403 0.489,-0.021 0.612,-0.272c0.28,0.04 0.637,0.07 0.845,0.251c0.06,0.274 0.522,0.394 0.56,0.694c-0.097,0.258 -0.14,0.536 -0.375,0.717c-0.45,0.265 -0.949,0.364 -1.475,0.119" style="fill:#fc1872;fill-rule:nonzero;"/><path d="M34.145,13.679c0.131,-0.05 0.163,0.086 0.153,0.163c-0.033,-0.078 -0.302,0.024 -0.153,-0.163" style="fill:#fc1872;fill-rule:nonzero;"/><path d="M40.019,9.713c-0.165,-0.086 -0.227,-0.268 -0.23,-0.396c0.142,-0.071 0.303,-0.022 0.478,0.021c0.145,0.056 0.243,0.168 0.301,0.257c0.012,0.106 -0.069,0.174 -0.195,0.204c-0.137,0.016 -0.213,-0.031 -0.354,-0.086" style="fill:#fc1872;fill-rule:nonzero;"/><path d="M47.813,5.048c0.153,-0.207 -0.218,-0.288 -0.233,-0.467c0.429,0.076 0.301,0.534 0.755,0.676l0.043,-0.093c0.021,0.03 -0.017,0.1 0.071,0.104l0.007,-0.022c0.079,0.038 0.149,0.118 0.214,0.172c0.003,0.001 0.008,0.002 0.008,0.002c0,0 -0.003,-0.001 -0.008,-0.002c0.062,0.051 0.118,0.08 0.176,0.033l-0.082,0.124c0.109,0.067 0.16,-0.135 0.349,-0.043c-0.141,-0.149 -0.073,-0.231 -0.312,-0.304c0.32,0.006 0.116,0.231 0.382,0.28c0.004,0.162 -0.276,0.031 -0.275,0.216c0.199,0.072 0.245,0.145 0.464,0.155c-0.211,-0.216 0.309,-0.193 0.109,-0.394c0.139,-0.016 0.134,0.135 0.224,0.173c-0.072,-0.288 -0.198,-0.627 -0.498,-0.79c-0.163,-0.085 -0.024,0.12 -0.168,0.064c0.218,-0.177 -0.142,-0.057 -0.018,-0.272c-0.159,0.043 -0.325,0.106 -0.462,0.029c0.162,-0.1 -0.112,-0.103 -0.181,-0.171l-0.007,0.022c-0.026,-0.102 -0.128,-0.066 -0.154,-0.166l-0.033,0.106c-0.076,-0.081 -0.252,-0.123 -0.296,-0.22c0.449,0.014 0.798,0.491 1.23,0.326c0.237,0.408 0.85,0.749 0.731,1.221c-0.203,0.078 -0.373,0.348 -0.668,0.255c-0.632,-0.092 -1.045,-0.544 -1.368,-1.014" style="fill:#fc1872;fill-rule:nonzero;"/><path d="M49.417,5.548c-0.056,0.003 -0.081,0.021 -0.092,0.048c0.009,-0.037 0.004,-0.071 -0.052,-0.107c0.084,0.062 0.128,-0.028 0.144,0.059" style="fill:#fc1872;fill-rule:nonzero;"/><path d="M49.325,5.596c-0.001,0.005 -0.004,0.012 -0.007,0.021c0.004,-0.009 0.006,-0.016 0.007,-0.021" style="fill:#fc1872;fill-rule:nonzero;"/><path d="M49.318,5.616c-0.004,0.025 -0.003,0.052 -0.006,0.082c-0.009,-0.024 -0.002,-0.053 0.006,-0.082" style="fill:#fc1872;fill-rule:nonzero;"/><path d="M49.318,5.4c0.026,0.009 0.047,0.036 0.058,0.052c-0.042,0.032 -0.058,-0.017 -0.058,-0.052" style="fill:#fc1872;fill-rule:nonzero;"/><path d="M49.337,5.243c0.013,-0.04 0.091,0.124 0.132,0.037c0,0.037 0.094,0.097 0.012,0.113c-0.141,-0.022 -0.056,-0.055 -0.144,-0.15" style="fill:#fc1872;fill-rule:nonzero;"/><path d="M49.478,5.266c-0.002,0.006 -0.005,0.009 -0.009,0.014c0.001,-0.005 0.001,-0.012 0.009,-0.014" style="fill:#fc1872;fill-rule:nonzero;"/><path d="M48.924,5.44l-0.091,-0.133l0.018,-0.006l0.09,0.132l-0.017,0.007Z" style="fill:#fc1872;fill-rule:nonzero;"/><path d="M49.238,5.097l0.083,-0.032l0,0.093l-0.083,-0.061Z" style="fill:#fc1872;fill-rule:nonzero;"/><path d="M51.993,3.989l0.134,0.041l-0.051,0.019l-0.083,-0.06Z" style="fill:#fc1872;fill-rule:nonzero;"/><path d="M48.76,5.26c-0.035,0.013 -0.078,0.012 -0.09,0.054c-0.007,-0.071 0,-0.095 0.09,-0.054" style="fill:#fc1872;fill-rule:nonzero;"/><path d="M41.984,7.849c-0.161,0.007 -0.426,-0.041 -0.566,-0.153c-0.116,-0.234 -0.242,-0.538 -0.135,-0.783c0.408,0.01 0.91,0.135 1.12,0.499c0.12,0.269 -0.168,0.34 -0.419,0.437" style="fill:#fc1872;fill-rule:nonzero;"/><path d="M47.436,5.173c0.102,0.24 0.041,0.522 -0.283,0.573c-0.462,-0.251 -0.373,0.346 -0.826,0.111c-0.248,-0.054 -0.412,-0.232 -0.47,-0.412c0.146,-0.279 0.235,-0.517 0.072,-0.788c0.158,0.051 0.16,-0.101 0.226,-0.159c0.468,0.19 1.037,0.195 1.281,0.675" style="fill:#fc1872;fill-rule:nonzero;"/><path d="M47.964,4.898l0.057,-0.041l0.073,0.046l-0.13,-0.005Z" style="fill:#fc1872;fill-rule:nonzero;"/><path d="M51.695,3.491l0.004,0.035l-0.024,-0.065l0.02,0.03Z" style="fill:#fc1872;fill-rule:nonzero;"/><path d="M44.013,6.26l-0.074,-0.046l0.098,0.019l-0.024,0.027Z" style="fill:#fc1872;fill-rule:nonzero;"/><path d="M44.069,6.033l0.088,0.097l-0.048,-0.037l-0.04,-0.06Z" style="fill:#fc1872;fill-rule:nonzero;"/><path d="M47.837,4.557l0.178,0.045c-0.035,0.104 -0.123,-0.028 -0.178,-0.045" style="fill:#fc1872;fill-rule:nonzero;"/><path d="M51.042,2.35l0.105,-0.001c-0.052,0.019 -0.048,0.053 -0.105,0.001" style="fill:#fc1872;fill-rule:nonzero;"/><path d="M39.012,4.205c-0.019,-0.12 -0.04,-0.243 0.083,-0.309c0.129,-0.18 0.452,-0.171 0.697,-0.12c0.037,0.022 0.081,0.041 0.126,0.063c-0.078,-0.444 0.322,-0.912 0.829,-0.768c0.092,0.335 -0.171,0.76 -0.492,0.983c0.039,0.047 0.065,0.103 0.074,0.168c0.1,0.33 -0.371,0.567 -0.763,0.422c-0.266,-0.048 -0.476,-0.263 -0.554,-0.439" style="fill:#fc1872;fill-rule:nonzero;"/><path d="M77.587,81.098c-0.592,0.093 -1.058,0.466 -1.773,0.201c-0.317,0.169 -0.681,-0.19 -0.92,-0.265c-0.665,-0.337 -0.82,-0.984 -1.03,-1.514c-0.028,-0.714 0.535,-1.308 0.529,-2.049c0.248,0.144 -0.086,0.481 0.339,0.512c0.021,-0.079 0.021,-0.186 0.037,-0.247c0.041,0.054 0.166,0.088 0.258,0.104c0.276,0.026 0.062,-0.239 0.126,-0.372c0.035,-0.086 0.13,0.016 0.176,0.048c0.168,-0.124 0,-0.353 0.091,-0.498c-0.027,-0.254 -0.47,-0.369 -0.387,-0.581c0.373,-0.033 0.344,0.386 0.581,0.518c0.496,0.02 1.029,-0.013 1.466,-0.18c0.016,-0.414 -0.001,-0.656 0.176,-1.067c0.059,0.189 0.307,0.579 0.152,0.857c0.171,-0.286 0.584,-0.673 0.615,-1.094c0.192,0.449 -0.239,0.9 0.151,1.319c0.134,0.051 0.266,0.011 0.354,-0.006c0.141,0.026 0.083,0.139 0.101,0.22c0.56,0.189 0.951,-0.314 1.479,-0.361c0.015,0.047 -0.066,0.133 0.068,0.148c-0.259,0.057 -0.399,0.276 -0.702,0.244c-0.046,0.071 -0.147,0.154 -0.063,0.24c0.401,0.22 0.503,-0.159 0.87,-0.067c0.098,0.047 0.124,0.143 0.13,0.23c-0.195,0.171 -0.47,0.091 -0.686,0.236c-0.354,0.168 -0.057,0.574 -0.364,0.757c-0.054,0.058 -0.196,0.117 -0.276,0.029c-0.245,0.155 -0.46,0.354 -0.453,0.635c0.098,0.135 0.273,0.238 0.344,0.438c0.048,0.068 0.042,0.195 -0.079,0.194c-0.161,-0.056 -0.22,-0.243 -0.238,-0.379c-0.203,0.106 -0.323,0.403 -0.412,0.638c0.22,0.295 0.601,0.028 0.902,0.166c-0.267,0.236 -0.93,-0.014 -1.05,0.39c-0.075,0.229 0.278,0.081 0.298,0.247c-0.114,0.086 -0.322,-0.004 -0.453,0.034c-0.129,0.125 -0.488,0.046 -0.357,0.275" style="fill:#fc1872;fill-rule:nonzero;"/><path d="M71.674,72.936c0.032,0.232 -0.128,0.371 -0.395,0.414c-0.297,-0.053 -0.654,-0.398 -0.489,-0.663c0.162,-0.051 0.145,-0.293 0.388,-0.235c0.212,0.071 0.432,0.262 0.496,0.484" style="fill:#fc1872;fill-rule:nonzero;"/><path d="M72.867,74.148c0.363,0.164 0.491,0.587 0.824,0.82c0.018,0.081 0.033,0.181 -0.114,0.171c-0.247,-0.249 -0.555,-0.509 -0.692,-0.805c-0.178,0.005 -0.078,-0.159 -0.018,-0.186" style="fill:#fc1872;fill-rule:nonzero;"/><path d="M76.714,75.228c0.014,-0.019 0.02,-0.041 0.013,-0.076c0.015,0.039 0.005,0.058 -0.013,0.076" style="fill:#fc1872;fill-rule:nonzero;"/><path d="M76.562,75.362c-0.046,-0.082 0.097,-0.085 0.151,-0.134c-0.044,0.056 -0.155,0.073 -0.151,0.134" style="fill:#fc1872;fill-rule:nonzero;"/><path d="M76.734,75.013l0.025,-0.035c-0.004,0.016 -0.015,0.027 -0.025,0.035" style="fill:#fc1872;fill-rule:nonzero;"/><path d="M76.734,75.013l-0.035,0.045c-0.002,-0.019 0.016,-0.031 0.035,-0.045" style="fill:#fc1872;fill-rule:nonzero;"/><path d="M76.621,74.93c0.012,-0.038 0.049,-0.072 0.115,-0.065l0.008,0.066c-0.054,0.006 -0.111,0.067 -0.123,-0.001" style="fill:#fc1872;fill-rule:nonzero;"/><path d="M75.086,67.305c-0.038,-0.11 0.003,-0.16 0.043,-0.267c0.074,-0.121 0.271,-0.15 0.418,-0.141c0.104,0.116 0.072,0.234 0.051,0.369c-0.042,0.105 -0.153,0.17 -0.245,0.21c-0.12,-0.004 -0.211,-0.071 -0.267,-0.171" style="fill:#fc1872;fill-rule:nonzero;"/><path d="M81.162,75.009c-0.119,-0.163 -0.454,-0.32 -0.397,-0.539c0.006,-0.483 0.458,-0.763 0.948,-0.97c0.259,0.137 0.294,-0.143 0.497,-0.138c-0.02,0.325 -0.563,0.184 -0.653,0.522l0.109,0.043c-0.029,0.012 -0.117,-0.022 -0.106,0.046l0.023,0.007c-0.028,0.058 -0.109,0.105 -0.16,0.152c-0.002,0.001 -0.002,0.004 -0.002,0.006l0,-0.006c-0.049,0.042 -0.069,0.083 -0.007,0.131l-0.156,-0.075c-0.06,0.08 0.181,0.135 0.103,0.276c0.148,-0.098 0.255,-0.036 0.302,-0.216c0.042,0.249 -0.25,0.068 -0.261,0.269c-0.187,-0.008 -0.08,-0.215 -0.291,-0.233c-0.053,0.149 -0.129,0.182 -0.106,0.348c0.214,-0.143 0.269,0.258 0.47,0.123c0.039,0.106 -0.134,0.088 -0.164,0.155c0.318,-0.029 0.688,-0.096 0.829,-0.313c0.07,-0.12 -0.143,-0.031 -0.101,-0.137c0.236,0.184 0.042,-0.106 0.31,0.011c-0.078,-0.128 -0.174,-0.263 -0.109,-0.362c0.14,0.135 0.104,-0.079 0.168,-0.125l-0.024,-0.005c0.111,-0.015 0.05,-0.095 0.162,-0.107l-0.126,-0.035c0.08,-0.051 0.105,-0.186 0.206,-0.21c0.056,0.348 -0.438,0.576 -0.179,0.926c-0.432,0.148 -0.725,0.591 -1.285,0.456" style="fill:#fc1872;fill-rule:nonzero;"/><path d="M81.298,74.616c-0.028,-0.005 -0.061,-0.007 -0.096,-0.015c0.029,-0.004 0.061,0.006 0.096,0.015" style="fill:#fc1872;fill-rule:nonzero;"/><path d="M81.325,74.623c-0.01,-0.003 -0.02,-0.005 -0.027,-0.007c0.008,0.001 0.017,0.003 0.027,0.007" style="fill:#fc1872;fill-rule:nonzero;"/><path d="M81.325,74.623c0.039,0.009 0.08,0.009 0.111,-0.032c-0.055,0.06 0.054,0.102 -0.042,0.107c-0.013,-0.045 -0.04,-0.064 -0.069,-0.075" style="fill:#fc1872;fill-rule:nonzero;"/><path d="M81.546,74.635c-0.006,0.02 -0.035,0.033 -0.053,0.038c-0.043,-0.036 0.013,-0.041 0.053,-0.038" style="fill:#fc1872;fill-rule:nonzero;"/><path d="M81.727,74.77c-0.008,-0.001 -0.013,-0.003 -0.019,-0.007c0.007,-0.001 0.011,0.004 0.019,0.007" style="fill:#fc1872;fill-rule:nonzero;"/><path d="M81.581,74.761c0.002,-0.106 0.05,-0.041 0.146,-0.098c0.048,0.015 -0.125,0.059 -0.02,0.1c-0.041,-0.006 -0.097,0.063 -0.126,-0.002" style="fill:#fc1872;fill-rule:nonzero;"/><path d="M81.45,74.337l-0.011,-0.014l0.138,-0.055l0.009,0.012l-0.136,0.057Z" style="fill:#fc1872;fill-rule:nonzero;"/><path d="M81.879,74.597l0.051,0.068l-0.106,-0.009l0.055,-0.059Z" style="fill:#fc1872;fill-rule:nonzero;"/><path d="M83.532,76.893l0.056,-0.058l-0.028,0.1l-0.028,-0.042Z" style="fill:#fc1872;fill-rule:nonzero;"/><path d="M81.541,74.138c0.082,0.001 0.106,0.01 0.077,0.078c-0.021,-0.03 -0.025,-0.064 -0.077,-0.078" style="fill:#fc1872;fill-rule:nonzero;"/><path d="M77.664,68.304c0.247,-0.071 0.579,-0.14 0.875,-0.034c0.05,0.315 -0.008,0.694 -0.395,0.822c-0.287,0.069 -0.416,-0.16 -0.568,-0.362c-0.032,-0.125 -0.019,-0.327 0.088,-0.426" style="fill:#fc1872;fill-rule:nonzero;"/><path d="M81.506,73.196c-0.255,0.058 -0.587,-0.016 -0.696,-0.272c0.211,-0.336 -0.456,-0.32 -0.261,-0.649c0.023,-0.188 0.201,-0.299 0.4,-0.329c0.338,0.138 0.626,0.228 0.912,0.127c-0.034,0.12 0.138,0.135 0.221,0.189c-0.147,0.346 -0.061,0.788 -0.576,0.934" style="fill:#fc1872;fill-rule:nonzero;"/><path d="M81.964,73.678l-0.042,0.053l-0.016,-0.101l0.058,0.048Z" style="fill:#fc1872;fill-rule:nonzero;"/><path d="M84.114,76.649l-0.043,-0.003l0.072,-0.011l-0.029,0.014Z" style="fill:#fc1872;fill-rule:nonzero;"/><path d="M79.762,70.391l-0.008,0.075l-0.035,-0.022l0.043,-0.053Z" style="fill:#fc1872;fill-rule:nonzero;"/><path d="M79.99,70.509l-0.097,0.058l0.034,-0.032l0.063,-0.026Z" style="fill:#fc1872;fill-rule:nonzero;"/><path d="M82.277,73.561l-0.022,0.133c-0.123,-0.034 0.011,-0.089 0.022,-0.133" style="fill:#fc1872;fill-rule:nonzero;"/><path d="M85.314,76.245l0.021,0.081c-0.03,-0.041 -0.073,-0.042 -0.021,-0.081" style="fill:#fc1872;fill-rule:nonzero;"/><path d="M40.176,68.707c-0.103,-0.245 0.015,-0.425 0.272,-0.525c0.316,-0.008 0.778,0.292 0.694,0.606c-0.15,0.09 -0.059,0.347 -0.32,0.334c-0.234,-0.031 -0.515,-0.191 -0.646,-0.415" style="fill:#fc1872;fill-rule:nonzero;"/><path d="M52.023,82.297c0.596,0.219 0.45,0.77 0.56,1.172c0.201,0.727 -0.844,1.072 -0.492,1.845c-0.29,-0.15 -0.218,-0.458 -0.299,-0.722c-0.154,-0.205 -0.249,-0.553 -0.647,-0.551c-0.315,-0.017 -0.373,0.35 -0.555,0.277c0.293,-0.357 0.332,-0.778 0.473,-1.182c-0.201,-0.22 0.095,-0.418 -0.225,-0.594c0.213,-0.114 0.342,-0.396 0.701,-0.389c0.179,0.03 0.366,-0.045 0.484,0.144" style="fill:#fc1872;fill-rule:nonzero;"/><path d="M34.402,67.28c-0.009,0.025 -0.009,0.052 0.009,0.086c-0.026,-0.036 -0.025,-0.062 -0.009,-0.086" style="fill:#fc1872;fill-rule:nonzero;"/><path d="M34.511,67.105c0.075,0.081 -0.069,0.115 -0.109,0.175c0.028,-0.068 0.135,-0.106 0.109,-0.175" style="fill:#fc1872;fill-rule:nonzero;"/><path d="M46.962,80.356c-0.124,-0.068 -0.315,-0.061 -0.402,-0.206c-0.156,-0.159 0.105,-0.124 0.156,-0.232c0.534,0.039 1.045,0.082 1.561,0.209c0.06,-0.33 0.239,-0.617 0.836,-0.616l0.521,0.618c0.348,0.705 0.517,1.495 -0.506,1.772c-0.908,0.112 -0.612,-0.574 -0.937,-0.962c0.043,-0.109 0.046,-0.267 0.055,-0.436c-0.426,-0.055 -0.86,-0.084 -1.284,-0.147" style="fill:#fc1872;fill-rule:nonzero;"/><path d="M34.448,67.517l-0.017,0.042c0,-0.017 0.006,-0.03 0.017,-0.042" style="fill:#fc1872;fill-rule:nonzero;"/><path d="M34.47,67.461c0.009,0.021 -0.009,0.036 -0.022,0.056l0.022,-0.056Z" style="fill:#fc1872;fill-rule:nonzero;"/><path d="M34.583,67.583c0.003,0.043 -0.024,0.086 -0.094,0.094l-0.03,-0.07c0.053,-0.02 0.094,-0.094 0.124,-0.024" style="fill:#fc1872;fill-rule:nonzero;"/><path d="M42.453,81.783c-0.027,-0.049 -0.047,-0.097 -0.065,-0.151c0.036,0.041 0.059,0.089 0.065,0.151" style="fill:#fc1872;fill-rule:nonzero;"/><path d="M42.109,75.77c0.488,0.323 0.806,0.71 0.723,1.163c0.077,0.22 -0.241,0.158 -0.376,0.213c-0.436,0.097 -0.07,0.488 -0.047,0.726c0.019,0.125 -0.131,0.192 -0.284,0.144c-0.498,-0.155 -0.229,-0.773 -0.738,-0.76c-0.057,0.299 0.063,0.602 0.128,0.921c0.28,0.248 0.32,0.611 0.698,0.836c0.254,0.155 0.551,0.091 0.799,0.114c0.105,0.267 0.566,0.126 0.643,0.369c-0.277,-0.091 -0.226,0.193 -0.517,0.112c-0.236,-0.144 -0.501,-0.201 -0.816,-0.192c-0.288,0.006 -0.169,0.287 -0.219,0.417c0.344,0.583 0.097,1.249 0.285,1.799c-0.135,-0.16 -0.444,-0.201 -0.474,-0.436c-0.15,0.021 -0.282,0.214 -0.474,0.241c-0.156,-0.138 -0.261,-0.45 -0.629,-0.379c-0.128,0.326 -0.679,0.211 -0.905,0.448c-0.671,-0.395 -0.172,-1.09 -1.022,-1.469c-0.168,-0.082 -0.229,0.126 -0.398,0.023c0.358,-0.016 0.003,-0.348 0.246,-0.44c-0.056,-0.097 -0.273,-0.001 -0.268,-0.169c0.248,-0.023 0.229,-0.237 0.278,-0.392c0,0 -0.003,-0.001 -0.005,-0.003c-0.339,0.217 -0.885,0.242 -1.152,-0.072c0.211,-0.3 0.871,-0.448 1.335,-0.384c0.033,-0.054 0.056,-0.114 0.062,-0.183c-0.056,-0.117 -0.277,-0.113 -0.322,-0.218c0.158,-0.166 0.266,0.146 0.493,0.042c0.193,-0.028 0.078,-0.218 0.086,-0.317l0.263,0.011l0.006,-0.236c0.15,-0.02 0.432,0.183 0.537,0.014c-0.018,-0.079 -0.077,-0.197 0.021,-0.202c0.309,0.275 0.729,0.098 1.089,0.197c0.217,-0.071 -0.01,-0.292 -0.041,-0.432c-0.449,0.109 -0.219,-0.389 -0.562,-0.451c-0.067,-0.231 -0.17,-0.52 -0.038,-0.711c0.3,-0.086 0.257,-0.472 0.6,-0.542c0.342,0.039 0.687,0.037 0.995,0.198" style="fill:#fc1872;fill-rule:nonzero;"/><path d="M45.626,79.746c-0.081,0.038 0.145,0.237 -0.133,0.145c-0.112,-0.101 0.038,-0.142 0.133,-0.145" style="fill:#fc1872;fill-rule:nonzero;"/><path d="M38.447,75.45c0.072,0.109 0.048,0.175 0.036,0.297c-0.036,0.143 -0.226,0.217 -0.376,0.237c-0.141,-0.101 -0.146,-0.235 -0.162,-0.384c0.011,-0.123 0.103,-0.217 0.182,-0.277c0.125,-0.023 0.234,0.031 0.32,0.127" style="fill:#fc1872;fill-rule:nonzero;"/><path d="M30.549,68.929c0.142,0.519 -0.229,0.913 -0.658,1.235c-0.306,-0.095 -0.253,0.213 -0.459,0.253c-0.08,-0.357 0.512,-0.317 0.499,-0.699l-0.126,-0.023c0.03,-0.021 0.126,0.002 0.096,-0.069l-0.026,-0.003c0.01,-0.068 0.077,-0.137 0.116,-0.197c-0.002,-0.001 -0.002,-0.005 -0.002,-0.006c0,0.002 0,0.005 0.002,0.006c0.035,-0.054 0.047,-0.104 -0.033,-0.144l0.181,0.051c0.037,-0.098 -0.221,-0.111 -0.187,-0.277c-0.123,0.137 -0.244,0.093 -0.24,0.295c-0.117,-0.257 0.229,-0.128 0.184,-0.343c0.189,-0.029 0.143,0.215 0.363,0.188c0.007,-0.167 0.074,-0.218 0,-0.392c-0.174,0.198 -0.35,-0.22 -0.511,-0.035c-0.069,-0.106 0.105,-0.122 0.116,-0.202c-0.312,0.097 -0.664,0.245 -0.736,0.509c-0.037,0.143 0.152,0.003 0.142,0.125c-0.294,-0.149 -0.012,0.122 -0.315,0.052c0.113,0.12 0.256,0.247 0.217,0.366c-0.181,-0.116 -0.079,0.104 -0.13,0.166l0.028,0.004c-0.11,0.036 -0.026,0.111 -0.134,0.145l0.138,0.014c-0.066,0.073 -0.047,0.219 -0.145,0.266c-0.161,-0.363 0.269,-0.705 -0.099,-1.028c0.391,-0.247 0.55,-0.783 1.154,-0.754c0.171,0.149 0.558,0.25 0.565,0.497" style="fill:#fc1872;fill-rule:nonzero;"/><path d="M29.971,68.881c0.03,-0.001 0.06,-0.004 0.098,-0.004c-0.029,0.011 -0.066,0.007 -0.098,0.004" style="fill:#fc1872;fill-rule:nonzero;"/><path d="M29.939,68.879c-0.043,0.001 -0.085,0.009 -0.101,0.058c0.038,-0.078 -0.086,-0.099 0.009,-0.126c0.028,0.047 0.058,0.064 0.092,0.068" style="fill:#fc1872;fill-rule:nonzero;"/><path d="M29.939,68.879c0.01,-0.001 0.019,0.001 0.032,0.002c-0.013,0 -0.023,0 -0.032,-0.002" style="fill:#fc1872;fill-rule:nonzero;"/><path d="M29.713,68.914c0,-0.023 0.026,-0.043 0.039,-0.053c0.056,0.026 0.001,0.046 -0.039,0.053" style="fill:#fc1872;fill-rule:nonzero;"/><path d="M29.511,68.808c-0.007,0.001 -0.012,0.001 -0.023,-0.004c0.011,0.001 0.016,0.003 0.023,0.004" style="fill:#fc1872;fill-rule:nonzero;"/><path d="M29.511,68.808c0.044,-0.004 0.078,-0.088 0.129,-0.025c0.033,0.116 -0.04,0.055 -0.119,0.137c-0.052,-0.005 0.108,-0.09 -0.01,-0.112" style="fill:#fc1872;fill-rule:nonzero;"/><path d="M29.918,69.222l-0.123,0.091l-0.017,-0.012l0.123,-0.09l0.017,0.011Z" style="fill:#fc1872;fill-rule:nonzero;"/><path d="M29.315,68.957l0.108,-0.013l-0.037,0.075l-0.071,-0.062Z" style="fill:#fc1872;fill-rule:nonzero;"/><path d="M26.987,66.971l-0.002,-0.115l0.042,0.039l-0.04,0.076Z" style="fill:#fc1872;fill-rule:nonzero;"/><path d="M29.771,69.379c0.025,0.024 0.04,0.058 0.096,0.064c-0.083,0.016 -0.109,0.014 -0.096,-0.064" style="fill:#fc1872;fill-rule:nonzero;"/><path d="M35.503,74.432c0.074,0.131 0.123,0.348 0.045,0.477c-0.229,0.126 -0.541,0.266 -0.872,0.215c-0.149,-0.326 -0.202,-0.748 0.147,-0.963c0.271,-0.133 0.47,0.089 0.68,0.271" style="fill:#fc1872;fill-rule:nonzero;"/><path d="M30.976,70.594c-0.112,0.405 0.557,0.251 0.458,0.646c0.035,0.205 -0.111,0.362 -0.301,0.435c-0.387,-0.08 -0.704,-0.117 -0.96,0.053c-0.003,-0.136 -0.181,-0.118 -0.277,-0.161c0.04,-0.399 -0.178,-0.857 0.291,-1.12c0.245,-0.113 0.602,-0.103 0.789,0.147" style="fill:#fc1872;fill-rule:nonzero;"/><path d="M29.608,69.959l0.045,0.104l-0.069,-0.037l0.024,-0.067Z" style="fill:#fc1872;fill-rule:nonzero;"/><path d="M26.49,67.298l0.028,-0.019l0.04,-0.008l-0.068,0.027Z" style="fill:#fc1872;fill-rule:nonzero;"/><path d="M32.799,73.099l-0.017,-0.081l0.043,0.015l-0.026,0.066Z" style="fill:#fc1872;fill-rule:nonzero;"/><path d="M32.536,73.021l0.08,-0.083l-0.026,0.043l-0.054,0.04Z" style="fill:#fc1872;fill-rule:nonzero;"/><path d="M29.283,70.065c0.139,0.013 0.018,0.102 0.018,0.149l-0.018,-0.149Z" style="fill:#fc1872;fill-rule:nonzero;"/><path d="M25.428,67.959l-0.044,-0.083c0.044,0.036 0.082,0.029 0.044,0.083" style="fill:#fc1872;fill-rule:nonzero;"/><path d="M40.454,83.563c0.062,0.298 -0.331,0.388 -0.45,0.546c-0.178,0.019 -0.342,0.005 -0.494,-0.042c-0.458,-0.141 -0.471,-0.547 -0.539,-0.888c0.092,-0.161 0.206,-0.41 0.483,-0.431c0.571,-0.107 0.972,0.419 1,0.815" style="fill:#fc1872;fill-rule:nonzero;"/><path d="M32.673,76.816c0.048,0.217 -0.125,0.416 -0.3,0.501c-0.138,0.034 -0.272,0.065 -0.398,-0.023c-0.266,-0.077 -0.381,-0.335 -0.419,-0.541c0.053,-0.152 0.019,-0.425 0.316,-0.488c0.351,-0.126 0.818,0.216 0.801,0.551" style="fill:#fc1872;fill-rule:nonzero;"/></g></svg>