<?xml version="1.0" encoding="utf-8"?>
<!-- Generator: Adobe Illustrator 16.0.4, SVG Export Plug-In . SVG Version: 6.00 Build 0)  -->
<!DOCTYPE svg PUBLIC "-//W3C//DTD SVG 1.1//EN" "http://www.w3.org/Graphics/SVG/1.1/DTD/svg11.dtd">
<svg version="1.1" id="Ebene_1" xmlns="http://www.w3.org/2000/svg" xmlns:xlink="http://www.w3.org/1999/xlink" x="0px" y="0px"
	 width="422.993px" height="519.535px" viewBox="96.839 185.675 422.993 519.535"
	 enable-background="new 96.839 185.675 422.993 519.535" xml:space="preserve">
<g>
	<path fill="#8E25F9" d="M468.664,443.707c-0.248-0.104-0.458-0.041-0.607,0.143c-0.797-0.196-0.602-0.893-0.272-1.659
		C468.901,442.28,469.473,442.658,468.664,443.707"/>
	<path fill="#8E25F9" d="M502.165,354.126c-0.173,0.811-0.75,0.653-1.079,1.084c-1.06-0.168-1.39-0.723-1.854-1.203
		C499.753,353.112,501.711,353.589,502.165,354.126"/>
	<path fill="#8E25F9" d="M343.884,656.242c-2.405-0.748-0.637-3.613-0.107-5.853C344.383,651.982,345.304,654.206,343.884,656.242"
		/>
	<path fill="#8E25F9" d="M400.116,540.929c-0.647-0.025-0.32-0.551-1.111-0.504C399.347,539.306,401.085,539.897,400.116,540.929"/>
	<path fill="#8E25F9" d="M480.383,372.381c-0.333,0.935-1.883,0.606-2.063,0.329c0.179-0.436,0.535-0.433,0.706-0.895
		C479.869,371.809,479.795,372.249,480.383,372.381"/>
	<path fill="#8E25F9" d="M419.744,493.333c-0.187,0.76-0.776,0.61-0.956,1.383c-1.602,0.031-0.902-1.207-0.142-1.886
		C419.247,492.882,419.559,493.072,419.744,493.333"/>
	<path fill="#8E25F9" d="M421.031,489.645c-0.99,0.802-2.209,1.056-3.294,1.655c-0.69-0.174-0.628-0.744-0.748-1.229
		c0.768-0.622,1.641-0.975,2.285-1.883C419.726,488.511,420.923,488.706,421.031,489.645"/>
	<path fill="#8E25F9" d="M414.88,501.528c-0.077,0.171-0.153,0.327-0.227,0.494c-0.195-0.107-0.276,0.034-0.363,0.169
		c-0.163-0.021-0.329-0.069-0.496-0.105c0.147-0.184,0.012-0.25-0.122-0.282c0.078-0.169,0.154-0.326,0.23-0.489
		c0.196,0.094,0.273-0.038,0.364-0.176c0.161,0.034,0.333,0.066,0.493,0.102C414.617,501.438,414.741,501.49,414.88,501.528"/>
	<path fill="#8E25F9" d="M460.243,406.083c-0.11,0.248-0.227,0.479-0.343,0.726c-0.493,0.26-1.557,0.033-1.729-0.376
		c0.17-0.322,0.309-0.65,0.484-0.957C459.568,405.288,459.81,405.61,460.243,406.083"/>
	<path fill="#8E25F9" d="M455.732,412.51c-0.354,1.11-2.092,0.529-1.108-0.508C455.22,412.051,455.535,412.245,455.732,412.51"/>
	<path fill="#8E25F9" d="M387.538,548.231c-0.26,0.773-0.896,0.644-1.565,0.451c0.14-0.523,0.476-0.594,0.7-0.902
		C387.135,547.85,387.051,548.177,387.538,548.231"/>
	<path fill="#8E25F9" d="M418.598,484.602c-1.811,1.181-2.663-1.528-1.157-2.641C418.807,482.335,418.58,483.532,418.598,484.602"/>
	<path fill="#8E25F9" d="M426.821,467.334c-0.316,0.61-1.189,0.369-1.331-0.017C425.806,466.707,426.666,466.94,426.821,467.334"/>
	<path fill="#8E25F9" d="M454.637,406.971c-0.124,0.878-2.132,0.314-1.111-0.513C454.318,406.412,454.005,406.932,454.637,406.971"
		/>
	<path fill="#8E25F9" d="M455.561,404c-2.019-0.523-6.097-1.563-6.063-3.718C452.569,400.978,455.507,401.751,455.561,404"/>
	<path fill="#8E25F9" d="M453.28,405.88c-0.599,0.839-1.898,0.056-1.959-0.433C451.909,404.603,453.22,405.376,453.28,405.88"/>
	<path fill="#8E25F9" d="M478.447,348.099c0.883-0.316,2.834,0.357,2.354,1.321C479.975,348.822,479.284,348.25,478.447,348.099"/>
	<path fill="#8E25F9" d="M479.2,348.811c-0.775,0.489-1.591-0.503-2.092-0.73c0.243-0.45,0.885,0.006,1.094-0.557
		C477.821,348.429,478.481,348.273,479.2,348.811"/>
	<path fill="#8E25F9" d="M386.835,524.229c-1.304-0.608-0.375-1.854,0.562-2.792C388.671,521.83,388.447,523.873,386.835,524.229"/>
	<path fill="#8E25F9" d="M291.723,702.493c-0.103-2.62,1.277-6.005,1.3-8.721c0.841-0.618,1.571-1.469,2.401-2.109
		c1.039-6.704,1.546-11.572,2.713-18.229c-1.619-1.779,0.227-4.129,0.972-6.936c0.346-1.318-0.248-2.862-0.096-4.253
		c0.182-1.465,0.842-2.689,0.782-3.787c-0.092-2.591-0.896-4.896-0.633-7.573c-0.322-0.655-0.627-1.353-0.9-2.057
		c2.353-4.584,1.53-8.78,2.09-13.044c0.214-1.643,0.979-3.396,1.117-5.053c0.101-1.291-0.429-2.546-0.307-3.778
		c0.143-1.66,0.948-3.401,1.117-5.053c0.603-5.963,0.662-11.774,1.13-17.762c0.642-1.122,0.893-2.009,1.167-2.921
		c-0.483-3.301-0.421-7.788,1.008-11.44c0.155-0.505-0.429-0.616-0.64-0.938c0.352-0.723,1.172-0.366,1.438-1.267
		c-0.14-2.539,0.741-5.867,0.453-8.654c-0.098-0.832-0.685-1.705-0.655-2.527c0.073-2.122,1.536-4.366,1.57-6.534
		c0.063-1.969-0.39-3.514-0.345-5.373c1.901-3.39,0.941-6.113,2.312-7.438c1-0.337,1.601,1.849,0.651,2.53
		c2.036,4.093-2.007,11.286,2.239,14.262c-0.553,1.302,0.019,1.781-0.31,2.846c-0.709,2.227-3.188,3.552-3.692,5.29
		c-0.908,3.091-0.406,7.338-0.638,10.71c-1.727,8.256-3.188,16.158-3.597,23.851c-0.105,2.169,0.59,4.145,0.742,6.256
		c0.155,2.263-0.274,4.521-0.361,6.814c-0.035,0.839,0.411,1.788,0.297,2.71c-0.093,0.715-0.762,1.491-0.816,2.206
		c-0.042,0.597,0.52,1.155,0.525,1.702c0.021,2.325-1.219,4.818-1.332,7.126c-0.036,0.979,0.53,1.772,0.528,2.769
		c0.065,5.507-2.854,11.524-2.221,17.261c-0.275,0.558-0.555,1.12-0.825,1.662c0.396,0.825-0.123,2.106,0.531,2.78
		c-1.213,5.913-1.808,12.056-2.453,18.271c-0.202,1.9-0.753,3.979-0.754,5.393c-0.003,2.56,2.604,4.879,1.622,7.771
		c-0.735,2.146-1.824,3.548-3.812,5.524C293.05,706.318,293.212,703.307,291.723,702.493"/>
	<path fill="#8E25F9" d="M360.745,566.162c-0.201-0.311-0.801-0.434-0.984-0.747C360.728,562.708,363.154,565.289,360.745,566.162"
		/>
	<path fill="#8E25F9" d="M438.157,407.847c-0.296-0.45-0.824-0.775-0.284-1.656c0.382-0.139,0.819-0.17,1.361,0.031
		C439.501,406.848,438.685,407.584,438.157,407.847"/>
	<path fill="#8E25F9" d="M471.932,339.776c-0.143,0.526-0.47,0.608-0.718,0.911c-0.528-0.276-1.167-0.487-0.746-1.226
		C471.075,339.501,471.7,339.209,471.932,339.776"/>
	<path fill="#8E25F9" d="M434.188,404.845c-0.196,0.578-0.498,0.91-0.844,1.14c-0.944,0.006-0.76-0.555-1.597-0.612
		C432.373,404.771,433.074,404.355,434.188,404.845"/>
	<path fill="#8E25F9" d="M360.91,548.726c-1.652-0.281-1.028-2.535-0.197-3.487C361.553,546.135,363.083,547.819,360.91,548.726"/>
	<path fill="#8E25F9" d="M495.169,276.549c-2.129,1.561-5.313,0.709-8.05,0.88c-4.663,2.005-10.229,3.114-15.189,4.322
		c-1.58,0.394-3.137,1.357-4.752,1.349c-0.667-0.011-0.934-0.536-1.596-0.619c-1.377-0.183-2.107,0.712-3.523,1.075
		c-2.687,0.694-5.934,0.983-8.524,1.834c4.77-3.148,10.461-4.163,16.031-5.478c0.998,0.091,1.53,0.42,1.73,0.909
		c2.513-0.604,5.812-1.415,9.255-2.191c3.321-0.761,7.147-1.22,9.482-2.161C491.898,275.723,493.975,273.801,495.169,276.549"/>
	<path fill="#8E25F9" d="M421.716,411.365c2.182-3.755,6.099-0.515,3.967,2.473C423.53,414.784,422.158,412.482,421.716,411.365"/>
	<path fill="#8E25F9" d="M361.406,543.271c-0.4-2.612-2.078-5.496,0.688-9.13C364.645,535.704,363.281,540.037,361.406,543.271"/>
	<path fill="#8E25F9" d="M427.246,406.233c-0.126,0.235-0.24,0.486-0.358,0.715c-0.669-0.066-1.009-0.316-0.623-0.933
		C426.589,406.088,426.909,406.17,427.246,406.233"/>
	<path fill="#8E25F9" d="M461.358,323.682c-0.465,0.458-1.02,0.705-1.832,0.381C459.73,322.923,461.087,323.122,461.358,323.682"/>
	<path fill="#8E25F9" d="M281.076,689.294c-0.257,0.778-0.727,1.019-1.456,0.736c0.163-0.315,0.315-0.635,0.485-0.957
		C280.418,689.155,280.755,689.219,281.076,689.294"/>
	<path fill="#8E25F9" d="M342.001,563.892c-0.126,0.406-0.443,0.359-0.598,0.661c-0.828-0.107-1.044-0.547-0.759-1.234
		C341.393,562.93,341.573,563.605,342.001,563.892"/>
	<path fill="#8E25F9" d="M376.431,491.737c-0.741-0.463-1.048-1.145-0.894-2.049C376.691,489.932,376.988,490.628,376.431,491.737"
		/>
	<path fill="#8E25F9" d="M369.521,481.995c-0.888,0.414-1.776-0.277-2.089-0.727c0.191-0.764,0.77-0.604,0.952-1.38
		C369.729,480.11,370.107,480.805,369.521,481.995"/>
	<path fill="#8E25F9" d="M365.36,481.618c-0.688-0.545-0.776-1.403-0.412-2.484C365.899,479.541,365.391,480.705,365.36,481.618"/>
	<path fill="#8E25F9" d="M414.041,381.602c-0.132,0.689-0.71,0.366-0.942,0.845c-0.986-0.397-1.774-0.893-2.236-1.557
		C411.969,379.411,413.606,380.784,414.041,381.602"/>
	<path fill="#8E25F9" d="M380.211,445.938c-1.619-1.076-3.289-4.757-0.008-6.098C383.122,440.598,380.41,444.035,380.211,445.938"/>
	<path fill="#8E25F9" d="M275.929,649.998c-1.906-0.217-1.226-1.762-2.369-2.368c0.192-0.997,1.09-2.352,1.037-3.214
		c3.299-1.641,1.642-4.483,3.892-7.356c0.789,1.685-0.005,4.183-0.491,6.514C279.219,645.142,278.474,648.38,275.929,649.998"/>
	<path fill="#8E25F9" d="M428.288,326.715c-1.486,0.439-2.291-0.804-3.931-0.867c-0.271-0.99-0.715-1.897-0.662-3.059
		c1.689-1.464,3.978-1.28,5.745-0.052C429.615,323.741,429.582,326.053,428.288,326.715"/>
	<path fill="#8E25F9" d="M362.453,457.664c-1.166,0.179-1.903-2.561,0.057-3.432C363.703,454.752,363.406,456.032,362.453,457.664"
		/>
	<path fill="#8E25F9" d="M303.552,573.443c-2.006-1.459-0.807-3.177,0.499-5.996c1.408-3.083-0.431-6.058,2.034-9.08
		c1.835,1.68,0.031,4.331-0.367,6.8C305.272,567.853,307.699,570.881,303.552,573.443"/>
	<path fill="#8E25F9" d="M438.662,294.024c-2.799,1.001-5.185-0.068-8.315-0.235c2.072-1.875,6.802-2.477,8.897-0.953
		C439.049,293.236,438.86,293.636,438.662,294.024"/>
	<path fill="#8E25F9" d="M370.749,430.874c-0.971-0.112-0.731-1.363,0.098-1.833C371.554,429.259,371.716,430.325,370.749,430.874"
		/>
	<path fill="#8E25F9" d="M356.849,458.014c-1.992-0.545-1.151-3.829,0.639-5.159c0.393,0.062,0.872,0.319,1.087-0.025
		C359.73,453.825,358.794,456.938,356.849,458.014"/>
	<path fill="#8E25F9" d="M306.876,555.624c-1.101-0.146-0.662-0.794-0.154-1.355C307.05,554.565,307.374,554.903,306.876,555.624"/>
	<path fill="#8E25F9" d="M306.83,553.489c0.142-1.38-1.31-1.953,0.052-3.961C308.669,549.936,306.964,552.115,306.83,553.489"/>
	<path fill="#8E25F9" d="M312.729,516.111c0.457-1.086,0.147-2.507,1.396-3.41C314.707,513.286,314.034,516.206,312.729,516.111"/>
	<path fill="#8E25F9" d="M332.032,471.35c-0.193,0.402-0.39,0.802-0.587,1.19C330.89,472.426,330.823,470.803,332.032,471.35"/>
	<path fill="#8E25F9" d="M433.483,259.237c-0.569,0.595-1.19,1.015-2.068,0.871C431.906,259.362,432.464,258.809,433.483,259.237"/>
	<path fill="#8E25F9" d="M424.398,269.953c-0.335,0.657-1.436,0.314-1.583-0.085c0.227-0.292,0.604-0.28,0.829-0.603
		C424.392,269.236,423.901,269.849,424.398,269.953"/>
	<path fill="#8E25F9" d="M410.327,295.211c-1.054,0.379-2.802,0.161-3.195-0.716c0.451-1.17,1.162-1.746,2.046-1.93
		C410.489,292.972,411.281,293.646,410.327,295.211"/>
	<path fill="#8E25F9" d="M225.324,625.608c-0.496-0.517,0.145-1.618,0.091-2.372c1.035-0.161,1.557-1.501,2.398-2.127
		C228.31,622.746,226.647,624.537,225.324,625.608"/>
	<path fill="#8E25F9" d="M200.441,602.098c-0.84,0.01-0.566,0.067-1.23-0.269c0.41-1.065,1.096-1.546,2.06-1.389
		C201.462,600.835,200.945,601.86,200.441,602.098"/>
	<path fill="#8E25F9" d="M374.989,224.359c-0.658,0.375-2.683-0.068-1.614-1.148C374.352,223.362,374.401,224,374.989,224.359"/>
	<path fill="#8E25F9" d="M247.712,472.898c-0.386,0.313-0.733,0.683-1.327,0.505c0.14-0.524,0.476-0.601,0.717-0.897
		C247.235,472.67,247.372,472.832,247.712,472.898"/>
	<path fill="#8E25F9" d="M170.176,617.683c-1.662-1.123,0.89-2.005,1.513-3.644C171.77,614.6,171.971,616.976,170.176,617.683"/>
	<path fill="#8E25F9" d="M174.529,608.846c0.276,0.497-0.768,2.272-1.302,2.63C173.211,610.494,173.986,609.544,174.529,608.846"/>
	<path fill="#8E25F9" d="M205.836,539.708c0.049-2.473,2.599-4.304,4.165-6.23C209.368,536.011,209.119,539.423,205.836,539.708"/>
	<path fill="#8E25F9" d="M231.382,481.752c-0.251,0.299-0.617,0.278-0.854,0.61c-0.391-0.146-0.351-0.526-0.015-1.058
		C231.089,481.306,231.086,481.605,231.382,481.752"/>
	<path fill="#8E25F9" d="M232.366,437.191c-0.548,0.762-1.273,1.165-2.307,0.818c0.386-0.547-0.205-0.613,0.344-1.248
		c0.262-0.06,0.541-0.114,0.724-0.364C231.869,436.493,231.61,437.102,232.366,437.191"/>
	<path fill="#8E25F9" d="M239.407,422.32c-0.242-0.057-0.479-0.106-0.724-0.16c-0.25-0.52,0.448-0.674,0.822-1.142
		C240.025,421.174,239.744,421.743,239.407,422.32"/>
	<path fill="#8E25F9" d="M235.219,420.338c-2.278-0.694-0.222-3.587,1.765-3.582C238.613,417.728,236.607,419.708,235.219,420.338"
		/>
	<path fill="#8E25F9" d="M229.139,422.18c-0.164,0.322-0.315,0.636-0.476,0.962c-0.554-0.021-0.564-0.315-0.856-0.465
		C228.187,422.381,228.455,421.797,229.139,422.18"/>
	<path fill="#8E25F9" d="M222.278,421.198c-0.904-0.388-0.023-1.849,1.072-1.616C223.623,420.209,222.811,420.95,222.278,421.198"/>
	<path fill="#8E25F9" d="M197.818,471.974c-0.29,0.697-0.613,1.313-1.319,1.037C196.31,472.574,197.076,471.77,197.818,471.974"/>
	<path fill="#8E25F9" d="M225.237,410.196c-1.055-0.747,0.048-2.223,1.423-2.337C226.65,408.659,225.909,409.487,225.237,410.196"/>
	<path fill="#8E25F9" d="M228.52,402.439c0.239,0.585-1.208,1.612-2.05,1.401C226.866,402.728,227.727,402.665,228.52,402.439"/>
	<path fill="#8E25F9" d="M228.311,397.892c0.16-0.819,0.749-0.663,1.077-1.094C230.209,397.178,229.05,398.155,228.311,397.892"/>
	<path fill="#8E25F9" d="M225.985,404.265c-0.174,0.762-0.68,0.817-0.957,1.383c-0.353-0.163-0.528,0.13-0.85,0.068
		c-0.931-0.233-0.541-1.151-0.029-2.123C224.836,403.253,225.485,403.961,225.985,404.265"/>
	<path fill="#8E25F9" d="M215.064,414.834c0.149-0.317,0.322-0.634,0.471-0.951C216.579,413.898,215.919,415.231,215.064,414.834"/>
	<path fill="#8E25F9" d="M213.545,412.38c1.157-1.26,1.708-3.872,3.606-3.435C217.101,410.798,215.047,412.164,213.545,412.38"/>
	<path fill="#8E25F9" d="M219.261,404.103c-0.369,0.685-0.633,1.602-1.188,1.862c-0.543-0.225-0.748,0.32-1.351-0.034
		C216.884,404.636,217.722,403.539,219.261,404.103"/>
	<path fill="#8E25F9" d="M212.265,415.544c-0.262-0.104-0.46-0.045-0.612,0.135c-0.96-0.115-0.731-1.371,0.095-1.837
		C212.765,413.98,212.833,414.597,212.265,415.544"/>
	<path fill="#8E25F9" d="M265.892,304.969c-0.607-0.053-0.922-0.247-1.111-0.512c0.381-0.302,0.649-0.887,1.34-0.51
		C266.197,304.204,266.115,304.549,265.892,304.969"/>
	<path fill="#8E25F9" d="M168.233,496.712c-0.193,0.574-0.493,0.906-0.836,1.134c-0.612-0.163-0.785-0.555-0.514-1.167
		C167.427,496.897,167.63,496.358,168.233,496.712"/>
	<path fill="#8E25F9" d="M219.491,390.912c-0.824,0.123-1.404-0.015-1.951-0.439c0.25-1.754,1.934-2.896,3.73-2.617
		C221.39,388.747,220.302,390.49,219.491,390.912"/>
	<path fill="#8E25F9" d="M290.673,226.437c-0.087,0.292-0.265,0.424-0.489,0.428c-3.673-2.064-10.308-2.634-7.836-7.821
		C288.83,217.065,290.045,223.122,290.673,226.437"/>
	<path fill="#8E25F9" d="M278.385,248.636c-1.072,0.254-2.248-1.783-1.506-2.453C278.255,246.551,278.195,247.657,278.385,248.636"
		/>
	<path fill="#8E25F9" d="M149.204,492.785c-0.593-2.115,2.521-3.897,3.833-4.998C153.817,490.132,150.92,491.832,149.204,492.785"/>
	<path fill="#8E25F9" d="M190.19,405.113c-0.466,1.308-1.423,1.495-2.289,1.873C186.864,406.01,189.646,404.066,190.19,405.113"/>
	<path fill="#8E25F9" d="M164.98,454.135c-0.707,1.104-1.613,1.737-2.532,2.361C162.35,455.569,164.016,454.32,164.98,454.135"/>
	<path fill="#8E25F9" d="M161.606,457.097c-0.113,0.243-0.236,0.482-0.356,0.726c-0.381,0.131-0.812,0.163-1.342-0.039
		C160.171,456.866,160.813,456.814,161.606,457.097"/>
	<path fill="#8E25F9" d="M183.896,409.035c-0.344,1.045-0.89,1.646-1.912,1.157c0.23-0.472,0.463-0.951,0.699-1.434
		C183.093,408.849,183.49,408.94,183.896,409.035"/>
	<path fill="#8E25F9" d="M269.388,232.081c-0.343,1.126-2.085,0.537-1.116-0.508C268.883,231.623,269.198,231.816,269.388,232.081"
		/>
	<path fill="#8E25F9" d="M249.55,269.039c-0.206,0.191-0.417,0.383-0.717,0.373c-8.919-0.341-13.533-5.645-19.47-8.003
		c-1.045-0.407-2.395-0.136-2.951-1.18c2.262-0.655,3.629,1.283,5.906,1.826C239.357,263.772,245.575,265.376,249.55,269.039"/>
	<path fill="#8E25F9" d="M185.49,389.237c-0.696,0.962-1.598,1.42-2.539,1.829c-0.112-0.239-0.43-0.374-0.859-0.45
		C182.576,388.868,184.69,388.632,185.49,389.237"/>
	<path fill="#8E25F9" d="M99.178,561.232c-0.479,0.286-1.061,0.271-1.709,0.156c0.066-0.332-0.249-0.47-0.137-0.825
		C98.458,558.897,99.816,560.621,99.178,561.232"/>
	<path fill="#8E25F9" d="M263.54,220.198c-0.521,0.771-1.512,0.174-0.755-0.699C263.085,219.706,263.24,219.992,263.54,220.198"/>
	<path fill="#8E25F9" d="M207.497,332.901c-0.026,2.554-6.33,2.018-4.88-0.562C203.603,330.579,207.532,331.195,207.497,332.901"/>
	<path fill="#8E25F9" d="M261.656,217.926c-0.626,0.336-0.932-0.291-0.623-0.933C261.707,217.067,262.045,217.312,261.656,217.926"
		/>
	<path fill="#8E25F9" d="M188.095,366.239c-0.698,1.116-2.152,0.47-3.024,1.183c-3.563,5.388-10.026,8.484-15.922,5.231
		c-0.553-2.825,3.495-6.174,6.23-7.105c2.865-0.965,4.807,0.659,7.72,0.908C184.8,366.604,186.98,365.167,188.095,366.239"/>
	<path fill="#8E25F9" d="M199.302,338.502c-0.781-0.285-1.412-0.205-2.085-0.191c-0.168-0.902,1.483-1.138,2.303-1.353
		C200.124,337.133,199.616,337.874,199.302,338.502"/>
	<path fill="#8E25F9" d="M200.694,334.038c-0.225,0.873-0.778,0.954-1.21,1.329c-0.944-0.002-0.759-0.563-1.596-0.619
		C198.659,333.356,199.788,334.093,200.694,334.038"/>
	<path fill="#8E25F9" d="M198.926,318.286c-0.235,0.868-1.294,0.669-1.466,0.207C197.755,317.975,198.327,318.119,198.926,318.286"
		/>
	<path fill="#8E25F9" d="M223.934,258.621c-1.292,1.001-2.762-0.485-3.32-0.995C222.034,256.387,223.514,257.815,223.934,258.621"/>
	<path fill="#8E25F9" d="M216.354,271.789c-0.298,0.476-0.878,0.332-1.327,0.505c-0.742-0.159-0.7-0.725-1.118-1.045
		C214.711,270.34,215.941,271.421,216.354,271.789"/>
	<path fill="#8E25F9" d="M220.469,256.806c-1.631,0.84-2.843-1.508-4.537-1.801C217.562,254.298,219.056,256.266,220.469,256.806"/>
	<path fill="#8E25F9" d="M215.421,254.367c-3.159,0.172-5.389-3.613-9.716-3.475c-0.063-0.626-0.722-0.954-0.535-1.7
		c2.413-1.329,3.286,1.751,5.202,2.731C212.156,252.846,214.403,252.906,215.421,254.367"/>
	<path fill="#8E25F9" d="M170.658,336.431c-0.323,0.71-1.313,1.051-1.583,0.453C169.331,336.113,169.987,336.228,170.658,336.431"/>
	<path fill="#8E25F9" d="M133.447,404.267c-2.15,0.855-4.559,3.744-6.787,2.744C127.697,405.259,131.142,404.791,133.447,404.267"/>
	<path fill="#8E25F9" d="M143.618,373.658c-0.69,1.117-1.789,1.317-3.023,1.183c0.44-0.692,0.989-1.124,1.549-1.502
		C142.644,373.44,143.127,373.543,143.618,373.658"/>
	<path fill="#8E25F9" d="M161.832,335.015c-0.257,0.771-0.897,0.645-1.576,0.447C160.512,334.685,161.154,334.811,161.832,335.015"
		/>
	<path fill="#8E25F9" d="M120.515,417.832c-4.91,4.89-10.988,7.053-16.298,10.987c-0.541,0.691,0.063,0.804-0.457,1.484
		c-2.122,1.281-4.296,2.372-6.917,2.45c-0.11-1.19,1.888-2.897,2.964-4.376C107.523,426.749,112.859,419.628,120.515,417.832"/>
	<path fill="#8E25F9" d="M109.585,409.067c-0.819,0.663-1.711,1.139-2.782,1.24C107.31,408.94,108.537,409.219,109.585,409.067"/>
	<path fill="#8E25F9" d="M137.679,286.771c-0.115,0.233-0.232,0.473-0.352,0.715c-2.646-0.718-5.857,0.586-8.443-0.004
		c-1.405-0.319-4.09-0.765-3.838-2.697C129.592,283.502,133.679,284.655,137.679,286.771"/>
	<path fill="#8E25F9" d="M266.758,612.215c-0.38-0.04-0.858-0.286-1.09,0.028c0.403,0.389,0.427,0.965,1.006,1.28
		C267.169,612.769,265.688,612.746,266.758,612.215 M266.128,611.281c-0.164,0.462,0.763,0.339,0.753,0.694
		c0.177-0.353,1.389-0.771,0.84-1.136C267.426,611.521,266.254,610.192,266.128,611.281 M270.25,609.006
		c0.436,1.147-0.55,0.705-1.306,1.577c1.044,0.624,1.657,1.076,2.57,0.305C270.987,610.721,272.221,608.352,270.25,609.006
		 M402.698,388.639c0.283-0.565,0.771-0.612,0.954-1.387c1.5-0.297,3.04-0.506,4.117-1.74c0.513-2.29-3.251-2.387-3.622-4.245
		c-1.239,0.542-2.422,1.239-3.504,2.148c0.182,0.435,1.359,0.379,0.764,1.23c-0.966,0.503-0.596-0.461-1.354-0.569
		c-1.767,1.906-3.146,2.947-5.933,3.197c-2.695,1.62-8.419,2.597-9.648,6.347c2.084,1.111,4.67-0.434,7.079-0.023
		c2.186,0.37,3.684,2.07,6.141,1.876c1.081-0.065,1.843-1.195,3.172-0.885c0.821-1.166,2.261-3.484,1.49-4.709
		c-1.055-0.051-1.429-0.45-1.006-1.28C401.883,388.805,402.302,388.776,402.698,388.639 M425.488,372.19
		c-3.625-2.597-3.092-7.316-7.864-8.887c-1.548,0.873-4.087,1.601-4.337,3.823c-0.385,0.127-0.808,0.167-1.337-0.032
		c-0.683,1.041-0.69,1.382-1.804,1.993c-0.129-0.643-1.841,0.283-3.299-0.462c-0.265,1.621-1.413,1.796-2.503,3.421
		c0.333,2.021,0.187,4.318-0.733,6.989c1.385,0.498,1.161,1.8,2.378,2.372c0.584-0.365,0.785-1.585,1.437-1.79
		c0.885,0.201,2.001,0.291,1.97,0.962c-0.74,1.087-0.424,1.642-0.327,2.316c3.939,1.767,6.402-1.179,9.234-3.271
		c1,0.273,1.346-0.146,1.959,0.433c2.168-1.465,3.879-3.301,3.812-5.525c0.521,0.191,0.939,0.144,1.209-0.258
		C425.082,373.715,425.379,372.91,425.488,372.19 M418.306,271.266c-0.766,0.171-0.941-0.795-1.229-0.276
		c0.145,0.054,0.269,0.105,0.122,0.3c-0.381-0.04-0.857-0.293-1.104,0.02C416.672,271.804,417.713,272.05,418.306,271.266
		 M411.354,419.151c-0.577-0.133-0.919,0.257-1.601-0.083c-1.209-2.509-3.11-5.115-6.587-5.959c-1.282,1.09-2.868,1.5-4.596,2.698
		c-1.652-0.758-2.432,0.532-3.634,0.791c-3.574,4.731-2.446,9.219-0.637,12.312c2.178,0.04,3.395,2.41,6.259,1.646
		c2.956,3.368,9.384,6.221,4.763,12.445c-2.896,3.911-8.058,1.862-12.332,0.196c-0.956-1.556-2.242-2.933-3.988-4.057
		c0.305-0.843,0.354-1.268,0.446-2.027c0.049-0.393-0.291-1.524-0.161-1.895c0.298-0.837,1.707-1.566,2.038-2.462
		c0.915-2.515-0.862-6.537-3.306-6.56c-2.126-0.007-4.933,2.001-6.392,4.685c-3.251-1.362-7.064-0.185-10.06-1.679
		c-0.629-1.939-0.508-4.285-2.06-5.77c-2.35-0.439-4.258,0.081-6.479-0.089c-0.814-0.005-0.018,0.564-0.471,0.95
		c-0.688-0.075-1.025-0.32-0.639-0.938c-4.514,1.447-6.764,7.447-6.146,10.835c3.183-0.635,4.943,1.579,7.257,2.402
		c-0.721,2.908-4.431,6.895-7.809,7.016c-2.137,2.631,0.279,4.213,0.124,5.858c-0.206,1.832-1.984,4.569-2.583,6.847
		c-0.527,2.092-1.354,4.345-1.701,6.778c-2.357,3.929-2.63,8.438-4.039,12.092c0.466,1.857,0.021,4.176-0.836,6.705
		c1.914,3.135,2.453,6.983,3.484,10.568c-1.554,3.937-3.999,9.772-8.091,10.936c-6.056,1.708-6.662-6.012-7.047-9.512
		c1.294-1.903,1.619-3.636,2.72-5.49c1.157-1.932,3.534-3.273,4.166-5.697c0.508-1.912,0.492-7.396-0.406-9.1
		c-1.005-1.864-3.324-2.954-5.592-4.149c-0.725,0.206-1.565,0.122-1.935,1.167c-0.688-0.177,0.072-1.115-0.766-1.234
		c-0.804-0.312-1.258,0.151-1.815,0.408c-4.904-2.005-8.054,4.206-11.597,6.975c-0.304,6.628-2.012,13.578-2.539,20.634
		c-1.095,0.563-2.006,1.517-3.401,1.382c-0.862,1.186-2.59,2.844-1.995,4.579c0.928,0.433,1.389-0.201,2.208-0.041
		c-1.212,4.412,0.288,8.093-2.455,12.701c-0.473,0.737,0.285,0.813,0.517,1.17c-2.826,3.81-0.959,8.217-2.326,12.478
		c0.11,1.075,1.208,1.655,1.392,2.703c-0.473,0.947-0.935,1.902-1.408,2.857c-1.532,0.241-3.262-0.479-3.314-1.527
		c3.005-4.021,3.186-8.949,0.979-11.447c-2.878,1.091-8.468,1.155-8.701,4.984c-0.292,0.516-0.866,0.361-1.462,0.204
		c-0.855,1.609-1.678,3.259-2.854,4.136c-0.37,4.89-3.878,8.852-4.619,14.346c-0.272,0.892-0.854,1.104-1.308,1.566
		c0.368,1.126-0.551,1.915-0.905,3.52c0.622,1.806,1.951,4.813-0.849,7.221c0.989,1.555-1.23,2.13-0.538,3.867
		c-0.614,1.29-2.565,1.711-2.381,3.182c-0.374,0.836-1.221,0.604-1.683,1.205c-0.333,2.215-2.603,4.009-3.312,6.173
		c-1.217,3.695-0.367,7.066-1.12,11.139c1.434,2.84,1.672,6.307,3.096,9.168c-0.27,5.574-0.028,10.875,2.362,15.092
		c-1.152,8.183-8.11,14.726-15.045,17.88c-0.737,6.03-1.941,12.273-3.924,18.47c1.647,6.27-4.295,16.699-3.471,23.609
		c0.297,2.438,1.122,4.214,0.626,6.503c-0.088,0.375-0.849,1.054-0.958,1.372c-0.232,0.682,0.202,1.875-0.066,2.902
		c-0.807,3.192-4.583,8.778-7.845,5.956c-0.636-0.566-1.919-7.005-1.267-9.028c0.994-2.995,3.717-5.814,4.862-8.73
		c0.368-0.969,0.75-2.583,0.897-3.513c0.653-3.954,0.772-8.229,0.638-11.78c-0.07-1.704,1.491-4.177,1.216-6.36
		c3.23-6.721,2.48-11.405,3.469-16.993c-1.823-1.491-3.877-2.753-6.187-4.003c-0.896-0.473-2.378-0.474-3.071-0.938
		c-0.357-0.229-0.037-0.71-0.39-0.88c-1.283-0.646-3.304-0.952-3.964-1.931c-0.138-0.242-0.047-1.277-0.25-1.646
		c-1.925-3.283-5.229-7.628-0.648-14.188c0.734-1.07,2.332-1.491,3.478-2.678c2.967-3.075,4.45-7.184,4.82-10.339
		c0.218-0.848,1.109-0.177,1.464-0.724c-0.269-1.802-2.905-2.819-4.81-2.397c-1.342-1.399-4.002-2.689-5.701-3.364
		c0.531-0.494,0.872-1.409,1.439-1.812c-0.791-0.904-2.248-1.484-3.233-2.294c1.055-1.988,0.353-3.16-0.079-4.787
		c1.069-1.588,1.402-3.067,0.896-4.044c2.314-3.457,4.489-9.012,5.379-12.595c10.75-10.317,11.752-21.569,19.036-33.681
		c1.529-0.409,2.203-2.734,3.602-3.455c2.884-3.927,1.965-7.188,2.737-10.524c0.438-1.875,1.83-4.572,2.201-6.664
		c0.863-5.062,0.636-10.538,1.151-15.64c0.227-2.065,0.486-4.668,1.117-6.648c0.915-2.957,2.282-5.312,1.795-8.083
		c-1.655-2.396-3.678-3.29-5.859-5.264c-0.03,0.315,0.085,0.558,0.513,0.641c-0.934,0.466-1.905,0.626-2.335-0.247
		c-3.126,0.493-5.466,2.496-8.457,4.495c-1.684,1.117-3.51,2.046-5.094,3.114c-3.432,2.336-5.987,5.115-8.878,8.109
		c-6.619,3.171-14.88,10.737-13.961,18.382c-1.016,2.248-0.832,4.327-2.443,6.614c-1.066,1.529-3.203,3.557-3.294,6.164
		c-6.308,5.735-12.531,11.651-20.521,13.496c-0.597,0.287-0.224,1.162-1.337,1.039c0.475-1.627-0.229-3.854-0.475-5.675
		c3.58-3.388,3.241-7.895,6.648-10.729c2.394-5.245,4.909-11.214,8.543-14.02c4.944-2.72,8.693-8.175,12.955-12.502
		c1.189,0.139,1.337,0.829,2.452,0.541c1.646-3.955,5.671-7.982,6.629-11.247c2.252-1.487,5.089-6.56,2.296-7.45
		c1.217-2.094,1.992-4.982,3.648-7.939c1.103-1.969,3.119-3.919,3.931-5.761c0.494-1.165,1.424-4.37,2.183-6.669
		c0.931-2.773,1.315-6.168-0.504-7.266c-0.697-0.423-4.282-0.861-5.888-0.764c-3.283,0.19-6.698,2.463-8.837,4.683
		c-0.016,2.324-2.885,4.692-4.281,5.938c-5.166,0.463-3.745-5.52-0.297-9.338c2.103-2.337,5.099-3.264,6.719-6.469
		c0.918-1.846,0.114-3.188,1.494-4.699c-0.231-6.03-1.829-11.371-1.308-17.776c-1.317-1.181-0.827-3.288-3.626-3.71
		c0.711-1.412-0.725-1.926-1.859-1.748c-2.514,0.421-7.046,3.448-8.971,4.386c-1.376-0.778-1.361-2.291-3.958-2.454
		c0.955-1.337-0.029-2.092,0.787-3.797c-0.422-0.804-1.671-0.007-1.722-0.384c0.673-1.686,2.289-1.183,3.51-1.615
		c1.28,0.261-0.586,1.013,1.125,1.039c0.705-0.241,0.114-0.618,0.84-1.137c-1.928-0.692-0.162-3.256-2.167-3.917
		c0.395-0.465,0.949-0.547,1.212-1.324c-0.517-4.406-4.776-6.889-5.716-11.059c-2.412-1.452-5.723-3.233-5.487-5.451
		c-1.281-0.127-1.183-0.953-2.465-1.074c-0.916-3.874-8.041-3.673-8.817-7.508c-0.371-1.801,1.179-3.164-0.937-4.18
		c2.118-2.545-0.703-3.4-0.235-5.622c-1.104-0.213-2.064-0.5-1.379-1.625c-5.967,0.162-12.347,3.861-17.802,1.911
		c1.853-1.887,4.468-1.979,6.408-3.626c4.096-0.609,8.045-1.542,11.671-3.263c2.271-2.739,5.925-2.331,8.856-3.604
		c0.306-1.773,1.856-3.454,3.474-3.739c1.358-2.474-2.604-3.026-0.715-5.189c2.68-0.201,2.14,2.711,2.53,4.263
		c6.133-0.283,11.34-10.307,10.231-14.708c-0.949,0.211-2.02,0.124-2.919,0.421c-3.985-1.919-8.025,0.606-11.897-1.29
		c0.257-1.121,1-1.096,1.442-1.808c3.009-0.044,7.841-0.395,11.238-0.17c3.338,0.228,6.011,1.589,8.936,1.182
		c1.949-0.275,3.309-1.661,4.987-2.355c1.003-1.857,2.676-3.605,4.669-4.53c0.529-2.84,4.586-3.842,4.879-7.137
		c-6.418-4.469-14.43-8.058-23.179-9.872c-1.674-0.354-3.533-0.234-5.015-0.851c-1.609-0.659-2.173-2.191-3.609-2.642
		c-0.443-0.148-1.185,0.061-1.59-0.086c-0.768-0.284-1.322-1.031-2.099-1.263c-1.891-0.552-4.02,0.306-6.111-0.292
		c-0.979-0.277-1.555-1.185-2.466-1.598c-3.199-1.449-7.352-1.401-10.807-2.383c-3.006-0.857-6.505-1.473-10.782-1.32
		c-2.528,0.098-6.604,1.266-8.549,0.772c-1.345-0.348-1.963-1.994-3.102-2.54c-2.083-1.01-6.176-0.746-9.086-2.003
		c-1.731-0.745-4.206-0.759-6.753-1.222c-1.389-0.261-2.467-0.952-3.558-1.056c-4.079-0.362-8.357,0.774-12.48-0.627
		c-1.554-1.957-2.935-4.005-6.215-5.077c1.217-0.334,3.786-0.743,5.005-0.755c2.095-0.039,5.367,0.147,7.227,0.793
		c1.359,0.482,1.827,1.958,3.102,2.54c1.696,0.779,4.134,1.571,6.762,1.759c2.451,0.173,5.051-0.408,7.691-0.159
		c3.474,0.326,7.572,0.165,10.43,2.035c2.428-0.605,5.326,1.619,8.113,2.317c4.619,1.153,9.894,1.913,14.362,2.902
		c6.296,1.396,12.549,2.979,18.775,4.405c2.486,0.576,5.217,1.016,7.625,1.681c4.171,1.148,8.53,4.512,13.796,5.691
		c4.8,1.063,9.655,1.289,14.215,2.603c2.911,0.827,6.098,0.948,8.731,2.722c0.554-0.113,1.025-0.369,1.46-0.74
		c0.749-0.967-0.995-0.688-0.633-1.468c0.972-2.833,3.36-2.526,3.579-4.507c2.8-0.021,5.163-1.036,7.166-2.925
		c-0.027-2.105,1.561-4.076,2.316-5.84c-0.732-0.92-1.071-3.627-3.336-2.603c-1.2-1.7-2.76-2.101-3.5-3.945
		c-5.108-1.028-5.575-4.17-10.005-5.121c2.094-5.387-2.271-6.056-7.252-8.484c-1.188-0.583-2.96-1.699-4.438-2.04
		c-1.687-0.387-3.765-0.129-5.402-0.651c-1.176-0.396-1.812-1.463-2.837-1.963c-1.749-0.837-4.125-1.395-6.151-1.88
		c-7.625-1.87-16.667-3.011-24.93-6.295c-2.469-0.977-5.141-2.781-6.925-4.172c-2.566-2.011-3.566-5.424-6.735-6.789
		c-3.072-1.33-8.517-2.237-7.808-5.692c3.376,0.697,6.376,3.065,8.768,4.844c0.814,0.176,0.93-1.291,1.568-1.511
		c-0.081-2.632-5.549-3.318-5.122-5.626c-0.461,0.462-1.18,0.348-1.955,0.095c-1.243-1.753-4.425-2.524-5.461-4.382
		c-3.425-0.201-4.379-3.6-6.936-4.708c-2.15-0.936-4.772-1.687-3.868-4.299c1.01-0.292,1.938,0.728,3.436,0.763
		c4.332,5.551,11.827,9.489,17.754,14.241c5.179,1.079,8.606,4.559,13.444,6.413c0.441,0.365,0.219,1.076,0.648,1.457
		c1.076,0.68,2.53,0.357,4.164,0.92c4.643,2.659,10.281,4.797,14.082,7.878c14.98,1.938,26.357,6.393,41.834,7.897
		c1.234-1.392,4.729-0.697,6.442-2.56c0.876-3.014-2.957-2.821-5.093-4.035c-0.112-3.93,6.238-5.041,7.531-8.665
		c1.025-2.869-1.285-5.018-1.004-7.905c3.549-1.919,1.256-5.633,1.061-8.242c-1.868,0.007-2.143-0.512-3.207-1.239
		c2.069-4.652-0.417-7.019-2.03-10.252c-1.297-2.616-0.791-4.962-4.271-6.24c-1.795-3.623-3.273-7.409-5.22-10.954
		c-3.976-2.813-7.016-6.106-7.544-10.673c-5.452-4.384-5.545-11.501-12.026-15.368c0.415-1.153-0.731-2.302,0.182-3.136
		c1.293,0.478,2.21,1.141,3.211,1.768c-0.071,0.811,0.215,1.446-0.077,2.367c3.474,6.531,9.168,11.927,11.98,18.798
		c0.649,0.145,1.312,0.292,1.966,0.434c2.241,5.244,5.103,10.175,11.744,13.184c0.118,3.577,2.67,5.922,4.812,8.48
		c1.847,1.061,4.795,1.307,6.282,2.705c1.074,1.029,1.56,3.161,2.898,4.617c0.483,0.527,1.398,0.71,1.856,1.206
		c0.767,0.829,1.063,2.134,1.882,2.8c0.92,0.729,2.26,0.86,2.599,1.896c0.564,1.696,0.548,3.849,1.341,5.594
		c0.534,1.182,1.409,2.74,2.149,3.919c0.262,0.409,0.897,1.356,1.132,1.578c0.479,0.441,1.571,0.095,1.358,1.09
		c3.76-0.431,8.162-1.623,11.498-0.109c2.646-1.055,3.154-3.391,4.301-5.415c-1.037-2.225-7.128-1.874-4.758-5.826
		c3.336-1.031,3.581,2.233,5.196,3.805c1.965,1.917,5.664,2.301,6.947,4.706c3.021,0.604,6.905,1.687,9.248-1.673
		c4.567,0.111,8.626-0.928,12.043-3.431c0.054-2.506-0.082-7.956,3.628-7.94c1.229-3.25,2.408-5.687,4.37-8.315
		c0.99-1.333,2.95-2.25,3.467-3.738c0.479-1.333-0.636-2.341-0.799-3.894c-0.126-1.29,0.083-3.314-0.226-5.078
		c-0.271-1.616-1.249-3.496,1.106-6.114c7.69-1.854,2.843,10.442,4.799,14.037c-0.525,0.749-0.394,1.154-0.576,1.727
		c2.063,4.806,0.203,11.599,2.991,16.033c1.889,0.863,2.857,2.401,3.848,3.227c1.47-0.797-0.589-0.891,0.454-2.02
		c2.4-0.35,3.156,1.748,5.419,1.727c3.546-0.03,4.634-4.501,7.58-6.008c2.081-4.067,1.711-7.932,2.226-11.705
		c0.168-1.239,0.878-2.472,0.898-3.502c0.015-0.303-0.447-0.34-0.489-0.642c-0.426-2.605,1.082-6.48,0.685-8.589
		c-0.208-1.117-1.176-1.061-1.752-1.975c-0.074-0.123,0.262-0.99,0.106-1.308c-0.224-0.44-0.903-0.466-0.992-0.748
		c-0.464-1.479,0.325-3.53,0.021-5.031c1.998-2.98,2.972-5.257,5.498-6.733c2.069,0.483,4.12,1.006,4.935,2.144
		c0.109,0.158,1.159,5.088,1.077,5.542c-0.163,0.923-1.004,2.763-1.41,3.396c-0.679,1.107-2.386,1.845-3.104,3.021
		c-1.084,1.733-0.163,2.456-0.29,3.908c-0.085,0.873-0.66,1.89-0.809,2.738c-0.648,3.647,0.448,6.861,0.191,10.115
		c-0.092,1.208-1.22,2.488-0.295,3.373c-2.103,6.268-1.68,11.244-2.255,16.731c4.54,2.463,7.351,5.809,8.022,10.241
		c1.754,0.453,1.786,1.353,3.323,1.531c1.187,0.167,1.613-1.401,2.922-0.949c0.409-0.895-0.948-0.226-0.749-0.691
		c0.452-1.006,0.907-2.014,1.67-2.284c0.118,1.177-0.614,2.499-0.909,3.504c0.717,0.134,1.54,0.486,2.084,0.198
		c2.321-2.88,6.367-3.6,8.787-6.795c1.592-2.113,2.244-4.553,4.018-7.599c2.103-0.266,2.734-3.893,4.797-4.24
		c0.722,8.152-8.742,13.312-12.931,20.725c0.168,0.699,0.493,1.311,1.379,1.631c0.023,2.742-1.958,6.494-2.861,9.7
		c-2.076,1.391-5.08,5.382-5.495,7.269c1.842,0.484,2.762-1.148,3.871-2.326c3.067-1.13,5.178-4.409,7.697-6.786
		c0.689-0.337,0.632,0.115,1.23,0.276c-1.206-2.176,4.131-2.732,4.051-5.472c1.172-0.532,2.204-1.375,3.772-1.018
		c-1.187,2.013-2.336,4.134-4.578,3.76c0.308,0.637,0.922,0.083,1.598,0.611c-3.185,3.751-8.398,6.569-7.366,10.57
		c-2.369,1.571-3.768,5.205-6.853,6.172c-0.895,1.148,0.651,1.688-0.327,2.316c-1.275-0.043-2.598-0.206-3.403,0.832
		c-0.342-0.711-1.799-1.158-2.578-0.298c-0.836,2.158,4.071,4.338,5.955,4.483c1.32,0.114,4.237-1.444,6.941-1.381
		c1.374,0.04,2.807,0.323,4.036,0.099c2.192-0.396,4.338-1.571,6.938-1.385c2.736-2.647,6.889-2.048,9.874-1.801
		c-1.626,1.862-4.194,1.568-5.796,3.499c-0.426-0.111-0.727,0.032-0.979,0.306c-3.248-1.149-5.626-0.356-8.194,0.053
		c0.482,1.604,2.269,2.551,2.528,4.271c4.443,0.497,7.372-2.445,11.953-1.604c-0.373,0.657,0.404,0.742,0.511,1.169
		c-1.677,4.112-5.724,2.837-8.337,4.777c-2.372,3.074-1.544,6.145-2.147,9.331c-3.254,2.877-7.992,2.366-11.27,5.205
		c-0.639,2.081,1.893,3.024,4.083,2.219c0.316,1.219,2.236,1.424,4.656,1.566c-0.529,0.808-1.253,1.166-1.906,1.689
		c-0.552,1.732,1.36,1.583,0.658,3.063c1.808-0.553,2.826,0.034,4.909,0.55c0.785,5.221,9.848,3.527,14.054,6.805
		c-0.476,1-1.725,2.139-1.522,3.122c3.02,1.656,8.461,0.964,12.119,0.799c1.287-1.96,2.999-2.949,4.961-3.404
		c1.758,0.475-0.248,2.866,0.546,3.831c-2.591,2.188-5.711,3.19-7.823,6.49c0.635,0.448,1.843,0.603,3.322,1
		c0.667,0.252,0.874,0.742,0.642,1.463c2.955,0.53,3.571,3.628,7.054,4.473c1.717,2.649,2.013,6.017,4.689,8.18
		c-0.664,9.154-10.19,8.977-14.022,14.665c2.104,2.917,7.717,4.062,9.539,7.132c4.284,2.944,10.593,2.98,16.58,4.461
		c1.386,0.334,2.92,0.205,3.233,1.762c9.226,2.518,16.324,6.131,21.351,10.803c3.044,0.655,5.771,1.473,7.265,2.927
		c3.735,0.773,8.178-2.091,10.656,0.492c0.891,0.177,1.473-0.338,2.3-0.287c1.596,1.29,2.995,2.651,4.246,4.107
		c-1.401,2.281-0.326,3.271-1.248,5.291c-2.315,1.8-5.701,1.193-8.518,1.835c-0.694-0.413-1.47-0.798-2.105-1.263
		c-5.979,1.265-5.942-5.177-8.203-7.101c-1.217-1.034-3.224-1.073-4.681-1.558c-3.975-1.326-7.548-2.768-10.835-4.513
		c-0.708-0.56-0.558,0.774-1.101,0.558c-1.728-2.875-4.891-2.731-8.746-3.262c0.396-0.55-0.177-0.61,0.354-1.236
		c-1.225-0.832-3.05-0.593-4.301-1.214c-0.714-0.358-0.774-1.113-1.504-1.396c-2.347-0.904-5.341-0.467-7.484-1.384
		c-3.133-1.343-5.359-4.958-8.81-6.982c-3.525-2.063-7.724-2.822-9.632-5.303c-5.263,0.483-10.693,0.572-14.471,4.499
		c-0.529,2.48,1.605,2.866,3.76,4.533c1.103,0.867,1.254,1.859,2.248,2.085c2.496,0.581,5.743-1.195,8.178-0.572
		c0.238,0.466-0.028,1.208,0.641,1.463c-0.925,0.687-2.981,0.055-2.904,1.48c-0.888,0.029-0.584-0.541-1.002-0.752
		c-2.402,1.598-5.248,2.22-8.135,2.722c-1.097,3.256-3.692,3.554-4.39,6.702c-4.586,0.03-6.134,6.292-8.638,9.221
		c-2.767,1.563-5.613,2.528-6.987,4.818c0.836,0.867,0.704,1.823,2.244,2.621c-0.626,0.431-1.742-0.273-2.314,0.286
		c0.681,0.841,0.932,0.055,2.461,0.545c-0.39,0.605-0.055,0.854,0.631,0.926c-0.14,0.556-0.647,0.24-0.864,0.605
		c2.462-0.602,7.508,1.617,6.95,4.721c0.903,0.371,1.294-0.421,2.196-0.05c0.72,2.335,3.75,2.285,6.17,2.959
		c3.965,1.063,4.835,4.258,7.7,6.464c1.134,5.926,0.978,12.51,6.064,16.436c0.325,1.7,2.088,3.343-0.135,5.789
		c-8.049,1.608-6.574-7.083-12.155-9.04c0.084-0.39-0.67-0.375-0.015-1.058c-0.729-0.003-1.188-1.045-1.963-0.43
		c0.297-0.917-1.225-0.919-0.42-2.489c-2.302-2.365-3.68-5.808-3.962-8.549c-0.044-0.515-0.611-1.645-0.881-2.04
		c-1.838-2.721-5.129-5.487-7.75-8.074c-0.452-1.362-1.026-2.689-2.267-3.673c-0.003-0.473-0.433-0.878,0.338-1.256
		C411.822,421.926,410.44,420.196,411.354,419.151"/>
	<path fill="#8E25F9" d="M407.65,480.857c-0.536-0.186-0.194-0.85-0.515-1.152C407.504,479.278,408.554,480.574,407.65,480.857"/>
	<path fill="#8E25F9" d="M361.964,559.287c-0.538-0.507-2.883-2.198-0.696-4.134C363.764,555.398,362.318,558.146,361.964,559.287"
		/>
	<path fill="#8E25F9" d="M453.157,285.042c0.251,0.106,0.014,0.274-0.115,0.239c-0.102,0.234,0.216,0.243,0.38,0.345
		c-0.551,0.345-1.576,0.916-1.833,0.396c0.376,0.994-1.411,0.149-1.817,0.929c-0.327-1.287,2.028-0.795,2.539-1.836
		C452.644,285.211,452.983,285.31,453.157,285.042"/>
</g>
</svg>
