<?xml version="1.0" encoding="UTF-8" standalone="no"?><!DOCTYPE svg PUBLIC "-//W3C//DTD SVG 1.1//EN" "http://www.w3.org/Graphics/SVG/1.1/DTD/svg11.dtd"><svg width="100%" height="100%" viewBox="0 0 121 90" version="1.1" xmlns="http://www.w3.org/2000/svg" xmlns:xlink="http://www.w3.org/1999/xlink" xml:space="preserve" style="fill-rule:evenodd;clip-rule:evenodd;stroke-linejoin:round;stroke-miterlimit:1.41421;"><g><path d="M96.47,25.335c-0.061,0.02 -0.087,0.055 -0.081,0.099c-0.172,0.079 -0.256,-0.037 -0.329,-0.181c0.208,-0.135 0.372,-0.162 0.41,0.082" style="fill:#fbbd2c;"/><path d="M87.067,9.237c0.108,0.128 -0.019,0.184 -0.003,0.284c-0.212,0.118 -0.363,0.088 -0.526,0.088c-0.062,-0.186 0.358,-0.382 0.529,-0.372" style="fill:#fbbd2c;"/><path d="M110.928,69.502c-0.545,0.22 -0.725,-0.387 -1.013,-0.749c0.375,0.129 0.913,0.296 1.013,0.749" style="fill:#fbbd2c;"/><path d="M101.095,47.051c-0.115,0.082 -0.149,-0.029 -0.279,0.081c-0.131,-0.191 0.272,-0.343 0.279,-0.081" style="fill:#fbbd2c;"/><path d="M86.391,14.49c0.101,0.165 -0.223,0.327 -0.302,0.315c-0.043,-0.081 0.018,-0.127 -0.03,-0.21c0.145,-0.112 0.207,-0.045 0.332,-0.105" style="fill:#fbbd2c;"/><path d="M96.416,38.257c0.097,0.123 -0.031,0.182 0.07,0.306c-0.272,0.216 -0.363,-0.039 -0.346,-0.227c0.113,-0.072 0.199,-0.089 0.276,-0.079" style="fill:#fbbd2c;"/><path d="M96.014,37.606c-0.036,0.236 -0.206,0.43 -0.291,0.651c-0.149,0.068 -0.235,-0.015 -0.338,-0.063c0.026,-0.181 0.118,-0.343 0.076,-0.546c0.133,-0.018 0.374,-0.15 0.553,-0.042" style="fill:#fbbd2c;"/><path d="M96.964,39.966c0.016,0.032 0.029,0.064 0.044,0.095c-0.051,0.012 -0.041,0.041 -0.034,0.07c-0.032,0.019 -0.068,0.035 -0.103,0.052c-0.005,-0.043 -0.042,-0.035 -0.07,-0.021c-0.015,-0.033 -0.028,-0.062 -0.042,-0.094c0.05,-0.015 0.039,-0.041 0.032,-0.071c0.035,-0.017 0.07,-0.036 0.103,-0.051c0.009,0.044 0.04,0.034 0.07,0.02" style="fill:#fbbd2c;"/><path d="M88.622,21.539c0.022,0.047 0.042,0.093 0.064,0.141c-0.042,0.099 -0.264,0.21 -0.363,0.178c-0.025,-0.064 -0.058,-0.124 -0.08,-0.188c0.127,-0.145 0.224,-0.134 0.379,-0.131" style="fill:#fbbd2c;"/><path d="M88.931,22.973c0.127,0.192 -0.272,0.345 -0.278,0.08c0.111,-0.073 0.199,-0.089 0.278,-0.08" style="fill:#fbbd2c;"/><path d="M100.155,49.662c0.087,0.136 -0.046,0.203 -0.194,0.265c-0.065,-0.086 -0.02,-0.14 -0.033,-0.21c0.092,-0.053 0.133,0.002 0.227,-0.055" style="fill:#fbbd2c;"/><path d="M94.734,37.27c-0.113,0.392 -0.721,0.152 -0.648,-0.192c0.301,-0.132 0.463,0.054 0.648,0.192" style="fill:#fbbd2c;"/><path d="M93.228,33.935c0.049,0.12 -0.143,0.203 -0.234,0.172c-0.048,-0.121 0.14,-0.204 0.234,-0.172" style="fill:#fbbd2c;"/><path d="M87.8,22.395c0.128,0.131 -0.315,0.323 -0.278,0.08c0.129,-0.111 0.162,-0.001 0.278,-0.08" style="fill:#fbbd2c;"/><path d="M87.457,21.885c-0.439,0.198 -1.323,0.601 -1.683,0.316c0.65,-0.315 1.29,-0.602 1.683,-0.316" style="fill:#fbbd2c;"/><path d="M87.381,22.432c0.038,0.189 -0.321,0.257 -0.414,0.201c-0.041,-0.186 0.318,-0.259 0.414,-0.201" style="fill:#fbbd2c;"/><path d="M81.933,11.579c0.098,-0.158 0.55,-0.327 0.632,-0.138c-0.245,0.031 -0.461,0.047 -0.632,0.138" style="fill:#fbbd2c;"/><path d="M82.183,11.573c-0.051,0.165 -0.361,0.143 -0.484,0.18c-0.038,-0.091 0.152,-0.116 0.093,-0.217c0.088,0.169 0.175,0.061 0.391,0.037" style="fill:#fbbd2c;"/><path d="M95.958,46.625c-0.33,0.092 -0.38,-0.192 -0.378,-0.438c0.288,-0.117 0.597,0.18 0.378,0.438" style="fill:#fbbd2c;"/><path d="M109.739,82.411c-0.463,-0.327 -0.799,-0.951 -1.256,-1.308c0.04,-0.191 0.023,-0.398 0.057,-0.591c-0.959,-1.011 -1.696,-1.713 -2.623,-2.735c-0.583,-0.019 -0.663,-0.568 -1.01,-1.032c-0.165,-0.218 -0.529,-0.342 -0.738,-0.543c-0.218,-0.215 -0.312,-0.462 -0.508,-0.597c-0.455,-0.325 -0.987,-0.519 -1.394,-0.904c-0.169,-0.043 -0.34,-0.094 -0.506,-0.149c-0.371,-0.907 -1.227,-1.346 -1.853,-1.976c-0.242,-0.243 -0.408,-0.571 -0.665,-0.806c-0.201,-0.181 -0.506,-0.276 -0.694,-0.452c-0.257,-0.237 -0.413,-0.57 -0.664,-0.806c-0.909,-0.857 -1.885,-1.624 -2.821,-2.466c-0.078,-0.231 -0.186,-0.38 -0.295,-0.535c-0.642,-0.366 -1.395,-0.96 -1.766,-1.624c-0.06,-0.086 -0.179,-0.025 -0.27,-0.038c-0.062,-0.141 0.141,-0.202 0.033,-0.355c-0.454,-0.313 -0.867,-0.863 -1.389,-1.187c-0.16,-0.097 -0.409,-0.133 -0.543,-0.244c-0.349,-0.287 -0.476,-0.772 -0.838,-1.06c-0.324,-0.264 -0.663,-0.405 -0.971,-0.654c-0.246,-0.693 -0.877,-0.922 -0.864,-1.276c0.116,-0.176 0.592,0.031 0.544,0.245c1.047,0.265 1.568,1.736 2.808,1.564c0.125,0.243 0.307,0.23 0.431,0.412c0.256,0.384 0.05,0.883 0.257,1.176c0.369,0.523 1.176,1.011 1.708,1.482c1.102,1.303 2.192,2.526 3.426,3.584c0.351,0.295 0.807,0.462 1.192,0.716c0.411,0.275 0.72,0.627 1.094,0.937c0.136,0.114 0.375,0.179 0.511,0.316c0.106,0.104 0.121,0.293 0.234,0.394c0.095,0.084 0.287,0.082 0.38,0.153c0.399,0.3 0.606,0.789 0.979,1.104c0.16,0.132 0.392,0.161 0.562,0.291c0.946,0.709 1.463,1.88 2.545,2.545c0.047,0.108 0.095,0.218 0.139,0.324c0.209,0.056 0.337,0.291 0.565,0.293c0.793,0.931 1.734,1.811 2.677,2.706c0.287,0.273 0.545,0.618 0.784,0.803c0.434,0.332 1.281,0.292 1.601,0.798c0.237,0.378 0.286,0.704 0.277,1.224c-0.258,0.595 -0.739,0.181 -1.136,0.271" style="fill:#fbbd2c;"/><path d="M98.556,55.533c-0.089,-0.014 -0.214,0.05 -0.298,0.034c-0.293,-0.482 0.566,-0.466 0.298,-0.034" style="fill:#fbbd2c;"/><path d="M85.093,24.682c-0.128,-0.019 -0.274,0.009 -0.329,-0.178c0.041,-0.069 0.111,-0.13 0.24,-0.175c0.153,0.046 0.136,0.249 0.089,0.353" style="fill:#fbbd2c;"/><path d="M79.389,11.353c0.065,0.087 0.023,0.141 0.032,0.213c-0.139,0.035 -0.287,0.091 -0.339,-0.061c0.113,-0.075 0.171,-0.196 0.307,-0.152" style="fill:#fbbd2c;"/><path d="M83.895,24.815c0.064,0.101 0.069,0.184 0.048,0.259c-0.164,0.126 -0.227,0.028 -0.382,0.131c0.008,-0.161 0.058,-0.307 0.334,-0.39" style="fill:#fbbd2c;"/><path d="M95.623,53.238c-0.334,0.182 -0.609,-0.195 -0.626,-0.429c0.298,0.007 0.848,0.025 0.626,0.429" style="fill:#fbbd2c;"/><path d="M72.682,0.045c-0.104,0.483 -0.8,0.793 -1.246,1.176c-0.467,0.876 -1.243,1.755 -1.898,2.567c-0.208,0.259 -0.314,0.59 -0.596,0.802c-0.118,0.087 -0.252,0.053 -0.381,0.13c-0.27,0.158 -0.245,0.37 -0.429,0.605c-0.347,0.444 -0.861,0.91 -1.166,1.363c0.292,-1.039 1.107,-1.922 1.85,-2.828c0.188,-0.12 0.336,-0.148 0.454,-0.11c0.333,-0.41 0.765,-0.951 1.231,-1.507c0.449,-0.537 1.032,-1.102 1.277,-1.531c0.197,-0.344 0.23,-0.868 0.904,-0.667" style="fill:#fbbd2c;"/><path d="M82.841,27.31c-0.26,-0.778 0.97,-0.872 1.107,-0.201c-0.214,0.407 -0.841,0.288 -1.107,0.201" style="fill:#fbbd2c;"/><path d="M94.783,52.462c-0.514,-0.289 -1.293,-0.442 -1.43,-1.281c0.706,-0.133 1.206,0.612 1.43,1.281" style="fill:#fbbd2c;"/><path d="M82.928,25.911c0.017,0.048 0.04,0.095 0.059,0.141c-0.127,0.079 -0.229,0.092 -0.267,-0.039c0.069,-0.035 0.137,-0.066 0.208,-0.102" style="fill:#fbbd2c;"/><path d="M74.825,10.649c-0.004,0.121 -0.059,0.226 -0.253,0.292c-0.16,-0.177 0.111,-0.329 0.253,-0.292" style="fill:#fbbd2c;"/><path d="M105.651,82.094c0.088,0.135 0.048,0.229 -0.128,0.288c-0.025,-0.061 -0.053,-0.124 -0.078,-0.187c0.069,-0.032 0.138,-0.068 0.206,-0.101" style="fill:#fbbd2c;"/><path d="M94.919,57.709c0.049,0.07 -0.015,0.105 0.011,0.165c-0.163,0.096 -0.275,0.067 -0.343,-0.061c0.063,-0.148 0.211,-0.084 0.332,-0.104" style="fill:#fbbd2c;"/><path d="M88.636,43.76c-0.206,0.039 -0.374,-0.011 -0.501,-0.149c0.241,-0.12 0.41,-0.07 0.501,0.149" style="fill:#fbbd2c;"/><path d="M85.785,43.403c-0.084,0.17 -0.354,0.197 -0.485,0.179c-0.097,-0.124 0.03,-0.179 -0.07,-0.305c0.272,-0.149 0.455,-0.107 0.555,0.126" style="fill:#fbbd2c;"/><path d="M85,43.901c-0.212,0.02 -0.374,-0.08 -0.492,-0.269c0.233,-0.072 0.342,0.145 0.492,0.269" style="fill:#fbbd2c;"/><path d="M76.456,24.441c0.094,0.108 -0.061,0.141 -0.019,0.234c-0.239,0.079 -0.46,0.118 -0.652,0.092c-0.06,-0.338 0.456,-0.375 0.671,-0.326" style="fill:#fbbd2c;"/><path d="M81.517,37.291c-0.464,0.074 -1.379,-0.186 -1.037,-0.794c0.635,-0.286 0.747,0.519 1.037,0.794" style="fill:#fbbd2c;"/><path d="M98.087,77.651c-0.367,0.222 -0.511,-0.069 -0.812,0.001c-0.137,-0.154 -0.211,-0.449 -0.366,-0.554c0.292,-0.65 -0.476,-0.801 -0.574,-1.473c0.422,0.115 0.709,0.546 1.021,0.914c0.478,0.043 0.897,0.565 0.731,1.112" style="fill:#fbbd2c;"/><path d="M69.608,15.405c-0.184,0.253 -0.534,0.198 -0.83,0.406c-0.215,-0.094 -0.446,-0.154 -0.634,-0.311c0.045,-0.415 0.472,-0.691 0.986,-0.765c0.201,0.108 0.589,0.413 0.478,0.67" style="fill:#fbbd2c;"/><path d="M80.429,41.16c-0.172,0.179 -0.766,-0.082 -0.572,-0.454c0.295,-0.089 0.46,0.116 0.572,0.454" style="fill:#fbbd2c;"/><path d="M89.876,64.025c-0.594,0.075 -0.679,-0.309 -0.93,-0.847c-0.279,-0.589 -1.104,-0.734 -1.19,-1.453c0.603,-0.023 0.741,0.561 1.091,0.936c0.379,0.408 1.313,0.482 1.029,1.364" style="fill:#fbbd2c;"/><path d="M65.855,9.775c-0.317,0.5 -0.91,0.675 -1.483,1.066c0.041,-0.518 0.759,-1.22 1.382,-1.297c0.034,0.078 0.069,0.155 0.101,0.231" style="fill:#fbbd2c;"/><path d="M77.319,36.575c-0.189,0.112 -0.359,-0.082 -0.295,-0.252c0.16,-0.066 0.368,0.053 0.295,0.252" style="fill:#fbbd2c;"/><path d="M79.517,41.946c-0.439,0.192 -0.85,-0.347 -0.765,-0.757c0.079,-0.043 0.205,-0.073 0.183,-0.147c0.369,-0.022 0.737,0.507 0.582,0.904" style="fill:#fbbd2c;"/><path d="M87.428,61.263c-0.215,0.125 -0.248,-0.017 -0.256,-0.157c0.107,-0.004 0.22,-0.003 0.256,0.157" style="fill:#fbbd2c;"/><path d="M87.057,60.991c-0.21,-0.198 -0.559,-0.081 -0.663,-0.523c0.378,-0.183 0.453,0.326 0.663,0.523" style="fill:#fbbd2c;"/><path d="M81.734,55.34c-0.107,-0.203 -0.4,-0.347 -0.338,-0.629c0.201,-0.001 0.579,0.469 0.338,0.629" style="fill:#fbbd2c;"/><path d="M77.48,46.958c0.034,0.079 0.068,0.156 0.1,0.232c-0.116,0.058 -0.403,-0.144 -0.1,-0.232" style="fill:#fbbd2c;"/><path d="M59.05,5.922c0.002,0.153 -0.034,0.29 -0.21,0.387c-0.042,-0.163 -0.038,-0.308 0.21,-0.387" style="fill:#fbbd2c;"/><path d="M59.295,8.518c0.053,0.13 -0.196,0.23 -0.289,0.197c-0.011,-0.068 0.057,-0.116 0.041,-0.188c0.126,-0.102 0.143,0.042 0.248,-0.009" style="fill:#fbbd2c;"/><path d="M61.144,13.666c-0.118,0.189 -0.458,0.391 -0.675,0.329c-0.12,-0.212 -0.094,-0.382 0.026,-0.521c0.296,-0.121 0.55,-0.138 0.649,0.192" style="fill:#fbbd2c;"/><path d="M85.174,81.144c-0.173,-0.003 -0.248,-0.231 -0.386,-0.322c0.152,-0.158 0.014,-0.4 0.055,-0.593c0.363,0.146 0.379,0.599 0.331,0.915" style="fill:#fbbd2c;"/><path d="M76.87,81.358c-0.144,0.113 -0.088,0.084 -0.259,0.128c-0.11,-0.193 -0.074,-0.345 0.119,-0.452c0.101,0.026 0.186,0.229 0.14,0.324" style="fill:#fbbd2c;"/><path d="M42.988,9.089c-0.05,0.136 -0.476,0.344 -0.474,0.063c0.195,-0.11 0.31,-0.032 0.474,-0.063" style="fill:#fbbd2c;"/><path d="M63.126,58.28c-0.013,0.09 -0.011,0.185 -0.143,0.24c-0.066,-0.086 -0.021,-0.14 -0.029,-0.211c0.051,0.004 0.102,0.006 0.172,-0.029" style="fill:#fbbd2c;"/><path d="M74.269,87.382c-0.478,0.074 -0.186,-0.379 -0.357,-0.675c0.111,0.063 0.549,0.345 0.357,0.675" style="fill:#fbbd2c;"/><path d="M73.524,85.656c0.131,0.029 0.253,0.397 0.22,0.514c-0.17,-0.124 -0.196,-0.351 -0.22,-0.514" style="fill:#fbbd2c;"/><path d="M67.212,72.513c-0.412,-0.329 -0.281,-0.903 -0.338,-1.362c0.321,0.415 0.858,0.892 0.338,1.362" style="fill:#fbbd2c;"/><path d="M61.799,61.587c0.008,0.072 -0.059,0.119 -0.045,0.193c-0.092,0.032 -0.15,-0.024 -0.182,-0.137c0.101,-0.075 0.151,-0.036 0.227,-0.056" style="fill:#fbbd2c;"/><path d="M54.404,55.648c0.033,0.171 -0.025,0.319 -0.261,0.41c-0.026,-0.123 -0.14,-0.053 -0.153,-0.207c0.036,-0.044 0.075,-0.087 0.064,-0.144c0.144,-0.085 0.204,0.028 0.35,-0.059" style="fill:#fbbd2c;"/><path d="M53.099,52.78c-0.051,0.024 -0.1,0.05 -0.153,0.075c-0.132,-0.035 -0.038,-0.147 -0.05,-0.258c0.115,-0.047 0.163,0.063 0.203,0.183" style="fill:#fbbd2c;"/><path d="M52.036,53.073c-0.512,0.211 -0.647,-0.438 -0.302,-0.699c0.447,-0.089 0.435,0.434 0.302,0.699" style="fill:#fbbd2c;"/><path d="M51.294,54.115c0.029,0.064 0.055,0.126 0.082,0.188c-0.099,0.072 -0.15,0.035 -0.228,0.053c0.016,-0.089 -0.037,-0.2 0.146,-0.241" style="fill:#fbbd2c;"/><path d="M49.94,54.892c-0.224,0.07 -0.317,-0.238 -0.089,-0.351c0.153,0.045 0.139,0.248 0.089,0.351" style="fill:#fbbd2c;"/><path d="M54.321,64.739c0.067,0.128 0.116,0.251 -0.054,0.309c-0.105,-0.033 -0.109,-0.238 0.054,-0.309" style="fill:#fbbd2c;"/><path d="M48.583,53.068c-0.308,0.041 -0.367,-0.297 -0.149,-0.493c0.135,0.106 0.146,0.312 0.149,0.493" style="fill:#fbbd2c;"/><path d="M47.837,51.623c0.14,0.045 0.064,0.37 -0.119,0.453c-0.118,-0.197 0.02,-0.319 0.119,-0.453" style="fill:#fbbd2c;"/><path d="M47.027,51.058c-0.112,-0.128 0.019,-0.186 0.002,-0.284c0.206,-0.059 0.171,0.221 -0.002,0.284" style="fill:#fbbd2c;"/><path d="M47.706,52.195c0.1,0.123 0.022,0.197 0.07,0.307c-0.088,0.026 -0.07,0.088 -0.136,0.121c-0.201,0.092 -0.289,-0.078 -0.365,-0.272c0.062,-0.135 0.294,-0.129 0.431,-0.156" style="fill:#fbbd2c;"/><path d="M47.609,55.013c-0.028,-0.059 -0.052,-0.123 -0.08,-0.185c0.182,-0.135 0.296,0.124 0.08,0.185" style="fill:#fbbd2c;"/><path d="M46.93,54.894c-0.015,-0.317 -0.363,-0.73 0.04,-0.924c0.305,0.249 0.183,0.699 -0.04,0.924" style="fill:#fbbd2c;"/><path d="M46.513,53.061c0.052,0.138 0.163,0.292 0.111,0.4c-0.132,0.042 -0.076,0.14 -0.24,0.173c-0.191,-0.189 -0.233,-0.443 0.129,-0.573" style="fill:#fbbd2c;"/><path d="M47.245,55.477c-0.065,0.02 -0.088,0.054 -0.083,0.097c-0.187,0.112 -0.36,-0.082 -0.296,-0.252c0.198,-0.116 0.314,-0.044 0.379,0.155" style="fill:#fbbd2c;"/><path d="M37.766,33.986c-0.114,0.073 -0.202,0.089 -0.28,0.079c0.014,-0.089 -0.038,-0.2 0.144,-0.242c0.057,0.023 0.102,0.078 0.136,0.163" style="fill:#fbbd2c;"/><path d="M53.393,71.866c0.063,0.1 0.069,0.183 0.047,0.258c-0.132,0.059 -0.23,0.031 -0.286,-0.084c0.131,-0.043 0.073,-0.14 0.239,-0.174" style="fill:#fbbd2c;"/><path d="M44.315,51.311c-0.123,0.124 -0.247,0.184 -0.413,0.201c-0.256,-0.263 -0.156,-0.633 0.202,-0.834c0.17,0.101 0.279,0.471 0.211,0.633" style="fill:#fbbd2c;"/><path d="M28.727,20.478c0.033,0.051 0.026,0.091 -0.013,0.121c-0.987,0.215 -2.233,1.016 -2.685,0.014c0.786,-1.113 2.025,-0.483 2.698,-0.135" style="fill:#fbbd2c;"/><path d="M30.366,24.994c-0.143,0.174 -0.692,0.063 -0.678,-0.121c0.301,-0.134 0.479,0.019 0.678,0.121" style="fill:#fbbd2c;"/><path d="M49.429,73.863c-0.462,-0.197 -0.228,-0.84 -0.185,-1.157c0.532,0.203 0.319,0.806 0.185,1.157" style="fill:#fbbd2c;"/><path d="M41.648,57.027c0.139,0.232 0.005,0.382 -0.081,0.546c-0.346,0.01 -0.194,-0.611 0.081,-0.546" style="fill:#fbbd2c;"/><path d="M45.598,66.744c0.067,0.237 0.017,0.44 -0.035,0.641c-0.175,-0.108 -0.1,-0.49 0.035,-0.641" style="fill:#fbbd2c;"/><path d="M45.518,67.575c0.021,0.046 0.04,0.093 0.062,0.141c-0.046,0.067 -0.114,0.128 -0.24,0.172c-0.111,-0.155 -0.007,-0.246 0.178,-0.313" style="fill:#fbbd2c;"/><path d="M41.221,58.368c0.116,0.183 0.126,0.332 -0.134,0.402c-0.041,-0.091 -0.084,-0.184 -0.124,-0.278c0.088,-0.043 0.17,-0.083 0.258,-0.124" style="fill:#fbbd2c;"/><path d="M25.995,24.022c0.131,0.192 -0.27,0.344 -0.279,0.081c0.113,-0.074 0.201,-0.091 0.279,-0.081" style="fill:#fbbd2c;"/><path d="M28.831,31.456c-0.003,0.053 -0.007,0.106 -0.06,0.144c-1.606,1.131 -3.306,1.048 -4.734,1.524c-0.251,0.084 -0.439,0.298 -0.713,0.235c0.281,-0.384 0.848,-0.311 1.333,-0.54c1.514,-0.705 2.864,-1.315 4.174,-1.363" style="fill:#fbbd2c;"/><path d="M38.137,55.577c0.04,0.217 -0.038,0.396 -0.13,0.573c-0.059,-0.016 -0.137,0.007 -0.228,0.055c-0.211,-0.293 0.117,-0.602 0.358,-0.628" style="fill:#fbbd2c;"/><path d="M52.377,89.384c-0.033,0.101 -0.137,0.177 -0.269,0.247c-0.045,-0.053 -0.123,-0.029 -0.165,-0.089c-0.088,-0.366 0.441,-0.321 0.434,-0.158" style="fill:#fbbd2c;"/><path d="M22.964,23.243c0.04,0.169 -0.233,0.223 -0.249,0.008c0.087,-0.012 0.161,0.005 0.249,-0.008" style="fill:#fbbd2c;"/><path d="M32.386,45.328c0.429,0.338 -0.755,1.099 -0.943,0.572c-0.128,-0.36 0.659,-0.798 0.943,-0.572" style="fill:#fbbd2c;"/><path d="M22.251,23.196c-0.052,0.126 -0.209,0.084 -0.266,-0.039c0.131,-0.08 0.23,-0.092 0.266,0.039" style="fill:#fbbd2c;"/><path d="M34.682,52.233c0.068,0.239 -0.293,0.346 -0.323,0.555c0.296,1.172 -0.299,2.427 -1.871,2.781c-0.576,-0.296 -0.443,-1.265 -0.128,-1.747c0.334,-0.504 0.945,-0.549 1.493,-0.9c0.319,-0.205 0.454,-0.68 0.829,-0.689" style="fill:#fbbd2c;"/><path d="M31.915,47.14c-0.183,0.066 -0.28,0.159 -0.393,0.251c-0.183,-0.097 0.063,-0.344 0.17,-0.481c0.135,-0.058 0.171,0.107 0.223,0.23" style="fill:#fbbd2c;"/><path d="M31.398,46.375c0.109,0.142 0.029,0.226 0.017,0.333c-0.164,0.123 -0.227,0.025 -0.382,0.129c-0.101,-0.284 0.218,-0.335 0.365,-0.462" style="fill:#fbbd2c;"/><path d="M28.419,44.554c0.106,0.144 -0.112,0.257 -0.22,0.22c-0.036,-0.107 0.087,-0.163 0.22,-0.22" style="fill:#fbbd2c;"/><path d="M22.622,33.477c-0.054,0.3 -0.561,0.3 -0.743,0.308c0.036,-0.349 0.533,-0.359 0.743,-0.308" style="fill:#fbbd2c;"/><path d="M23.544,36.192c0.031,0.103 -0.095,0.16 -0.144,0.242c-0.155,0.078 -0.245,-0.002 -0.37,0.011c-0.017,-0.225 0.379,-0.246 0.514,-0.253" style="fill:#fbbd2c;"/><path d="M21.713,33.696c-0.14,0.326 -0.748,0.179 -1.092,0.364c0.163,-0.307 0.755,-0.248 1.092,-0.364" style="fill:#fbbd2c;"/><path d="M20.424,34.044c-0.519,0.44 -1.546,0.239 -2.273,0.829c-0.119,-0.074 -0.287,-0.03 -0.382,-0.152c0.192,-0.492 0.867,-0.205 1.364,-0.329c0.467,-0.115 0.868,-0.404 1.291,-0.348" style="fill:#fbbd2c;"/><path d="M26.599,50.647c0.064,0.136 -0.05,0.31 -0.198,0.268c-0.086,-0.134 0.047,-0.205 0.198,-0.268" style="fill:#fbbd2c;"/><path d="M31.666,64.399c-0.227,0.396 -0.154,1.09 -0.711,1.254c-0.118,-0.366 0.401,-0.881 0.711,-1.254" style="fill:#fbbd2c;"/><path d="M28.232,59.066c0.071,0.238 -0.086,0.409 -0.323,0.554c-0.04,-0.149 -0.019,-0.277 0.014,-0.4c0.105,-0.053 0.204,-0.103 0.309,-0.154" style="fill:#fbbd2c;"/><path d="M24.828,51.627c0.087,0.134 -0.045,0.202 -0.197,0.266c-0.087,-0.135 0.045,-0.204 0.197,-0.266" style="fill:#fbbd2c;"/><path d="M31.727,67.874c-0.021,1.285 -0.705,2.368 -0.958,3.582c0.023,0.162 0.146,0.095 0.172,0.253c-0.149,0.447 -0.341,0.876 -0.781,1.232c-0.223,-0.141 -0.166,-0.627 -0.231,-0.961c1.062,-1.23 0.778,-2.862 1.798,-4.106" style="fill:#fbbd2c;"/><path d="M28.345,68.173c-0.029,0.194 -0.104,0.374 -0.272,0.527c-0.142,-0.243 0.116,-0.37 0.272,-0.527" style="fill:#fbbd2c;"/><path d="M12.451,48.521c0.02,0.046 0.038,0.093 0.06,0.14c-0.581,0.256 -0.915,0.849 -1.464,1.113c-0.298,0.144 -0.839,0.439 -1.123,0.154c0.571,-0.766 1.473,-1.155 2.527,-1.407" style="fill:#fbbd2c;"/><path d="M90.083,73.932c-0.074,0.046 -0.197,0.077 -0.186,0.149c0.138,-0.004 0.24,0.069 0.392,0.034c-0.041,-0.164 -0.303,0.029 -0.206,-0.183M89.816,73.894c0.048,0.081 0.188,-0.056 0.247,-0.008c-0.03,-0.071 0.111,-0.285 -0.047,-0.26c0.064,0.128 -0.365,0.11 -0.2,0.268M90.142,73.053c0.271,0.093 0.026,0.165 0.042,0.379c0.287,-0.057 0.47,-0.079 0.497,-0.299c-0.12,0.047 -0.307,-0.425 -0.539,-0.08M75.684,26.854c-0.047,-0.11 0.03,-0.181 -0.069,-0.307c0.211,-0.236 0.441,-0.466 0.418,-0.768c-0.299,-0.367 -0.969,0.116 -1.349,-0.077c-0.122,0.233 -0.209,0.48 -0.243,0.742c0.107,0.032 0.302,-0.13 0.342,0.06c-0.082,0.193 -0.182,0.018 -0.331,0.104c0.017,0.482 -0.045,0.799 -0.486,1.199c-0.192,0.566 -1.019,1.449 -0.594,2.1c0.55,-0.129 0.736,-0.672 1.223,-0.936c0.441,-0.24 0.989,-0.216 1.383,-0.566c0.176,-0.15 0.115,-0.398 0.399,-0.534c-0.056,-0.26 -0.199,-0.752 -0.541,-0.81c-0.191,0.132 -0.325,0.13 -0.392,-0.034c0.128,-0.043 0.196,-0.103 0.24,-0.173M76.843,21.704c-1.07,0.139 -1.779,-0.547 -2.872,-0.122c-0.121,0.318 -0.437,0.748 -0.103,1.071c-0.046,0.067 -0.112,0.128 -0.238,0.172c0.059,0.226 0.116,0.272 0.026,0.498c-0.132,-0.066 -0.27,0.279 -0.651,0.374c0.23,0.246 0.062,0.421 0.147,0.777c0.402,0.22 0.767,0.538 1.06,1.008c0.325,-0.117 0.507,0.081 0.816,-0.004c0.038,-0.125 -0.134,-0.31 -0.056,-0.423c0.189,-0.091 0.396,-0.227 0.505,-0.135c0.057,0.24 0.206,0.271 0.336,0.345c0.983,-0.289 0.911,-0.997 1.046,-1.644c0.22,-0.096 0.209,-0.196 0.414,-0.201c0.127,-0.478 0.112,-0.942 -0.278,-1.225c0.122,-0.043 0.188,-0.104 0.165,-0.192c-0.128,-0.047 -0.214,-0.191 -0.317,-0.299M58.462,9.492c-0.104,0.124 -0.298,0.021 -0.261,0.127c0.035,-0.013 0.064,-0.022 0.073,0.022c-0.073,0.045 -0.198,0.075 -0.189,0.149c0.185,-0.012 0.408,-0.118 0.377,-0.298M82.366,29.691c-0.121,0.059 -0.116,0.155 -0.291,0.2c-0.636,-0.167 -1.408,-0.256 -2.153,0.092c-0.039,0.311 -0.243,0.574 -0.339,0.958c-0.416,0.119 -0.332,0.389 -0.496,0.582c0.183,1.089 1.141,1.524 1.98,1.689c0.385,-0.282 0.998,-0.133 1.365,-0.611c1.083,0.049 2.683,-0.425 2.938,0.996c0.161,0.892 -1.081,1.304 -2.105,1.651c-0.428,-0.076 -0.886,-0.087 -1.38,-0.002c-0.089,-0.151 -0.153,-0.212 -0.266,-0.324c-0.059,-0.058 -0.309,-0.16 -0.349,-0.226c-0.091,-0.148 0.029,-0.429 -0.065,-0.589c-0.269,-0.45 -1.261,-0.739 -1.688,-0.419c-0.37,0.278 -0.514,0.911 -0.312,1.453c-0.794,0.251 -1.256,0.908 -2.028,1.108c-0.438,-0.171 -0.816,-0.492 -1.337,-0.482c-0.481,0.254 -0.724,0.574 -1.139,0.844c-0.141,0.107 0.093,0.076 0.08,0.185c-0.132,0.082 -0.233,0.094 -0.27,-0.037c-0.537,0.784 0.093,1.863 0.775,2.224c0.443,-0.504 1.125,-0.447 1.666,-0.645c0.369,0.475 0.403,1.484 -0.164,1.945c0.079,0.624 0.765,0.512 1.017,0.747c0.275,0.266 0.433,0.858 0.715,1.233c0.265,0.343 0.503,0.745 0.856,1.109c0.259,0.822 0.977,1.447 1.353,2.11c0.396,0.18 0.712,0.54 0.994,0.984c0.863,0.156 1.611,0.587 2.399,0.917c0.399,0.719 0.966,1.802 0.453,2.494c-0.76,1.021 -2.174,0.095 -2.835,-0.311c-0.1,-0.419 -0.336,-0.688 -0.462,-1.075c-0.127,-0.403 0.057,-0.892 -0.245,-1.293c-0.237,-0.316 -1.172,-1.029 -1.616,-1.132c-0.491,-0.11 -1.077,0.054 -1.673,0.197c-0.091,0.121 -0.251,0.223 -0.137,0.406c-0.15,0.069 -0.177,-0.154 -0.343,-0.06c-0.191,0.066 -0.192,0.186 -0.246,0.293c-1.189,0.386 -0.681,1.61 -0.825,2.439c1.072,0.905 1.957,2.037 3.064,3.026c-0.095,0.218 -0.091,0.462 -0.356,0.628c0.053,0.269 0.034,0.713 0.432,0.861c0.234,-0.067 0.206,-0.21 0.376,-0.298c0.539,0.735 1.423,1.018 1.73,1.981c0.043,0.159 0.187,0.067 0.289,0.085c0.156,0.869 1.229,1.197 1.715,1.933c0.202,0.125 0.49,0.056 0.7,0.168c0.079,0.186 0.161,0.373 0.24,0.559c-0.224,0.234 -0.647,0.367 -0.832,0.237c-0.162,-0.92 -0.968,-1.586 -1.774,-1.62c-0.315,0.521 -1.272,1.267 -0.662,1.797c0.036,0.105 -0.089,0.16 -0.219,0.219c0.125,0.323 0.262,0.646 0.207,0.915c0.766,0.687 0.83,1.667 1.635,2.481c0.104,0.151 0.04,0.255 0.04,0.376c0.254,0.099 0.229,0.322 0.44,0.578c0.414,0.154 1.156,0.371 1.08,1.053c0.434,0.073 0.148,0.44 0.562,0.576c0.113,0.249 -0.154,0.561 0.129,0.728c0.076,0.159 -0.11,0.24 -0.087,0.38c0.318,0.333 0.229,0.866 0.474,1.242c0.417,0.642 1.135,0.967 1.696,1.598c0.732,0.183 1.362,0.603 2.093,0.788c0.9,0.762 1.841,1.422 2.972,1.656c1.19,1.22 1.095,2.991 0.428,4.315c0.896,0.885 1.746,1.856 2.455,2.927c1.351,0.601 2.092,2.745 3.407,3.536c0.467,0.278 0.911,0.401 1.214,0.764c0.049,0.062 0.031,0.252 0.067,0.305c0.075,0.121 0.352,0.22 0.48,0.389c0.403,0.522 0.696,1.748 -0.348,1.811c-0.207,0.01 -1.522,-0.66 -1.753,-1.011c-0.336,-0.52 -0.342,-1.248 -0.64,-1.779c-0.1,-0.175 -0.308,-0.435 -0.44,-0.576c-0.558,-0.603 -1.264,-1.175 -1.89,-1.619c-0.301,-0.214 -0.451,-0.742 -0.869,-0.992c-0.579,-1.301 -1.507,-1.813 -2.284,-2.672c-0.569,0.046 -1.139,0.152 -1.752,0.294c-0.234,0.056 -0.493,0.252 -0.692,0.282c-0.101,0.018 -0.126,-0.086 -0.217,-0.063c-0.332,0.085 -0.733,0.313 -1.015,0.272c-0.064,-0.014 -0.225,-0.161 -0.324,-0.182c-0.889,-0.174 -2.201,-0.305 -2.52,-1.764c-0.054,-0.237 0.152,-0.503 0.148,-0.808c-0.008,-0.792 -0.449,-1.524 -0.919,-1.984c-0.106,-0.139 0.162,-0.169 0.13,-0.287c-0.352,-0.2 -0.981,0.015 -1.239,0.321c-0.472,-0.004 -1.151,0.177 -1.561,0.313c0.009,-0.133 -0.088,-0.298 -0.057,-0.425c-0.291,-0.014 -0.642,0.103 -0.951,0.126c-0.154,-0.398 -0.476,-0.458 -0.826,-0.612c-0.084,-0.349 -0.277,-0.587 -0.532,-0.648c-0.185,-0.754 -0.751,-1.764 -1.205,-2.35c0.111,-2.763 -1.625,-4.362 -2.42,-6.902c0.196,-0.254 -0.082,-0.648 0.039,-0.925c-0.167,-0.893 -0.882,-1.197 -1.312,-1.734c-0.244,-0.302 -0.462,-0.837 -0.752,-1.159c-0.709,-0.774 -1.679,-1.457 -2.456,-2.191c-0.311,-0.299 -0.707,-0.672 -0.934,-1.014c-0.344,-0.507 -0.506,-0.993 -1.062,-1.29c-0.692,-0.095 -1.196,0.056 -1.909,0.086c0.049,0.044 0.109,0.061 0.198,0.015c-0.083,0.184 -0.224,0.333 -0.448,0.276c-0.457,0.478 -0.522,1.047 -0.702,1.702c-0.102,0.368 -0.262,0.728 -0.354,1.078c-0.199,0.756 -0.17,1.457 -0.162,2.228c-0.609,1.286 -0.756,3.362 0.701,4.238c0.206,0.426 0.591,0.673 0.699,1.184c0.076,0.339 0.049,0.886 0.475,1.237c-0.117,1.58 -0.194,3.173 -1.264,4.467c-0.055,0.117 0.157,0.182 -0.056,0.311c-0.193,-0.274 -0.694,-0.472 -1.045,-0.676c0.044,-0.914 -0.779,-1.457 -0.67,-2.275c-0.476,-1 -1.054,-2.111 -0.9,-2.955c0.395,-1.008 0.12,-2.213 0.123,-3.339c0.231,-0.14 0.373,-0.069 0.517,-0.253c-0.385,-0.732 -0.371,-1.789 -0.761,-2.34c0.139,-0.492 -0.23,-1.527 -0.865,-1.275c-0.146,-0.434 -0.502,-0.913 -0.715,-1.516c-0.145,-0.402 -0.126,-0.922 -0.298,-1.269c-0.112,-0.218 -0.495,-0.758 -0.753,-1.159c-0.312,-0.484 -0.82,-0.976 -1.323,-0.879c-0.191,0.036 -0.887,0.452 -1.15,0.676c-0.536,0.457 -0.743,1.204 -0.737,1.776c0.394,0.304 0.297,0.992 0.267,1.337c-0.818,0.743 -1.586,-0.225 -1.637,-1.176c-0.032,-0.582 0.33,-1.099 0.066,-1.731c-0.153,-0.362 -0.521,-0.43 -0.539,-0.81c-1.063,-0.755 -2.247,-1.241 -3.245,-2.145c-0.43,0.021 -0.702,-0.319 -1.258,-0.005c-0.117,-0.279 -0.453,-0.155 -0.619,0.017c-0.364,0.387 -0.637,1.379 -0.811,1.755c-0.37,0.08 -0.625,-0.119 -1.102,0.201c-0.062,-0.299 -0.36,-0.268 -0.509,-0.599c-0.209,-0.048 -0.29,0.221 -0.363,0.178c-0.17,-0.308 0.197,-0.456 0.335,-0.673c0.267,-0.135 0.067,0.209 0.372,-0.012c0.08,-0.126 -0.085,-0.097 -0.05,-0.26c-0.451,0.164 -0.581,-0.403 -1.041,-0.226c-0.009,-0.112 0.071,-0.196 -0.014,-0.332c-0.838,-0.506 -1.996,-0.268 -2.868,-0.688c-0.663,0.13 -1.542,0.333 -1.876,0.013c-0.244,0.152 -0.367,0.032 -0.611,0.185c-0.817,-0.383 -2.016,0.582 -2.802,0.184c-0.37,-0.187 -0.335,-0.567 -0.872,-0.422c-0.066,-0.61 -0.698,-0.35 -0.995,-0.701c-0.227,0.117 -0.443,0.207 -0.516,-0.03c-1.006,0.807 -1.485,2.132 -2.76,2.595c0,-0.488 0.436,-0.846 0.496,-1.316c0.603,-0.621 1.132,-1.263 1.468,-1.965c-0.071,-0.657 0.63,-1.087 0.921,-1.639c-0.246,-0.27 -0.263,-0.695 -0.03,-0.945c-0.185,-0.502 -0.967,-0.051 -1.005,-0.583c0.429,-0.379 0.832,0.072 1.161,0.224c1.016,-0.847 0.215,-2.84 -0.724,-3.268c-0.129,0.153 -0.33,0.282 -0.434,0.441c-1.017,0.274 -1.289,1.136 -2.282,1.401c-0.144,-0.181 -0.014,-0.275 -0.056,-0.426c0.514,-0.404 1.291,-1.087 1.918,-1.506c0.618,-0.411 1.313,-0.585 1.751,-1.024c0.291,-0.293 0.291,-0.653 0.464,-0.964c-0.142,-0.375 -0.149,-0.824 0.04,-1.207c-0.39,-0.44 0.143,-1.105 -0.367,-1.574c-1.871,0.264 -3.868,0.852 -5.694,1.77c-0.348,0.174 -0.651,0.436 -1.011,0.55c-0.393,0.126 -0.752,0.002 -1.076,0.131c-0.101,0.04 -0.194,0.164 -0.291,0.199c-0.18,0.064 -0.403,0.039 -0.578,0.113c-0.422,0.176 -0.645,0.568 -1.109,0.767c-0.216,0.093 -0.471,0.05 -0.698,0.117c-0.801,0.233 -1.514,0.787 -2.279,1.115c-0.666,0.284 -1.376,0.665 -2.091,1.248c-0.422,0.347 -0.931,1.037 -1.353,1.228c-0.291,0.133 -0.677,0 -0.969,0.079c-0.53,0.144 -1.196,0.716 -1.914,0.937c-0.426,0.131 -0.857,0.457 -1.378,0.73c-0.284,0.151 -0.59,0.203 -0.796,0.332c-0.77,0.492 -1.317,1.204 -2.269,1.565c-0.602,-0.05 -1.19,-0.136 -1.94,0.157c0.154,-0.203 0.53,-0.595 0.739,-0.758c0.358,-0.281 0.957,-0.689 1.388,-0.85c0.318,-0.115 0.649,0.015 0.968,-0.076c0.427,-0.122 0.984,-0.342 1.471,-0.663c0.453,-0.301 0.808,-0.72 1.306,-1.035c0.658,-0.417 1.34,-0.978 2.155,-1.111c0.316,-0.399 1.197,-0.491 1.798,-0.767c0.997,-0.459 2.042,-1.056 2.982,-1.517c1.329,-0.647 2.681,-1.266 4.003,-1.901c0.529,-0.253 1.078,-0.556 1.606,-0.786c0.919,-0.401 2.246,-0.537 3.359,-1.078c1.014,-0.494 1.892,-1.104 2.906,-1.536c0.644,-0.275 1.218,-0.68 1.976,-0.796c0.075,-0.087 0.116,-0.183 0.128,-0.289c-0.036,-0.225 -0.289,0.041 -0.361,-0.106c-0.313,-0.499 0.155,-0.775 -0.144,-1.061c0.481,-0.372 0.72,-0.816 0.746,-1.327c-0.362,-0.27 -0.422,-0.736 -0.59,-1.066c-0.284,-0.024 -0.8,-0.333 -1.021,0.1c-0.497,-0.063 -0.836,0.091 -1.276,-0.053c-1.059,0.54 -1.675,0.192 -2.604,0.652c-0.551,-0.979 -1.423,-0.49 -2.697,-0.15c-0.306,0.081 -0.803,0.168 -1.116,0.32c-0.36,0.172 -0.675,0.479 -1.047,0.626c-0.272,0.106 -0.564,0.05 -0.824,0.12c-0.448,0.121 -0.953,0.362 -1.386,0.565c-1.641,0.763 -3.401,1.806 -5.391,2.467c-0.592,0.199 -1.364,0.316 -1.909,0.37c-0.786,0.076 -1.54,-0.237 -2.319,0.003c-0.758,0.231 -1.857,0.831 -2.321,0.288c0.703,-0.355 1.625,-0.442 2.342,-0.526c0.171,-0.084 -0.059,-0.29 0.015,-0.402c-0.46,-0.335 -1.524,0.299 -1.841,-0.059c-0.002,0.121 -0.147,0.201 -0.325,0.27c-0.513,-0.065 -1.195,0.256 -1.691,0.149c-0.627,0.425 -1.368,0.109 -2.001,0.301c-0.531,0.161 -1.113,0.409 -1.4,-0.05c0.125,-0.173 0.46,-0.161 0.725,-0.354c1.694,0.152 3.662,-0.323 5.495,-0.485c1.08,-0.542 2.267,-0.541 3.42,-0.936c0.138,-0.011 0.22,0.111 0.358,0.104c0.303,-0.054 0.5,-0.288 0.879,-0.429c1.257,-0.266 2.599,-0.731 3.778,-0.83c2.925,-1.724 5.653,-2.643 8.593,-4.488c-0.021,-0.344 0.701,-0.714 0.682,-1.182c-0.359,-0.509 -0.992,0.021 -1.567,0.145c-0.687,-0.498 0.224,-1.48 -0.166,-2.123c-0.31,-0.509 -1.076,-0.485 -1.516,-0.899c0.289,-0.718 -0.74,-0.9 -1.216,-1.214c-0.324,0.247 -0.459,0.216 -0.767,0.261c-0.431,-0.879 -1.264,-0.859 -2.091,-1.069c-0.67,-0.17 -0.981,-0.542 -1.801,-0.25c-0.926,-0.236 -1.824,-0.534 -2.763,-0.74c-1.169,0.158 -2.253,0.13 -3.12,-0.396c-1.692,0.146 -2.916,-0.769 -4.695,-0.418c-0.125,-0.206 -0.519,-0.204 -0.502,-0.433c0.306,-0.108 0.578,-0.143 0.857,-0.193c0.126,0.115 0.282,0.16 0.388,0.318c1.711,0.394 3.616,0.347 5.269,0.871c0.137,-0.066 0.277,-0.134 0.414,-0.202c1.279,0.388 2.613,0.654 4.276,0.171c0.627,0.45 1.468,0.419 2.274,0.471c0.499,-0.106 1.051,-0.462 1.546,-0.476c0.363,-0.008 0.808,0.205 1.286,0.22c0.174,0.005 0.365,-0.092 0.529,-0.088c0.272,0.007 0.547,0.138 0.8,0.117c0.285,-0.026 0.538,-0.186 0.773,-0.096c0.386,0.146 0.748,0.43 1.184,0.552c0.292,0.084 0.708,0.172 1.037,0.229c0.114,0.018 0.386,0.057 0.463,0.056c0.158,-0.006 0.288,-0.195 0.421,-0.037c0.578,-0.553 1.139,-1.288 1.975,-1.531c0.28,-0.487 -0.03,-0.858 -0.175,-1.273c-0.557,-0.153 -1.554,0.695 -1.814,-0.132c0.405,-0.575 1.002,-0.181 1.548,-0.189c0.666,-0.01 1.372,-0.447 2.002,-0.303c0.628,-0.32 1.485,-0.691 1.319,-1.438c0.81,-0.587 1.339,-1.258 1.507,-2.036c-0.417,-0.333 -1.367,-1.026 -0.72,-1.513c-0.339,-0.586 -0.549,-1.06 -0.654,-1.66c-0.057,-0.305 0.128,-0.683 -0.035,-0.945c-0.142,-0.237 -0.507,-0.222 -0.798,-0.403c-0.242,-0.151 -0.551,-0.443 -0.903,-0.632c-0.32,-0.175 -0.81,-0.292 -0.846,-0.943c1.019,-1.256 2.267,0.987 3.217,1.197c0.033,0.167 0.125,0.203 0.192,0.302c1.172,0.354 2.004,1.485 3.24,1.696c0.474,-0.137 0.903,-0.065 1.215,-0.087c0.121,-0.298 -0.253,-0.039 -0.262,-0.323c0.355,-0.363 0.843,-0.189 1.231,-0.49c0.609,-0.471 0.038,-1.197 0.294,-1.783c-0.332,-0.804 -1.052,-1.259 -1.601,-1.82c-0.183,-0.183 -0.268,-0.437 -0.441,-0.575c-0.047,-0.041 -0.135,0.015 -0.192,-0.018c-0.516,-0.284 -0.915,-0.989 -1.341,-1.211c-0.224,-0.118 -0.384,0.017 -0.637,-0.027c-0.036,-0.006 -0.125,-0.163 -0.206,-0.183c-0.111,-0.029 -0.234,0.058 -0.298,0.033c-0.332,-0.132 -0.543,-0.504 -0.851,-0.659c-0.158,-0.653 -0.376,-1.078 -0.192,-1.603c0.443,-0.21 0.887,-0.412 1.223,-0.371c0.045,0.006 1.063,0.51 1.125,0.58c0.13,0.142 0.296,0.492 0.334,0.628c0.07,0.235 -0.102,0.556 -0.026,0.804c0.106,0.368 0.388,0.342 0.613,0.548c0.133,0.125 0.206,0.333 0.325,0.463c0.507,0.562 1.244,0.837 1.75,1.294c0.19,0.17 0.212,0.486 0.521,0.48c0.702,1.094 1.618,1.686 2.45,2.478c1.205,-0.278 2.262,-0.212 3.13,0.277c0.381,-0.172 0.539,-0.059 0.836,-0.239c0.234,-0.134 0.042,-0.395 0.346,-0.509c-0.081,-0.171 -0.202,0.096 -0.249,0.009c-0.091,-0.19 -0.183,-0.382 -0.097,-0.518c0.22,0.137 0.318,0.407 0.438,0.577c0.146,-0.078 0.35,-0.139 0.394,-0.249c-0.085,-0.682 0.492,-1.309 0.369,-2.045c-0.083,-0.485 -0.382,-0.889 -0.593,-1.521c0.32,-0.312 -0.188,-0.868 0.113,-1.184c1.508,0.967 0.743,2.887 1.276,4.407c0.148,0.068 0.308,0.106 0.517,0.031c0.468,0.354 0.762,1.104 1.151,1.641c-0.124,0.456 0.032,1.372 0.282,1.673c0.4,-0.18 0.283,-0.514 0.276,-0.814c0.338,-0.552 0.147,-1.258 0.182,-1.9c0.062,-0.134 0.128,-0.067 0.259,-0.126c-0.578,-0.125 0.253,-0.901 -0.227,-1.248c0.113,-0.224 0.149,-0.469 0.482,-0.629c0.136,0.418 0.296,0.846 -0.157,1.092c0.163,0.043 0.174,-0.109 0.382,-0.131c0.084,0.911 -0.34,1.965 0.517,2.351c-0.143,0.517 0.231,1.175 -0.138,1.708c0.039,0.267 0.398,0.135 0.335,0.345c-0.228,0.163 -0.484,0.316 -0.448,0.558c-0.181,-0.049 -0.508,0.086 -0.498,0.301c0.221,0.392 1.443,0.028 1.794,-0.201c0.249,-0.16 0.489,-0.747 0.969,-1.096c0.244,-0.176 0.541,-0.328 0.715,-0.519c0.313,-0.34 0.487,-0.777 0.968,-1.095c0.025,-0.706 0.846,-1.176 1.407,-1.538c0.033,0.458 -0.462,0.757 -0.411,1.221c-0.094,0.041 -0.121,0.099 -0.119,0.169c-0.758,0.279 -1.035,0.696 -1.41,1.087c0.355,0.146 0.826,0.034 1.163,0.224c0.855,-0.521 0.863,-1.291 1.8,-1.786c0.046,0.135 0.196,0.044 0.286,0.086c0.408,0.757 -0.51,1.124 -0.633,1.722c0.11,0.714 0.776,1.005 1.212,1.5c-0.076,0.804 -0.985,1.362 -1.07,2.165c0.243,0.355 0.841,0.145 1.085,-0.249c0.262,0.117 0.629,-0.109 1.073,-0.411c0.045,0.176 -0.019,0.317 -0.044,0.472c0.198,0.299 0.505,0.028 0.634,0.313c0.219,-0.31 0.495,-0.369 0.945,-0.576c1.022,0.578 2.304,-0.838 3.592,-0.966c0.087,0.194 0.063,0.506 0.265,0.608c0.805,-0.182 1.63,-0.99 2.236,-1.494c-0.109,-0.426 0.02,-0.78 0.282,-1.098c0.385,-0.17 0.444,0.406 0.745,0.427c-0.077,0.627 -0.449,1.169 -0.255,1.878c0.187,-0.026 0.423,-0.164 0.747,-0.308c0.158,-0.054 0.278,-0.018 0.359,0.107c0.603,-0.321 1.236,0.001 1.982,-0.347c0.747,0.119 1.37,0.518 2.202,0.447c1.44,1.281 -0.242,2.514 0.06,3.762c0.86,0.103 2.028,-0.488 2.864,-0.328c1.242,-0.181 2.341,-1.009 3.633,-1.605c0.295,-0.139 0.54,-0.358 0.858,-0.197c2.026,-0.888 3.871,-1.353 5.535,-1.407c0.638,-0.315 1.251,-0.569 1.756,-0.577c0.779,-0.391 1.063,-1.351 1.931,-1.34c0.185,-0.095 0.198,-0.239 0.349,-0.341c0.497,-0.042 0.971,-0.05 1.433,-0.024c0.146,0.482 0.501,0.469 0.684,0.854c-0.096,0.54 -0.787,0.907 -1.166,1.363c-0.19,0.037 -0.39,0.09 -0.579,0.112c-0.822,0.953 -1.909,0.109 -2.628,0.156c-0.386,0.026 -0.741,0.286 -1.076,0.415c-0.914,0.35 -1.778,0.634 -2.644,0.84c-0.217,0.02 0.036,0.174 -0.096,0.218c-0.787,-0.148 -1.311,0.289 -2.07,0.728c-0.025,-0.124 -0.134,-0.056 -0.148,-0.208c-0.353,0.054 -0.629,0.325 -0.952,0.409c-0.184,0.047 -0.323,-0.043 -0.497,0.016c-0.561,0.192 -1.006,0.643 -1.532,0.807c-0.772,0.238 -1.772,0.061 -2.714,0.252c-0.96,0.196 -1.817,0.65 -2.569,0.578c-0.831,0.757 -1.758,1.485 -1.744,2.494c0.329,0.394 0.763,0.162 1.421,0.096c0.337,-0.032 0.532,0.077 0.743,-0.024c0.531,-0.253 0.792,-0.913 1.321,-1.153c0.121,0.029 0.199,0.161 0.359,0.106c-0.044,0.211 -0.507,0.4 -0.253,0.576c-0.149,0.121 -0.191,0.006 -0.301,0.033c-0.145,0.526 -0.534,0.982 -0.948,1.428c0.364,0.569 -0.036,0.951 0.378,1.453c-0.79,0.608 0.005,1.63 0.067,2.341c-0.213,0.569 -0.543,1.07 -0.392,1.55c0.292,0.004 0.43,0.145 0.834,0.046c-0.037,0.139 -0.35,0.194 -0.354,0.342c0.262,0.02 0.172,-0.116 0.52,-0.253c0.035,0.131 0.136,0.118 0.266,0.037c0.072,0.092 -0.072,0.117 -0.046,0.193c0.324,-0.403 1.576,-0.779 2.005,-0.301c0.22,-0.07 0.154,-0.225 0.373,-0.295c0.523,0.209 1.037,-0.197 1.572,-0.429c0.868,-0.383 1.561,-0.082 2.433,-0.172c1.202,0.623 2.292,1.502 3.842,1.343c0.344,0.179 0.929,0.16 0.959,0.773c-1.122,1.27 -2.343,-0.057 -3.642,0.424c-0.053,-0.062 -0.18,0.039 -0.182,-0.137c-0.128,0.097 -0.383,0.022 -0.414,0.204c-0.104,-0.159 -0.368,0.041 -0.495,-0.269c-0.8,-0.005 -1.624,-0.273 -2.138,-0.592c-0.095,-0.062 -0.386,-0.134 -0.499,-0.151c-0.781,-0.112 -1.821,-0.039 -2.715,-0.03c-0.31,-0.119 -0.635,-0.216 -1.016,-0.18c-0.082,-0.061 -0.224,-0.057 -0.155,-0.209c-0.228,0.229 -0.761,0.186 -0.781,-0.071" style="fill:#fbbd2c;"/><path d="M92.201,38.226c-0.125,0.045 -0.178,-0.086 -0.285,-0.083c-0.009,-0.104 0.394,-0.074 0.285,0.083" style="fill:#fbbd2c;"/><path d="M97.598,54.476c-0.179,0.004 -0.871,0.093 -0.822,-0.447c0.474,-0.297 0.691,0.251 0.822,0.447" style="fill:#fbbd2c;"/><path d="M66.842,6.692c0.062,-0.02 0.049,0.034 0.02,0.046c0.023,0.045 0.079,0.004 0.125,-0.005c-0.037,0.118 -0.118,0.328 -0.25,0.294c0.233,0.081 -0.219,0.206 -0.159,0.36c-0.275,-0.124 0.218,-0.37 0.129,-0.574c0.075,-0.031 0.149,-0.063 0.135,-0.121" style="fill:#fbbd2c;"/></g></svg>