<?xml version="1.0" encoding="UTF-8" standalone="no"?><!DOCTYPE svg PUBLIC "-//W3C//DTD SVG 1.1//EN" "http://www.w3.org/Graphics/SVG/1.1/DTD/svg11.dtd"><svg width="100%" height="100%" viewBox="0 0 121 90" version="1.1" xmlns="http://www.w3.org/2000/svg" xmlns:xlink="http://www.w3.org/1999/xlink" xml:space="preserve" style="fill-rule:evenodd;clip-rule:evenodd;stroke-linejoin:round;stroke-miterlimit:1.41421;"><g><path d="M39.12,88.835c0.229,0.066 0.236,-0.078 0.379,-0.094c0.038,-0.246 -0.081,-0.382 -0.17,-0.541c-0.283,0 -0.317,0.473 -0.209,0.635" style="fill:#62c4e0;"/><path d="M45.787,86.478c0.277,0.045 0.317,-0.322 0.258,-0.396c-0.129,-0.017 -0.161,0.061 -0.299,0.041c-0.071,0.175 0.054,0.217 0.041,0.355" style="fill:#62c4e0;"/><path d="M83.096,88.551c0.22,0.056 0.227,-0.089 0.445,-0.029c0.143,-0.338 -0.247,-0.343 -0.49,-0.268c-0.037,0.134 -0.011,0.225 0.045,0.297" style="fill:#62c4e0;"/><path d="M82.005,88.366c0.293,-0.109 0.464,-0.336 0.713,-0.486c0.013,-0.173 -0.149,-0.227 -0.269,-0.311c-0.226,0.085 -0.396,0.228 -0.685,0.25c0.042,0.135 0,0.413 0.241,0.547" style="fill:#62c4e0;"/><path d="M85.688,88.533c0.047,0.005 0.095,0.008 0.145,0.012c-0.006,-0.053 0.036,-0.054 0.08,-0.055c0.003,-0.038 0.008,-0.078 0.011,-0.117c-0.062,0.006 -0.068,-0.028 -0.067,-0.063c-0.048,-0.004 -0.099,-0.006 -0.146,-0.008c0.008,0.048 -0.035,0.051 -0.079,0.053c-0.007,0.038 -0.008,0.077 -0.014,0.116c0.064,-0.007 0.069,0.028 0.07,0.062" style="fill:#62c4e0;"/><path d="M56.451,86.371c0.07,0.006 0.144,0.011 0.218,0.015c0.113,-0.071 0.138,-0.325 0.038,-0.41c-0.093,-0.005 -0.193,-0.01 -0.291,-0.017c-0.121,0.173 -0.06,0.262 0.035,0.412" style="fill:#62c4e0;"/><path d="M58.535,86.208c0.328,0.065 0.316,-0.374 -0.044,-0.298c-0.037,0.134 -0.008,0.224 0.044,0.298" style="fill:#62c4e0;"/><path d="M100.412,88.502c0.23,0.042 0.251,-0.11 0.251,-0.278c-0.148,-0.035 -0.2,0.028 -0.299,0.04c-0.022,0.105 0.076,0.129 0.048,0.238" style="fill:#62c4e0;"/><path d="M80.856,87.234c0.462,-0.237 -0.189,-0.751 -0.612,-0.568c-0.007,0.335 0.327,0.434 0.612,0.568" style="fill:#62c4e0;"/><path d="M75.567,86.85c0.189,0.003 0.194,-0.21 0.103,-0.291c-0.188,-0.005 -0.196,0.207 -0.103,0.291" style="fill:#62c4e0;"/><path d="M57.145,85.296c0.245,0.083 0.261,-0.412 -0.043,-0.298c-0.079,0.162 0.088,0.159 0.043,0.298" style="fill:#62c4e0;"/><path d="M56.274,85.124c0.027,-0.493 0.087,-1.479 -0.495,-1.74c-0.063,0.737 -0.1,1.454 0.495,1.74" style="fill:#62c4e0;"/><path d="M56.964,84.873c0.275,-0.024 0.173,-0.395 0.047,-0.469c-0.272,0.024 -0.173,0.395 -0.047,0.469" style="fill:#62c4e0;"/><path d="M39.456,83.083c-0.159,0.145 -0.137,0.639 0.16,0.656c-0.092,-0.245 -0.191,-0.466 -0.16,-0.656" style="fill:#62c4e0;"/><path d="M39.581,83.325c0.199,-0.103 0,-0.397 -0.02,-0.532c-0.139,-0.002 -0.07,0.19 -0.237,0.161c0.274,0.034 0.175,0.155 0.257,0.371" style="fill:#62c4e0;"/><path d="M94.057,85.399c-0.052,-0.354 -0.461,-0.308 -0.791,-0.226c0,0.32 0.565,0.522 0.791,0.226" style="fill:#62c4e0;"/><path d="M107.409,85.046c-0.064,-0.081 -0.049,-0.221 -0.117,-0.302c-0.801,-0.128 -0.313,0.701 0.117,0.302" style="fill:#62c4e0;"/><path d="M58.734,81.918c-0.097,-0.116 -0.139,-0.27 -0.417,-0.263c-0.069,0.065 -0.116,0.153 -0.106,0.29c0.146,0.136 0.409,0.055 0.523,-0.027" style="fill:#62c4e0;"/><path d="M37.768,80.679c0.152,0.034 0.2,-0.028 0.3,-0.041c-0.028,-0.145 -0.034,-0.305 -0.264,-0.31c-0.04,0.134 -0.168,0.233 -0.036,0.351" style="fill:#62c4e0;"/><path d="M58.259,80.71c0.17,0.029 0.285,0.008 0.375,-0.036c0.079,-0.2 -0.089,-0.232 -0.034,-0.416c-0.214,0.058 -0.386,0.156 -0.341,0.452" style="fill:#62c4e0;"/><path d="M102.734,82.929c0.062,-0.381 -0.592,-0.525 -0.916,-0.468c0.17,0.289 0.497,0.822 0.916,0.468" style="fill:#62c4e0;"/><path d="M18.959,77.806c0.59,-0.259 0.626,-1.034 0.895,-1.593c0.92,-0.739 1.676,-1.779 2.407,-2.681c0.231,-0.284 0.618,-0.494 0.748,-0.839c0.053,-0.139 -0.063,-0.264 -0.034,-0.414c0.065,-0.312 0.365,-0.358 0.579,-0.612c0.404,-0.482 0.748,-1.131 1.189,-1.576c-1.234,0.621 -1.972,1.699 -2.781,2.715c-0.059,0.222 -0.015,0.376 0.101,0.479c-0.371,0.456 -0.856,1.053 -1.347,1.683c-0.474,0.611 -0.914,1.367 -1.354,1.744c-0.352,0.298 -1.04,0.504 -0.403,1.094" style="fill:#62c4e0;"/><path d="M61.027,78.878c-1.184,-0.002 -0.64,1.223 0.333,1.139c0.432,-0.338 -0.073,-0.913 -0.333,-1.139" style="fill:#62c4e0;"/><path d="M101.235,82.366c-0.667,-0.406 -1.294,-1.118 -2.497,-0.978c0.208,0.729 1.48,0.978 2.497,0.978" style="fill:#62c4e0;"/><path d="M59.199,79.413c0.073,0.004 0.148,0.009 0.222,0.013c0.035,-0.152 -0.002,-0.253 -0.199,-0.246c-0.005,0.075 -0.013,0.155 -0.023,0.233" style="fill:#62c4e0;"/><path d="M34.331,76.46c0.164,-0.039 0.276,-0.13 0.256,-0.338c-0.322,-0.101 -0.38,0.213 -0.256,0.338" style="fill:#62c4e0;"/><path d="M107.805,75.414c0.049,0.009 0.055,-0.021 0.092,-0.02c0.017,-0.079 -0.023,-0.12 -0.109,-0.13c-0.07,0.047 0,0.097 0.017,0.15" style="fill:#62c4e0;"/><path d="M86.229,79.197c-0.063,-0.213 -0.223,-0.359 -0.477,-0.442c-0.027,0.275 0.13,0.423 0.477,0.442" style="fill:#62c4e0;"/><path d="M84.193,76.539c0.179,-0.139 0.072,-0.411 -0.021,-0.532c-0.224,-0.056 -0.228,0.089 -0.448,0.033c-0.052,0.308 0.103,0.475 0.469,0.499" style="fill:#62c4e0;"/><path d="M84.43,75.611c-0.085,-0.213 -0.307,-0.336 -0.626,-0.392c0.03,0.252 0.382,0.286 0.626,0.392" style="fill:#62c4e0;"/><path d="M53.701,73.59c0.196,0.057 0.158,-0.105 0.304,-0.096c-0.025,-0.256 -0.092,-0.485 -0.231,-0.663c-0.485,0.049 -0.256,0.564 -0.073,0.759" style="fill:#62c4e0;"/><path d="M73.677,74.355c-0.156,-0.471 -0.998,-1.278 -1.63,-0.746c-0.035,0.705 1.102,0.555 1.63,0.746" style="fill:#62c4e0;"/><path d="M37.861,69.844c0.238,-0.261 -0.025,-0.584 0.091,-0.938c-0.24,-0.182 -0.448,-0.388 -0.761,-0.52c-0.532,0.178 -0.67,0.685 -0.49,1.21c0.257,0.162 0.879,0.439 1.16,0.248" style="fill:#62c4e0;"/><path d="M78.268,72.048c0.146,-0.224 -0.526,-0.72 -0.923,-0.411c0.044,0.317 0.414,0.413 0.923,0.411" style="fill:#62c4e0;"/><path d="M28.275,68.011c0.495,-0.47 0.407,-1.103 0.619,-1.788c-0.672,0.208 -1.223,1.133 -0.986,1.766c0.122,0.008 0.244,0.016 0.367,0.022" style="fill:#62c4e0;"/><path d="M70.427,70.503c0.052,-0.218 -0.303,-0.323 -0.498,-0.208c0.002,0.183 0.273,0.345 0.498,0.208" style="fill:#62c4e0;"/><path d="M78.823,70.904c0.017,-0.488 -0.928,-0.714 -1.43,-0.501c-0.015,0.093 0.011,0.226 -0.097,0.228c0.173,0.368 1.079,0.554 1.527,0.273" style="fill:#62c4e0;"/><path d="M108.087,71.884c0.021,-0.104 -0.065,-0.098 -0.148,-0.082c0.026,0.043 0.052,0.089 0.148,0.082" style="fill:#62c4e0;"/><path d="M107.85,71.772c-0.157,-0.061 -0.173,-0.217 -0.443,-0.201c-0.018,0.179 0.286,0.14 0.443,0.201" style="fill:#62c4e0;"/><path d="M97.978,68.729c-0.327,-0.034 -0.681,-0.274 -1.024,-0.121c0.106,0.193 0.941,0.41 1.024,0.121" style="fill:#62c4e0;"/><path d="M84.427,67.302c0.124,0.008 0.244,0.015 0.368,0.023c0.014,-0.134 -0.416,-0.345 -0.368,-0.023" style="fill:#62c4e0;"/><path d="M19.404,62.63c0.202,-0.044 0.37,-0.126 0.4,-0.327c-0.238,0.011 -0.436,0.062 -0.4,0.327" style="fill:#62c4e0;"/><path d="M23.011,62.03c0.204,0.009 0.202,-0.267 0.111,-0.348c-0.099,0.015 -0.126,0.096 -0.233,0.104c-0.07,0.156 0.137,0.127 0.122,0.244" style="fill:#62c4e0;"/><path d="M30.914,62.166c0.189,-0.175 0.277,-0.571 0.076,-0.764c-0.348,-0.048 -0.563,0.031 -0.685,0.194c0,0.329 0.117,0.578 0.609,0.57" style="fill:#62c4e0;"/><path d="M14.884,45.971c0.157,-0.093 0.203,-0.573 -0.173,-0.482c-0.04,0.226 0.128,0.314 0.173,0.482" style="fill:#62c4e0;"/><path d="M91.77,49.666c0.115,-0.044 0.243,-0.075 0.245,-0.221c-0.152,-0.035 -0.201,0.028 -0.302,0.04c0.036,0.05 0.071,0.1 0.057,0.181" style="fill:#62c4e0;"/><path d="M113.07,49.038c-0.669,-0.296 -1.367,0.019 -2.013,0.111c0.733,0.179 1.668,0.547 2.013,-0.111" style="fill:#62c4e0;"/><path d="M95.479,47.305c0.1,-0.017 0.126,-0.099 0.233,-0.106c-0.007,-0.104 -0.114,-0.141 -0.284,-0.135c-0.044,0.12 0.035,0.157 0.051,0.241" style="fill:#62c4e0;"/><path d="M83.488,42.024c0.251,-0.025 0.417,-0.128 0.409,-0.388c-0.179,0.012 -0.15,-0.116 -0.364,-0.081c-0.037,0.049 -0.071,0.1 -0.155,0.107c-0.037,0.171 0.148,0.191 0.11,0.362" style="fill:#62c4e0;"/><path d="M78.938,41.681c0.002,-0.057 0.008,-0.115 0.015,-0.175c-0.119,-0.116 -0.216,0.013 -0.374,0.037c-0.001,0.128 0.174,0.136 0.359,0.138" style="fill:#62c4e0;"/><path d="M78.751,40.55c0.002,-0.566 -0.944,-0.485 -1.105,-0.067c0.127,0.465 0.818,0.286 1.105,0.067" style="fill:#62c4e0;"/><path d="M79.741,39.493c0.097,0.007 0.196,0.012 0.293,0.018c0.045,-0.12 -0.035,-0.158 -0.049,-0.241c-0.112,0.048 -0.291,0.031 -0.244,0.223" style="fill:#62c4e0;"/><path d="M80.042,37.92c-0.027,-0.238 -0.492,-0.232 -0.522,0.029c0.147,0.134 0.41,0.053 0.522,-0.029" style="fill:#62c4e0;"/><path d="M95.623,39.002c0.21,0.024 0.401,0.033 0.385,-0.152c-0.098,-0.096 -0.379,-0.031 -0.385,0.152" style="fill:#62c4e0;"/><path d="M76.857,37.192c-0.112,-0.315 -0.595,-0.264 -0.744,0.015c0.218,0.094 0.501,0.039 0.744,-0.015" style="fill:#62c4e0;"/><path d="M74.515,36.93c0.138,0.122 0.53,-0.057 0.543,-0.26c-0.329,-0.054 -0.415,0.12 -0.543,0.26" style="fill:#62c4e0;"/><path d="M73.317,36.327c-0.23,-0.065 -0.237,0.078 -0.38,0.094c0.033,0.219 0.39,0.095 0.38,-0.094" style="fill:#62c4e0;"/><path d="M75.212,36.619c0.221,0.056 0.272,-0.042 0.446,-0.03c-0.011,-0.096 0.082,-0.098 0.092,-0.173c0.011,-0.225 -0.266,-0.255 -0.568,-0.268c-0.144,0.105 -0.01,0.328 0.03,0.471" style="fill:#62c4e0;"/><path d="M78.936,35.613c-0.1,-0.006 -0.197,-0.013 -0.292,-0.02c-0.082,0.223 0.327,0.249 0.292,0.02" style="fill:#62c4e0;"/><path d="M78.405,34.991c-0.432,0.087 -1.179,-0.117 -1.217,0.339c0.499,0.215 1.034,-0.051 1.217,-0.339" style="fill:#62c4e0;"/><path d="M75.72,35.177c0.215,0.008 0.481,0.064 0.596,-0.02c-0.015,-0.144 0.147,-0.12 0.105,-0.29c-0.362,-0.129 -0.722,-0.082 -0.701,0.31" style="fill:#62c4e0;"/><path d="M79.356,35.108c-0.006,-0.068 0.023,-0.103 0.085,-0.114c0.048,-0.216 -0.307,-0.321 -0.5,-0.205c-0.046,0.232 0.114,0.322 0.415,0.319" style="fill:#62c4e0;"/><path d="M45.395,32.83c0.035,-0.134 0.007,-0.226 -0.048,-0.296c-0.111,0.043 -0.287,0.027 -0.244,0.22c0.064,0.049 0.161,0.073 0.292,0.076" style="fill:#62c4e0;"/><path d="M104.668,35.789c0.172,0.029 0.284,0.009 0.372,-0.035c0.006,-0.149 -0.084,-0.233 -0.273,-0.252c0.021,0.142 -0.143,0.118 -0.099,0.287" style="fill:#62c4e0;"/><path d="M72.175,33.603c0.101,-0.158 0.114,-0.297 0.045,-0.468c-0.49,-0.161 -0.932,0.054 -1.005,0.468c0.231,0.134 0.783,0.116 0.96,0" style="fill:#62c4e0;"/><path d="M22.37,28.402c0.085,0.014 0.131,-0.006 0.154,-0.052c-0.252,-1.031 0.143,-2.503 -1.449,-2.621c-1.057,1.129 0.459,2.133 1.295,2.673" style="fill:#62c4e0;"/><path d="M29.311,28.536c0.155,-0.193 -0.293,-0.692 -0.531,-0.623c-0.014,0.338 0.286,0.461 0.531,0.623" style="fill:#62c4e0;"/><path d="M105.182,31.284c-0.518,-0.385 -1.249,0.051 -1.647,0.194c0.558,0.453 1.25,0.051 1.647,-0.194" style="fill:#62c4e0;"/><path d="M78.382,29.156c0.389,0.061 0.516,-0.118 0.69,-0.253c-0.179,-0.34 -0.926,0.008 -0.69,0.253" style="fill:#62c4e0;"/><path d="M93.556,29.859c0.353,-0.012 0.598,-0.127 0.836,-0.243c-0.238,-0.134 -0.706,0.063 -0.836,0.243" style="fill:#62c4e0;"/><path d="M94.625,29.511c0.072,0.005 0.148,0.01 0.222,0.015c0.065,-0.065 0.111,-0.151 0.101,-0.289c-0.267,-0.058 -0.333,0.073 -0.323,0.274" style="fill:#62c4e0;"/><path d="M79.945,28.309c0.307,0.054 0.516,0.013 0.469,-0.265c-0.148,-0.01 -0.295,-0.016 -0.442,-0.027c-0.01,0.097 -0.017,0.193 -0.027,0.292" style="fill:#62c4e0;"/><path d="M25.627,24.597c0.329,0.063 0.312,-0.375 -0.046,-0.299c-0.036,0.135 -0.01,0.228 0.046,0.299" style="fill:#62c4e0;"/><path d="M37.133,24.953c0.068,-0.021 0.139,-0.041 0.161,-0.108c0.639,-1.927 -0.401,-3.552 -0.541,-5.098c-0.023,-0.269 0.162,-0.527 -0.072,-0.774c-0.363,0.403 0.045,0.926 0.003,1.474c-0.123,1.703 -0.199,3.213 0.449,4.506" style="fill:#62c4e0;"/><path d="M74.525,26.207c0.314,-0.03 0.511,-0.165 0.698,-0.312c-0.054,-0.056 -0.066,-0.137 -0.051,-0.238c-0.506,-0.113 -0.743,0.307 -0.647,0.55" style="fill:#62c4e0;"/><path d="M22.93,21.893c0.251,-0.012 0.171,-0.298 -0.125,-0.241c0.029,0.089 0.094,0.155 0.125,0.241" style="fill:#62c4e0;"/><path d="M57.655,23.925c0.688,0.309 1.061,-1.091 0.255,-1.103c-0.551,-0.009 -0.711,0.9 -0.255,1.103" style="fill:#62c4e0;"/><path d="M22.48,21.218c0.141,-0.089 -0.004,-0.229 -0.198,-0.248c-0.038,0.155 0.001,0.254 0.198,0.248" style="fill:#62c4e0;"/><path d="M68.161,23.926c0.357,-0.008 0.304,-0.398 0.568,-0.494c1.73,-0.089 3.09,-1.074 2.706,-2.719c-0.709,-0.47 -1.936,-0.028 -2.411,0.44c-0.495,0.483 -0.217,1.096 -0.39,1.74c-0.102,0.382 -0.667,0.666 -0.473,1.033" style="fill:#62c4e0;"/><path d="M59.829,22.878c-0.012,-0.198 0.06,-0.322 0.121,-0.462c-0.226,-0.148 -0.424,0.171 -0.55,0.323c-0.009,0.148 0.233,0.13 0.429,0.139" style="fill:#62c4e0;"/><path d="M58.524,22.62c0.247,0.066 0.316,-0.042 0.454,-0.085c0.075,-0.199 -0.088,-0.233 -0.035,-0.416c-0.437,-0.005 -0.331,0.323 -0.419,0.501" style="fill:#62c4e0;"/><path d="M54.457,20.308c0.252,0.058 0.285,-0.186 0.176,-0.279c-0.161,-0.003 -0.172,0.133 -0.176,0.279" style="fill:#62c4e0;"/><path d="M36.456,18.255c0.373,-0.152 0.098,-0.642 0.005,-0.828c-0.447,0.146 -0.187,0.639 -0.005,0.828" style="fill:#62c4e0;"/><path d="M40.597,18.272c0.154,-0.005 0.163,-0.145 0.244,-0.219c0.021,-0.177 -0.135,-0.235 -0.188,-0.362c-0.308,0.055 -0.118,0.449 -0.056,0.581" style="fill:#62c4e0;"/><path d="M36.254,17.297c0.361,-0.241 -0.168,-0.786 -0.107,-1.183c-0.323,0.257 0.078,0.818 0.107,1.183" style="fill:#62c4e0;"/><path d="M36.016,15.928c0.308,-0.647 -0.523,-1.585 -0.128,-2.484c-0.165,-0.086 -0.199,-0.263 -0.414,-0.319c-0.551,0.344 0.2,0.911 0.305,1.435c0.101,0.491 -0.067,0.972 0.237,1.368" style="fill:#62c4e0;"/><path d="M61.628,16.569c0.22,0.019 0.391,-0.148 0.25,-0.278c-0.226,-0.04 -0.247,0.111 -0.25,0.278" style="fill:#62c4e0;"/><path d="M82.817,17.056c0.407,-0.35 1.373,-0.502 1.292,-1.1c-0.554,0.007 -0.961,0.675 -1.292,1.1" style="fill:#62c4e0;"/><path d="M73.799,15.439c0.358,-0.012 0.502,-0.217 0.568,-0.499c-0.221,0.009 -0.382,0.071 -0.533,0.143c-0.011,0.118 -0.021,0.239 -0.035,0.356" style="fill:#62c4e0;"/><path d="M61.976,14.529c0.226,0.043 0.248,-0.109 0.252,-0.279c-0.23,-0.04 -0.252,0.111 -0.252,0.279" style="fill:#62c4e0;"/><path d="M87.508,15.99c1.708,-0.433 2.786,-1.455 4.274,-2.094c0.229,-0.027 0.206,0.115 0.435,0.088c0.515,-0.288 0.989,-0.62 1.223,-1.162c-0.308,-0.167 -0.929,0.044 -1.413,0.087c-1.07,1.434 -3.41,1.685 -4.519,3.081" style="fill:#62c4e0;"/><path d="M86.065,12.602c0.244,-0.09 0.444,-0.226 0.559,-0.44c-0.411,-0.058 -0.434,0.236 -0.559,0.44" style="fill:#62c4e0;"/><path d="M51.068,3.482c0.073,0.006 0.145,0.006 0.22,0.012c0.026,-0.647 0.637,-1.161 0.69,-1.784c0.031,-0.337 0.135,-0.957 -0.404,-1.143c-0.717,0.806 -0.744,1.809 -0.506,2.915" style="fill:#62c4e0;"/><path d="M59.343,68.815c0.124,0.579 -0.498,0.932 -0.587,1.496c-0.082,0.507 0.249,1.031 -0.002,1.532c-0.109,0.215 -0.471,0.239 -0.498,0.557c-0.379,0.032 -1.119,0.052 -1.381,-0.263c0.072,-0.228 -0.006,-0.358 -0.257,-0.368c0.008,0.137 -0.035,0.224 -0.104,0.289c-0.172,-0.013 -0.228,0.086 -0.448,0.03c-0.202,0.28 -0.387,0.581 -0.804,0.658c-0.653,-0.175 -0.37,-0.986 -0.836,-1.29c0.245,-0.197 0.529,-0.359 0.862,-0.477c0.101,0.095 -0.012,0.337 0.264,0.312c0.212,-0.14 -0.071,-0.182 -0.039,-0.357c0.654,-0.138 1.045,-0.302 1.343,-0.859c0.656,-0.371 1.38,-1.462 2.487,-1.26M52.823,74.245c-0.007,0.245 -0.15,0.269 -0.044,0.468c-0.57,0.28 -1.202,0.416 -1.79,0.127c0.009,0.132 -0.039,0.218 -0.171,0.224c-0.129,-0.112 -0.37,-0.148 -0.572,-0.213c-0.396,-1.088 -1.702,-1.556 -1.726,-2.758c0.36,-0.221 0.761,-0.667 1.375,-0.445c0.068,-0.064 0.11,-0.151 0.101,-0.288c0.335,-0.018 0.426,0.027 0.68,-0.136c-0.161,-0.105 0.228,-0.355 0.145,-0.756c0.459,0.146 0.601,-0.075 1.123,-0.109c0.515,0.324 1.138,0.575 1.93,0.708c0.018,0.354 0.385,0.468 0.439,0.795c-0.146,0.077 -0.487,-0.027 -0.6,0.081c-0.018,0.213 -0.085,0.459 0.096,0.536c0.353,-0.021 0.476,0.114 0.644,0.218c0.15,1.051 -0.836,1.208 -1.63,1.548M23.863,60.904c0.109,-0.141 -0.136,-0.295 0.029,-0.293c0,0.033 0.005,0.069 0.066,0.064c0.022,-0.088 -0.004,-0.219 0.097,-0.231c0.087,0.183 0.068,0.43 -0.192,0.46M53.07,89.064c0.045,-0.205 0.099,-0.421 0.144,-0.651c-0.178,0.012 -0.147,-0.116 -0.359,-0.084c-0.122,-0.358 0.093,-0.716 0.03,-1.057c-0.037,-0.193 -0.234,-0.299 -0.248,-0.488c-0.052,-0.61 0.313,-1.187 0.243,-1.752c-0.101,-0.831 -0.884,-1.742 -1.14,-2.721c-0.263,-1.003 -0.121,-1.981 -0.626,-2.692c0.563,-1.051 1.03,-2.192 2.39,-2.503c0.706,0.193 0.632,0.692 0.903,1.353c0.142,0.34 0.395,0.493 0.375,0.73c-0.053,0.598 -0.795,1.067 -0.827,1.656c0.103,0.112 0.324,0.143 0.34,0.315c0.258,-0.108 0.258,-0.619 0.631,-0.43c0.081,-0.183 -0.096,-0.189 -0.116,-0.302c0.621,-0.314 1.021,-0.839 1.392,-1.387c0.963,0.172 1.254,-0.342 2.153,-0.102c0.385,-0.966 2.187,-0.52 3.178,-0.69c0.642,-0.392 1.133,-0.874 1.861,-0.886c0.162,0.284 0.424,0.375 0.514,0.799c0.165,-0.081 0.072,-0.403 0.265,-0.456c0.172,0.249 -0.061,0.204 -0.058,0.588c0.198,-0.006 0.237,0.094 0.201,0.245c0.157,0.043 0.115,-0.104 0.232,-0.102c-0.364,0.444 -0.183,1.785 0.688,2.045c0.025,0.237 -0.218,0.224 -0.192,0.461c0.568,0.441 0.305,1.075 0.279,1.666c-0.035,0.972 0.746,1.549 1.098,2.425c1.492,0.971 3.263,1.751 3.895,3.306c0.361,0.238 0.628,0.683 1.208,0.714l0.13,0c0.071,-0.005 0.144,-0.013 0.223,-0.029c1.089,-1.501 -1.355,-2.26 -1.418,-3.682c-0.111,-0.031 -0.045,-0.188 -0.285,-0.134c0.06,-0.155 -0.18,-0.38 0.049,-0.469c-0.271,-0.048 -0.145,-0.372 -0.629,-0.393c-0.445,-0.778 -1.252,-1.493 -1.962,-1.889c-0.134,-0.075 -0.385,-0.333 -0.472,-0.441c-0.576,-0.724 -1.047,-1.758 -1.522,-2.628c-0.327,-0.271 -0.633,-0.552 -0.797,-0.934c-0.124,-0.059 -0.199,-0.198 -0.361,-0.08c0.182,-0.299 -0.166,-0.805 -0.522,-0.741c0.016,-0.138 0.146,-0.163 0.111,-0.346c-0.574,-0.567 -1.112,-1.293 -1.052,-2.128c0.397,-0.138 0.636,-0.423 1.101,-0.638c-0.069,-0.447 0.338,-0.449 0.508,-0.676c1.56,-0.169 2.665,0.621 3.341,1.385c-0.165,0.464 0.365,1.016 -0.075,1.526c0.658,1.038 0.895,2.75 2.935,2.539c1.284,-0.132 1.162,-1.477 1.067,-2.585c-0.334,-0.392 -0.598,-0.833 -0.758,-1.344c-0.248,-0.039 -0.365,-0.079 -0.577,-0.153c-0.111,-0.038 -0.382,-0.248 -0.492,-0.265c-0.249,-0.041 -0.558,0.165 -0.825,0.123c-0.751,-0.112 -1.677,-0.985 -1.481,-1.503c0.169,-0.453 0.936,-0.795 1.777,-0.775c-0.099,-0.856 0.529,-1.515 0.376,-2.334c-0.467,-0.374 -1.103,-0.635 -1.37,-1.145c0.072,-0.552 0.37,-0.892 0.505,-1.382c0.067,-0.174 0.153,0.064 0.295,0.016c0.034,-0.15 -0.003,-0.252 -0.2,-0.247c0.76,-0.777 2.55,-0.515 3.404,0.033c-0.433,0.594 0.015,1.237 0.041,1.831c0.839,0.207 2.21,-0.09 2.518,-0.788c0.878,-0.127 1.104,0.579 1.555,0.745c0.511,0.187 1.387,0.148 2.044,0.301c0.601,0.144 1.272,0.245 1.951,0.474c1.242,-0.016 2.473,0.483 3.564,0.636c0.458,0.325 1.113,0.516 1.86,0.644c0.685,0.792 1.667,1.381 2.54,2.042c1.18,0.155 2.941,0.358 3.586,-0.366c0.954,-1.068 -1.057,-2.148 -1.962,-2.654c-0.615,0.033 -1.105,-0.111 -1.692,-0.106c-0.611,0.007 -1.164,0.341 -1.867,0.179c-0.55,-0.128 -2.015,-0.809 -2.397,-1.209c-0.416,-0.44 -0.516,-1.065 -0.649,-1.691c0.115,-0.129 0.162,-0.318 0.468,-0.264c0.013,-0.17 -0.299,-0.12 -0.264,-0.311c-0.017,-0.21 0.143,-0.249 0.26,-0.338c-0.131,-1.281 1.783,-1.183 2.815,-1.595c0.457,0.192 0.93,0.366 1.408,0.533c-1.51,-1.903 -2.201,-4.261 -1.248,-6.448c0.228,-0.524 0.517,-0.998 0.864,-1.433c0.035,-0.883 0.108,-1.765 0.203,-2.635c0.053,-0.474 0.643,-0.754 1.177,-0.733c0.388,-0.269 0.867,-0.464 1.373,-0.717c0.44,-0.217 0.835,-0.484 1.252,-0.688c0.908,-0.442 1.858,-0.642 2.9,-0.882c1.387,-1.008 4.091,-1.822 6.059,-0.686c0.684,0.06 1.224,0.359 1.969,0.298c0.495,-0.038 1.211,-0.241 1.916,0.061c2.051,-0.629 4.145,-1.216 5.295,-2.679c0.124,-0.09 0.33,0.097 0.384,-0.152c-0.467,-0.1 -1.012,-0.525 -1.475,-0.801c-1.201,0.338 -2.377,-0.284 -3.411,0.086c-1.602,-0.141 -3.405,-0.342 -4.449,0.079c-1.137,0.711 -2.903,0.834 -4.409,1.198c-0.062,0.273 0.107,0.387 -0.054,0.588c-1.194,-0.138 -2.604,0.219 -3.555,0.015c-0.584,0.294 -2.168,0.268 -2.181,-0.428c-0.657,-0.004 -1.491,-0.195 -2.419,-0.212c-0.615,-0.008 -1.305,0.181 -1.863,0.122c-0.35,-0.037 -1.286,-0.235 -1.96,-0.357c-0.819,-0.146 -1.761,-0.482 -1.901,-1.001c-0.056,-0.201 0.123,-1.011 0.278,-1.339c0.319,-0.671 1.21,-1.11 1.979,-1.291c0.62,0.282 1.487,-0.032 1.937,-0.174c0.548,-1.037 -1.165,-1.471 -2.471,-1.214c-0.797,0.156 -1.293,0.679 -2.281,0.624c-0.57,-0.031 -0.861,-0.368 -1.379,-0.261c-1.592,-0.792 -2.888,-1.786 -4.643,-2.467c-0.208,-0.423 -0.811,-0.579 -0.695,-1.224c-0.434,-0.024 -0.456,-0.389 -0.312,-0.607c0.318,-0.48 1.499,-1.066 1.909,-1.356c-0.098,-0.388 -0.502,-0.568 -0.33,-1.139c-0.437,0.038 -0.557,-0.265 -1.083,-0.304c-0.177,-0.186 0.139,-0.352 0.041,-0.41c-0.506,-0.064 -0.503,0.339 -0.722,0.547c-0.032,0.3 0.322,-0.005 0.188,0.365c-0.124,0.118 -0.174,-0.054 -0.374,0.035c-0.028,-0.49 -0.856,-0.437 -0.867,-0.938c-0.16,0.025 -0.227,0.132 -0.458,0.093c-1.133,-0.652 -1.446,-1.859 -2.483,-2.574c-0.19,-0.686 -0.393,-1.607 -1.007,-1.829c0.071,-0.286 -0.157,-0.367 -0.085,-0.652c-0.96,-0.672 -0.32,-2.152 -1.281,-2.791c-0.451,-0.301 -0.943,-0.138 -1.04,-0.712c-0.855,0.135 -0.851,-0.567 -1.481,-0.741c0.03,-0.259 0.034,-0.498 -0.323,-0.491c0.533,-1.242 2.045,-2.135 1.971,-3.531c-0.651,0.158 -0.893,0.699 -1.493,0.909c-0.501,0.789 -1.076,1.512 -1.831,2.067c-0.92,0.145 -1.11,0.968 -1.69,1.426c-0.5,-0.153 -1.078,-0.031 -1.286,0.275c-0.778,-0.015 -0.595,-0.922 -1.331,-0.789c-0.273,0.542 0.551,0.786 0.932,1.06c-0.579,1.262 -3.683,1.128 -4.768,0.352c0.132,-0.176 0.199,-0.413 0.352,-0.566c-0.187,-1.076 0.821,-1.621 0.63,-2.672c-0.317,-0.085 -0.374,0.075 -0.599,0.08c-0.259,0.632 -0.753,1.612 -0.971,2.356c-0.213,0.733 -0.068,1.465 -0.418,2.036c-0.234,0.377 -0.717,0.494 -1.037,0.762c-0.581,-0.015 -1.185,0.122 -1.596,0.431c-0.801,-0.24 -1.403,0.494 -2.31,0.152c-0.666,-1.907 -0.969,-4.041 -0.736,-6.116c0.045,-0.395 0.23,-0.776 0.19,-1.164c-0.048,-0.422 -0.408,-0.732 -0.415,-1.086c0.001,-0.114 0.115,-0.242 0.111,-0.347c-0.013,-0.202 -0.167,-0.409 -0.164,-0.601c0.007,-0.468 0.412,-0.811 0.426,-1.329c0.006,-0.241 -0.189,-0.477 -0.228,-0.721c-0.122,-0.851 0.232,-1.729 0.253,-2.577c0.017,-0.74 0.14,-1.555 0.532,-2.44c0.234,-0.524 0.881,-1.243 0.909,-1.713c0.018,-0.329 -0.37,-0.66 -0.423,-0.969c-0.099,-0.564 0.307,-1.397 0.211,-2.168c-0.056,-0.458 0.144,-0.982 0.229,-1.577c0.044,-0.325 -0.052,-0.641 0.009,-0.883c0.239,-0.907 0.896,-1.672 0.859,-2.719c-0.395,-0.566 -0.827,-1.111 -0.848,-1.938c-0.187,0.217 -0.505,0.712 -0.612,0.966c-0.179,0.437 -0.404,1.155 -0.38,1.626c0.017,0.347 0.372,0.625 0.423,0.969c0.068,0.456 0.079,1.065 -0.086,1.645c-0.154,0.538 -0.523,1.018 -0.674,1.607c-0.201,0.777 -0.579,1.619 -0.314,2.456c-0.361,0.439 -0.003,1.322 -0.046,2.001c-0.074,1.118 -0.305,2.329 -0.406,3.39c-0.143,1.509 -0.237,3.027 -0.366,4.52c-0.051,0.591 -0.157,1.224 -0.178,1.813c-0.037,1.027 0.506,2.363 0.388,3.617c-0.11,1.148 -0.448,2.204 -0.474,3.331c-0.016,0.716 -0.247,1.404 0.011,2.18c-0.077,0.1 -0.183,0.171 -0.317,0.218c-0.323,0.036 -0.103,-0.297 -0.341,-0.316c-0.839,-0.143 -0.95,0.398 -1.498,0.202c-0.236,0.59 -0.702,0.964 -1.371,1.152c-0.559,-0.263 -1.218,-0.17 -1.754,-0.227c-0.183,-0.269 -0.88,-0.673 -0.418,-1.027c-0.354,-0.462 -0.336,-0.841 -0.766,-1.226c0.141,-1.204 -0.657,-1.69 -0.549,-2.744c-1.61,-0.221 -1.432,-1.226 -1.672,-2.579c-0.055,-0.322 -0.21,-0.833 -0.178,-1.19c0.033,-0.405 0.275,-0.811 0.267,-1.221c-0.006,-0.299 -0.241,-0.564 -0.29,-0.841c-0.079,-0.474 -0.033,-1.043 0.003,-1.533c0.129,-1.843 0.565,-3.893 0.366,-6.046c-0.057,-0.643 -0.32,-1.43 -0.548,-1.978c-0.324,-0.79 -1.151,-1.422 -1.259,-2.258c-0.1,-0.814 0.103,-2.078 -0.878,-2.353c-0.091,0.798 0.294,1.721 0.576,2.449c-0.022,0.196 -0.422,0.035 -0.534,0.146c-0.696,-0.34 -0.43,-1.583 -1.085,-1.778c0.164,-0.037 0.191,-0.204 0.187,-0.399c-0.365,-0.48 -0.307,-1.249 -0.723,-1.695c0.226,-0.746 -0.599,-1.369 -0.688,-2.044c-0.072,-0.573 -0.061,-1.22 -0.827,-1.349c-0.166,0.179 0.03,0.498 -0.083,0.82c1.13,1.598 1.567,3.67 2.347,5.507c-0.135,1.229 0.512,2.384 0.61,3.632c0.062,0.139 0.27,0.18 0.339,0.316c0.091,0.31 -0.114,0.576 -0.098,0.994c0.326,1.31 0.435,2.766 0.947,3.949c-0.713,3.404 -0.46,6.358 -1.327,9.818c-0.474,0.087 -0.576,0.912 -1.212,1.044c-0.878,-0.184 -0.512,-0.972 -0.662,-1.572c-1.041,-0.507 -1.86,0.696 -2.936,0.524c-0.848,-0.136 -1.233,-0.889 -2.029,-1.187c-0.804,0.517 -1.609,-0.425 -2.292,-0.789c0.158,-0.393 0.043,-0.517 -0.067,-0.829c-1.41,-0.137 -1.839,-0.953 -2.571,-1.691c-0.592,-0.596 -1.261,-0.779 -1.316,-1.673c-0.822,-0.823 -1.713,-1.604 -2.501,-2.453c-0.425,-1.186 -1.052,-2.233 -2.23,-2.905c-0.726,-1.694 -2.62,-2.589 -3.119,-4.438c-0.344,-0.056 -0.554,-0.437 -0.856,-0.347c0.023,0.332 0.125,0.608 0.21,0.895c0.223,0.087 0.368,0.224 0.639,0.276c1.46,1.539 2.436,3.41 4.04,4.847c-0.016,0.158 -0.029,0.316 -0.045,0.467c1.219,1.122 2.299,2.335 2.559,4.107c0.944,0.47 1.362,1.298 1.871,2.061c0.13,0.526 -0.047,1.177 0.208,1.662c0.185,0.356 0.713,0.723 0.994,1.183c0.1,0.166 0.075,0.382 0.168,0.54c0.161,0.265 0.487,0.488 0.595,0.745c0.12,0.284 0.043,0.582 0.291,0.784c0.411,0.324 0.985,0.587 1.388,0.97c0.269,0.258 0.615,0.636 0.868,0.937c0.09,0.104 0.29,0.357 0.33,0.432c0.08,0.156 -0.104,0.346 0.18,0.423c-0.425,0.741 -1.106,1.527 -0.974,2.416c-0.498,0.432 -1.167,0.25 -1.8,0.242c-0.51,-0.493 0.086,-1.735 -1.164,-1.723c-0.553,0.579 0.297,1.036 0.587,1.569c0.35,0.653 0.15,1.48 0.688,2.047c-0.087,0.712 -0.119,1.669 -1.206,1.751c-0.347,0.978 -0.959,1.708 -1.91,2.123c-0.672,-0.296 -2.118,-0.999 -2.422,-0.21c-0.967,-0.143 -1.717,-0.192 -2.577,-0.1c-0.439,0.048 -0.846,0.345 -1.285,0.273c-0.396,-0.063 -0.574,-0.425 -0.973,-0.65c-0.336,-0.185 -0.897,-0.39 -1.342,-0.671c-0.409,-0.258 -0.833,-0.697 -1.724,-0.519c-1.128,1.396 2.558,1.884 3.358,2.743c0.241,-0.019 0.338,0.06 0.508,0.09c1.112,1.028 3.084,1.471 4.04,2.606c0.074,0.508 0.408,0.9 0.544,1.213c-0.331,0.21 -0.188,-0.235 -0.575,-0.154c-0.292,0.465 0.206,0.881 0.016,1.357c-0.299,0.745 -1.584,0.427 -2.23,0.864c-1.258,-0.061 -2.262,-0.617 -3.308,-0.971c-0.346,-0.118 -0.735,-0.119 -1.012,-0.242c-0.082,-0.033 -0.056,-0.137 -0.13,-0.183c-0.662,-0.41 -1.82,-0.566 -2.352,-0.912c-0.281,-0.183 -0.186,-0.382 -0.387,-0.612c-0.026,-0.032 -0.283,-0.068 -0.354,-0.141c-0.099,-0.1 -0.053,-0.249 -0.119,-0.301c-0.357,-0.281 -0.972,-0.365 -1.345,-0.615c-0.962,0.056 -1.65,-0.019 -2.252,0.332c-0.041,0.5 -0.069,0.994 0.169,1.306c0.031,0.044 1.262,0.873 1.39,0.912c0.261,0.081 0.821,0.128 1.023,0.122c0.352,-0.009 0.691,-0.278 1.064,-0.289c0.55,-0.011 0.669,0.271 1.068,0.421c0.237,0.092 0.559,0.095 0.798,0.168c1.028,0.311 1.797,0.939 2.687,1.285c0.333,0.128 0.767,0.049 0.927,0.353c1.844,0.328 3.141,1.031 4.654,1.584c0.285,1.265 0.949,2.271 2.08,2.957c-0.025,0.428 0.212,0.545 0.135,0.894c-0.053,0.268 -0.509,0.165 -0.495,0.499c-0.272,-0.023 0.019,-0.229 -0.122,-0.244c-0.306,-0.027 -0.614,-0.057 -0.746,0.072c0.304,0.169 0.717,0.179 1.011,0.239c-0.024,0.169 0.001,0.387 -0.119,0.465c-0.959,0.135 -1.486,0.902 -2.54,1.019c-0.693,0.078 -1.399,-0.084 -2.359,-0.086c-0.245,0.412 -1.268,0.1 -1.528,0.495c2.12,1.154 4.276,-0.212 6.603,-0.182c0.173,0.12 0.309,0.264 0.322,0.492c0.73,0.342 1.895,0.385 2.826,0.589c0.542,-0.267 1.855,-0.411 2.394,-0.267c-0.022,0.45 -0.531,0.443 -0.938,0.533c-0.555,0.508 -1.606,0.553 -2.447,0.791c-0.149,0.105 -0.023,0.148 -0.029,0.294c-0.48,-0.521 -1.067,0.537 -1.793,0.183c-0.238,0.18 -0.549,0.297 -0.582,0.671c0.636,-0.004 1.298,0.017 1.381,-0.504c0.142,0.143 -0.054,0.205 0.034,0.414c1.263,-0.212 2.443,-0.966 3.428,-0.259c0.616,-0.306 1.697,-0.153 2.213,-0.687c0.377,-0.047 0.397,0.344 0.644,0.217c0.094,-0.275 0.161,-0.576 0.505,-0.617c-0.162,-0.161 -0.164,-0.522 0.13,-0.581c0.647,0.087 0.823,1.394 0.711,1.809c-0.083,0.294 -0.737,0.718 -0.94,1.3c-0.105,0.293 -0.146,0.633 -0.308,0.865c-0.283,0.411 -0.774,0.723 -0.939,1.295c-0.932,0.253 -1.112,1.202 -1.292,1.865c0.633,-0.116 0.764,-0.694 1.413,-0.796c0.003,-0.101 0.064,-0.147 0.161,-0.167c-0.042,-0.825 0.367,-1.234 0.684,-1.724c0.392,0.299 0.496,0.793 0.935,1.058c-0.229,1.001 -1.258,1.259 -1.411,2.33c0.209,0.003 0.169,0.175 0.273,0.251c1.236,0.153 1.225,-0.859 1.962,-1.174c1.016,-0.122 1.768,0.431 2.671,0.694c1.035,-0.334 1.288,-1.397 2.316,-1.741c0.609,0.122 0.653,0.772 0.257,1.136c0.301,0.218 0.195,0.65 0.031,1.182c0.265,-0.011 0.42,-0.126 0.614,-0.201c0.509,0.099 0.312,0.483 0.763,0.519c-0.296,0.316 -0.223,0.601 -0.254,1.105c1.333,0.81 0.131,2.516 0.661,3.813c0.305,0.018 0.714,-0.105 0.958,0.059c0.197,0.84 -0.434,1.909 -0.779,2.662c-0.63,0.032 -1.033,0.272 -1.318,0.626c-0.019,0.433 0.784,0.304 0.979,0.591c0.797,-0.281 1.32,-0.817 2.377,-0.855c0.065,0.187 0.01,0.462 -0.005,0.824c0.015,0.172 0.126,0.275 0.339,0.316c-0.102,0.692 0.674,1.201 0.613,2.041c0.568,0.689 1.444,1.167 1.804,1.997c2.496,0.987 3.234,-1.049 5.069,-1.157c0.607,0.804 0.454,2.133 1.125,2.896c0.431,1.266 -0.076,2.605 -0.174,4.054c-0.022,0.333 -0.182,0.644 0.207,0.898c-0.022,0.596 -0.012,1.173 0.031,1.726l1.938,0Z" style="fill:#62c4e0;"/><path d="M80.758,84.46c-0.009,-0.142 -0.216,-0.147 -0.272,-0.254c-0.142,0.029 0.118,0.41 0.272,0.254" style="fill:#62c4e0;"/><path d="M105.47,84.456c-0.094,-0.174 -0.349,-0.878 -1.047,-0.655c-0.138,0.555 0.714,0.589 1.047,0.655" style="fill:#62c4e0;"/><path d="M24.679,69.97c0.008,0.067 0.072,0.035 0.075,0.004c0.072,0.007 0.05,0.075 0.064,0.122c0.136,-0.072 0.373,-0.22 0.253,-0.338c0.235,0.202 0.157,-0.28 0.394,-0.271c-0.313,-0.226 -0.374,0.331 -0.694,0.312c0,0.082 -0.002,0.164 -0.092,0.171" style="fill:#62c4e0;"/></g></svg>