<?xml version="1.0" encoding="UTF-8" standalone="no"?><!DOCTYPE svg PUBLIC "-//W3C//DTD SVG 1.1//EN" "http://www.w3.org/Graphics/SVG/1.1/DTD/svg11.dtd"><svg width="100%" height="100%" viewBox="0 0 121 90" version="1.1" xmlns="http://www.w3.org/2000/svg" xmlns:xlink="http://www.w3.org/1999/xlink" xml:space="preserve" style="fill-rule:evenodd;clip-rule:evenodd;stroke-linejoin:round;stroke-miterlimit:1.41421;"><g><path d="M17.267,67.173c-0.449,0.106 -0.892,0.231 -1.327,0.369c-0.911,0.294 -1.591,0.914 -2.436,1.312c-0.756,0.355 -1.67,0.604 -2.447,0.901c-0.641,0.249 -1.513,0.272 -1.741,0.925c-0.225,0.639 0.74,1.012 1.372,0.723c0.365,-0.165 0.695,-0.446 1.095,-0.624c0.491,-0.215 0.978,-0.433 1.458,-0.66c1.902,-0.9 3.748,-1.912 5.283,-3.186c-0.153,0.126 -0.996,0.179 -1.257,0.24M9.282,65.578c-2.979,0.985 -7.809,2.842 -9.282,4.36c3.061,-1.166 6.394,-2.028 9.282,-4.36M74.193,17.005c0.199,0.053 0.149,0.154 0.087,0.261l-0.244,0.331c-0.776,-0.164 -0.458,-0.557 -0.81,-0.812c0.487,-0.552 0.712,0.725 0.967,0.22M74.819,21.5c0.93,-0.695 1.022,-0.752 1.976,-1.534c-0.666,-1.868 -2.615,-4.22 -4.821,-5.302c0.317,2.409 0.856,4.775 2.845,6.836M106.485,73.63c-1.907,-1.991 -4.475,-4.789 -7.518,-6.979c0.859,2.669 5.14,4.626 7.518,6.979M62.399,22.699c-0.374,0.676 0.616,3.293 1.038,2.024c-0.14,0.105 -0.246,0.323 -0.454,0.236c-0.173,-0.531 0.272,-0.466 0.699,-0.569c-0.896,-1.213 -0.813,-2.632 -1.657,-3.857c-0.815,0.42 -0.44,1.634 0.374,2.166M80.344,17.822c-0.031,1.176 -0.738,2.49 -0.059,3.518c1.222,-0.227 -0.798,-1.221 0.522,-1.091c-1.199,-0.358 0.242,-1.266 -0.409,-1.739c0.588,-0.303 1.166,0.703 1.386,0.411c-0.438,-0.201 -0.124,-1.262 -0.685,-0.976c0.251,0.994 -0.523,-0.484 -0.755,-0.123M80.989,16.563c-0.603,-0.34 -0.121,-0.908 -0.775,-1.24c-0.198,0.427 0.116,1.459 0.775,1.24M83.461,17.029c0.798,0.344 0.74,0.089 1.263,0.575c0.366,-0.858 1.133,-0.513 1.697,-0.774c-0.526,-0.591 -0.805,-1.23 -1.494,-1.79c-0.533,0.44 0.343,0.584 -0.19,1.023c-0.211,-0.098 -0.348,0.015 -0.545,-0.029c-1.489,-0.792 -0.517,-1.245 -1.579,-2.051c-0.958,1.274 1.484,1.839 0.848,3.046M116.653,30.415c0.144,-0.106 0.249,-0.321 0.457,-0.233c0.249,0.092 0.151,0.39 0.42,0.192c-0.5,-0.851 1.073,0.059 1.245,-0.54c-0.524,-0.493 -0.704,0.028 -1.087,-0.054c0.026,-0.399 1.037,-0.267 0.487,-0.662c-0.294,0.185 -0.627,0.253 -0.998,0.207c0.107,0.617 -0.78,0.664 -0.524,1.09M91.196,50.182c0.152,0.11 0.333,0.215 0.536,0.314c-0.118,-0.092 -0.307,-0.202 -0.536,-0.314M113.063,30.327c-0.333,-0.192 0.679,-0.742 1.12,-0.374c0.142,-0.125 0.034,-0.193 -0.091,-0.261c0.483,-0.314 0.377,0.652 0.145,0.951c0.298,0.084 0.641,-0.37 0.366,-0.498c0.428,-0.3 0.368,0.657 0.81,0.812c-0.255,0.303 -0.779,-0.201 -0.998,0.209c-0.598,-0.169 -0.762,-1.128 -1.352,-0.839M113.285,28.877c0.211,-0.079 0.419,-0.167 0.578,-0.4c0.2,0.099 0.013,0.276 -0.034,0.428c0.847,-0.396 0.675,0.358 0.056,0.69c-0.833,-0.104 0.233,-0.61 -0.6,-0.718M115.982,27.893c-0.18,0.524 -0.665,0.144 -0.91,0.473c-0.454,-0.28 0.329,-0.816 -0.023,-1.12c0.394,-0.059 0.481,0.459 0.933,0.647M111.255,29.722c-0.388,-0.27 -0.64,-0.14 -0.963,-0.218c-0.228,0.561 0.566,0.046 0.843,0.385c-0.321,0.809 -1.148,0.121 -1.577,0.611c-0.126,-0.182 0.022,-0.606 -0.298,-0.356c0.129,-0.554 1.484,-1.4 2.464,-2.201c0.682,0.03 0.599,0.387 0.964,0.218c0.38,0.693 -1.395,0.759 -1.433,1.561M103.554,37.507c-0.911,-0.438 0.048,-0.876 0.313,-1.187c0.254,0.32 0.08,0.728 -0.313,1.187M102.481,35.908c-0.412,-0.742 1.045,-0.375 1.187,-1.231c0.201,0.285 0.485,0.553 0.143,0.954c-0.234,0.009 -0.472,0.015 -0.755,-0.125c-0.407,0.597 0.955,-0.033 0.511,0.453c-0.352,0.883 -0.511,-0.594 -1.086,-0.051M84.531,51.861c-1.111,-0.272 -1.214,-1.218 -0.32,-1.477c0.992,0.167 0.029,0.743 1.022,0.91c-0.274,0.072 -0.503,0.271 -0.702,0.567M103.06,20.221c-0.5,0.315 -0.672,-0.593 -0.475,-0.884c0.491,0.132 0.473,0.369 0.72,0.552c-0.239,0.087 -0.472,0.181 -0.245,0.332M59.781,36.568c0.122,-0.16 0.35,-0.014 0.542,0.026c0.385,-0.407 -0.722,-0.507 -0.143,-0.952c0.67,0.974 0.474,0.839 1.564,0.936c-0.526,0.378 -1.253,0.162 -1.963,-0.01M40.841,37.443c0.964,-0.261 2.672,-0.693 3.382,-0.004c-0.866,0.562 -2.748,0.475 -3.382,0.004M115.367,32.93c-2.262,0.095 -2.811,2.002 -5.058,1.904c2.38,-1.775 4.122,-2.904 6.433,-4.155c-0.859,-0.51 -0.747,-0.651 -1.174,-0.314c0.344,-1.005 -0.457,-0.488 -0.196,-1.642c0.326,-0.442 0.929,-0.058 1.243,-0.541c-1.171,-0.591 -0.79,-3.324 0.288,-2.303c0.504,-0.443 -0.773,-1.227 0.436,-1.353c-0.172,0.27 -0.451,0.562 0.052,0.688c0.997,-0.996 -1.41,-1.3 0.224,-1.448c-0.775,-0.17 -0.541,-0.059 -0.72,-0.55c-0.473,0.66 -0.243,1.173 -0.468,1.778c-0.431,0.134 -0.982,-0.102 -1.417,0.018c0.592,0.03 -0.549,1.419 -0.069,0.856c0.337,-0.413 0.671,-0.832 1.243,-0.539c-0.142,0.63 -0.628,0.251 -0.91,0.47c0.969,1.054 -0.761,1.152 -1.078,2.61l-1.054,-0.481c0.509,-0.676 1.45,-0.832 1.344,-1.825c-0.873,0.573 -0.529,-0.655 -0.929,-0.644c1.593,-1.044 -0.159,-1.736 1.533,-2.847c-1.345,-1.306 -1.387,-2.819 -1.149,-3.403c0.021,-0.051 -1.605,-0.209 -1.897,-0.869c-0.759,0.215 -1.497,0.485 -2.416,0.228c-0.496,-0.364 -0.015,-0.932 -0.776,-1.243c-1.387,-0.321 -2.888,0.924 -3.571,1.03c-0.323,-0.166 0.148,-0.499 -0.388,-0.622c-2.198,0.528 -4.904,2.675 -7.754,2.885c-0.219,0.42 -0.123,0.773 -0.643,1.256c-0.511,-0.104 -0.904,0.136 -1.508,-0.246c0.074,2.442 -4.796,1.732 -5.593,4.536c-1.765,0.256 -1.944,-0.907 -3.77,-0.615c-0.775,1.262 -2.378,0.658 -3.991,0.838c-0.903,1.865 -2.81,1.451 -2.852,1.576c-0.151,0.461 -0.978,0.225 -2.051,-0.271c-3.109,2.052 -7.731,0.219 -10.436,2.324c-0.368,-0.294 -0.332,-0.784 -0.93,-0.647c-0.856,0 0.195,0.775 -0.49,0.663c-0.248,-0.719 -0.376,0.154 -0.875,0.045c0.238,-0.585 -0.436,-0.574 -0.843,-0.389c0.656,-0.894 0.369,-0.463 -0.387,-0.617c-0.414,-0.563 1.204,-0.446 0.733,-0.996c-1.905,0.298 -2.824,-0.745 -5.666,-1.48c0.163,-2.371 -0.244,-4.62 -0.546,-6.896c-1.159,-0.504 -1.738,-1.13 -2.371,-1.746c-0.245,0.567 -0.19,1.068 -0.346,1.612c-0.447,-0.265 -0.821,-0.321 -1.085,-0.052c0.339,0.21 0.268,0.504 -0.069,0.856c-0.373,0.126 -0.715,0.341 -1.12,0.373c-3.065,-1.039 -0.923,-3.169 -3.588,-4.295c-1.297,1.825 2.665,3.258 0.047,4.896c1.306,0.558 0.081,2.935 -1.638,1.467l-0.855,1.16c-0.538,-0.14 -1.318,-0.163 -1.475,-0.671c-1.025,1.818 1.203,0.663 1.706,1.885l-0.245,0.33c-0.361,0.165 -0.855,-0.07 -1.295,-0.15c-1.266,1.202 1.641,1.527 0.883,2.621c-0.785,1.716 -4.738,-1.52 -4.204,0.74c2.195,0.339 6.193,1.971 3.711,4.132c-0.869,-0.114 -1.593,0.207 -2.506,-0.039c-0.271,0.596 -0.711,0.707 -1.067,1.064c-4.565,0.192 -9.225,0.107 -13.683,0.619c4.011,0.088 8.098,0.414 11.899,-0.105c1.006,0.712 1.833,0.612 2.071,1.391c-5.841,1.335 -12.599,-0.046 -18.518,1.069c4.737,0.663 9.583,-1.161 14.215,0.953c-1.258,0.848 -2.9,0.562 -4.237,1.167c1.106,0.511 2.965,-0.127 5.099,0.335c1.261,0.272 7.44,1.567 5.565,2.764c1.018,0.348 1.419,0.823 1.195,1.43c-2.933,0.635 -5.764,1.569 -8.419,3.024c0.757,-0.587 -2.514,0.135 -1.455,0.445c1.57,0.063 4.15,-1.43 6.411,-1.06c-5.22,1.421 -9.688,5.061 -14.818,6.745c-0.36,-0.179 -0.684,-0.262 -0.965,-0.218c-1.703,0.532 -1.721,1.456 -2.92,2.431c-3.093,2.522 -9.184,1.129 -9.184,4.163c3.772,0.792 6.458,-1.861 9.804,-2.327c0.228,-0.283 0.335,-0.536 0.278,-0.76c2.099,-0.465 3.933,-1.718 5.968,-2.369c4.276,-0.016 7.613,2.554 5.328,5.756c-1.91,0.289 -3.61,2.059 -5.882,2.634c-1.293,0.323 -3.556,0.712 -3.535,2.575c2.463,1.068 3.907,-1.626 5.709,-2.472c0.821,-0.384 1.882,-0.237 2.66,-0.556c5.61,-2.294 11.534,-4.304 16.453,-6.668c3.242,0.466 6.117,-0.164 8.914,-1.023c1.452,0.957 2.308,0.154 3.736,1.042c0.1,1.382 -2.323,3.293 -0.334,4.276c0.366,-0.774 1.069,-2.478 2.163,-2.555c1.445,0.54 0.795,1.515 1.793,2.148c0.88,-0.026 1.367,-1.226 2.274,-1.175c0.37,0.296 0.299,0.685 1.021,0.906c2.106,-2.197 5.052,-1.906 7.275,-3.765c0.817,0.309 1.52,0.279 2.173,0.107c-1.582,0.683 1.931,0.758 0.772,1.239c2.037,0.968 3.548,0.313 5.369,1.122c0.651,-0.707 1.581,-0.592 2.188,-1.44c-0.553,-1.238 -2.616,-2.163 -2.449,-3.555c-0.177,0.18 -0.464,0.028 -0.753,-0.122c0.811,-0.057 1.159,-1.489 2.241,-0.747c0.354,-2.278 2.798,-1.703 4,-1.124c-0.406,-0.287 -0.615,-0.617 -0.45,-1.022c0.204,-0.273 0.653,0.174 0.876,-0.042c0.164,-0.501 -0.532,-0.825 -0.777,-1.242c0.378,-0.312 1.302,-0.839 0.646,-1.257c-0.259,0.468 -0.692,0.411 -1.208,0.112c-1.007,-2.571 2.92,-3.184 3.997,-5.041c1.2,0.915 1.721,-0.176 2.717,0.133c0.663,-2.195 3.506,-3.023 4.472,-4.161c1.048,0.343 2.39,0.373 2.628,-0.131c-0.382,0.455 1.399,0.457 1.018,0.908c-0.195,0.046 -1.073,0.562 -0.611,0.829c0.316,-0.825 1.115,-0.219 1.487,-0.869c-1.133,-0.523 -0.614,-0.262 -0.054,-0.689c-1.313,-0.076 -0.98,-1.089 -1.653,-1.2c0.227,-0.208 0.602,0.023 0.878,-0.04c0.217,0.234 -0.438,0.651 -0.068,0.852c0.739,-0.932 0.995,0.595 1.719,0.343c-0.975,-0.591 0.243,-0.044 0.333,-0.072c0.778,-0.225 1.5,-0.954 2.484,-1.078c0.25,-0.031 0.585,0.38 0.842,0.384c0.947,0.008 0.604,-0.505 1.331,-0.279c0.649,0.204 1.053,0.992 1.984,1.128c2.22,-2.013 -0.049,-3.329 1.58,-4.818M101.595,9.627c-0.112,1.412 -0.004,2.925 1.043,3.531c-0.42,-0.9 0.872,0.249 0.874,-0.041c-0.922,-1.069 -0.906,-2.333 -1.01,-3.572l-0.907,0.082ZM54.123,77.854c-0.132,0.772 -0.37,1.571 0.045,2.232c0.281,-0.805 0.475,-1.597 -0.045,-2.232M120.346,59.824c-0.319,0.11 -0.606,0.317 -0.822,0.733c0.45,0.275 0.829,0.342 1.176,0.315c0.287,-0.433 0.167,-0.785 -0.354,-1.048M54.936,56.511c-0.126,0.4 -1.189,0.996 -0.311,1.189c0.122,-0.401 1.187,-0.998 0.311,-1.189M34.732,45.735c-3.189,0.748 -6.634,0.743 -9.561,2.279c3.002,-0.97 7.382,-0.643 9.561,-2.279M22.186,40.224c1.039,-0.084 2.452,-0.095 3.839,-0.241c1.149,-0.121 3.176,-0.215 3.118,-0.79c-2.259,0.18 -5.737,-0.467 -6.957,1.031M89.598,56.833c-0.304,0.509 -0.853,0.29 -1.156,0.802c0.733,0.625 1.817,-0.406 1.156,-0.802M90.863,53.202c-0.399,0.296 -1.548,0.671 -0.857,1.161c0.26,-0.711 1.593,-0.543 0.857,-1.161M92.856,45.914c0.324,-0.276 0.823,-0.025 1.032,-0.637l-0.633,-0.29c-0.063,0.297 -0.878,0.744 -0.399,0.927M96.426,44.884c0.576,-0.946 -1.179,-1.576 -1.805,-0.6c0.648,0.343 1.106,0.111 1.805,0.6M99.543,44.095c-0.201,0.508 -1.236,1.191 -0.888,1.587c0.118,-0.745 1.845,-1.01 0.888,-1.587M100.968,39.869c-0.753,0.698 1.298,1.309 1.86,1.295c0.723,-0.791 -1.251,-1.171 -1.86,-1.295M111.302,38.828c-0.565,-0.278 -0.627,0.083 -0.844,-0.384c-0.277,0.291 -0.03,0.475 -0.278,0.759c-0.497,-0.222 -0.408,-0.568 -1.138,-0.741c-0.901,0.891 1.322,1.867 1.915,1.98c-0.41,-0.645 -0.818,-1.375 0.345,-1.614M114.731,36.849c0.2,0.608 1.09,0.554 1.419,-0.017c-0.459,-0.483 -0.898,-0.52 -1.419,0.017M87.803,21.451c0.983,-1.232 1.257,-1.654 2.164,-2.558c-2.525,-0.55 -4.719,0.593 -4.041,2.806c0.574,-0.248 1.054,-0.755 1.877,-0.248M117.763,31.59c0.614,0.408 1.062,0.333 1.595,0.507c1.998,-1.852 -2.33,-2.6 -1.595,-0.507M84.418,14.586c0.123,-0.587 0.564,-1.24 -0.2,-1.642c-0.664,0.241 -0.463,1.239 0.2,1.642M91.711,16.143c0.214,-0.517 0.563,-1.791 -0.529,-1.572c0.534,0.45 -0.547,1.239 0.529,1.572M98.944,14.352c-0.752,0.529 0.259,0.692 0.356,1.048c0.476,-0.476 0.358,-0.825 -0.356,-1.048M105.344,10.629c-0.312,0.53 -1.149,0.338 -0.944,0.897c0.615,0.24 1.111,0.121 1.452,-0.446c-0.259,-0.129 -0.133,-0.342 -0.508,-0.451M109.877,14.027c0.14,-0.109 0.319,-0.111 0.543,0.027c0.261,-0.569 0.498,-1.132 -0.322,-1.475c-0.766,0.199 -0.783,1.097 -0.221,1.448" style="fill:#a3e32d;"/></g></svg>