<svg xml:space="preserve" style="clip-rule:evenodd;fill-rule:evenodd;stroke-linejoin:round;stroke-miterlimit:2" xmlns="http://www.w3.org/2000/svg" viewBox="0 0 1201.087 658.824"><g style="fill:#009136;fill-opacity:1;stroke:none;stroke-width:.999887;stroke-dasharray:none"><g style="fill:#009136;fill-opacity:1;stroke:none;stroke-width:.181588;stroke-dasharray:none;stroke-opacity:1"><path d="M440.49 788.02c-5.25 0-6.98-3.53-6.98-7.28 0-4.8 2.48-8.18 7.58-8.18 1.05 0 2.25.15 3.22.38l-.3 2.63c-1.05-.23-2.02-.45-3.07-.45-2.85 0-4.2 2.17-4.2 5.1 0 3.3 1.35 5.17 4.42 5.17.9 0 2.1-.3 2.93-.67l.3 2.62c-1.13.38-2.48.68-3.9.68z" style="fill:#009136;fill-opacity:1;fill-rule:nonzero;stroke:none;stroke-width:.181588;stroke-dasharray:none;stroke-opacity:1" transform="matrix(20.93786 0 0 20.9592 -9067.789 -16192.232)"/></g><g style="fill:#009136;fill-opacity:1;stroke:none;stroke-width:.181588;stroke-dasharray:none;stroke-opacity:1"><path d="M456.17 787.94v-6.52h-6.38v6.52h-2.92v-15.15h2.92v6.08h6.38v-6.08h2.92v15.15z" style="fill:#009136;fill-opacity:1;fill-rule:nonzero;stroke:none;stroke-width:.181588;stroke-dasharray:none;stroke-opacity:1" transform="matrix(20.93786 0 0 20.9592 -9067.789 -16195.39)"/></g><g style="fill:#009136;fill-opacity:1;stroke:none;stroke-width:.181588;stroke-dasharray:none;stroke-opacity:1"><path d="M483.17 775.2c-.45 0-.9 0-1.2.07v4.35c.23 0 .68.08 1.05.08 1.8 0 2.85-.9 2.85-2.33 0-1.5-.9-2.17-2.7-2.17zm3.15 12.82-4.2-6.22h-.15v6.22h-2.85v-15.15c1.13-.08 2.55-.08 4.35-.08 3.3 0 5.48 1.21 5.48 4.28 0 2.25-1.58 3.83-3.9 4.2.45.6.9 1.13 1.27 1.65l3.6 5.1z" style="fill:#009136;fill-opacity:1;fill-rule:nonzero;stroke:none;stroke-width:.181588;stroke-dasharray:none;stroke-opacity:1" transform="matrix(20.93786 0 0 20.9592 -9067.789 -16197.064)"/></g><g style="fill:#009136;fill-opacity:1;stroke:none;stroke-width:.181588;stroke-dasharray:none;stroke-opacity:1"><path d="M464.19 783.37c0-2.7 2.18-4.95 4.95-4.95 2.71 0 4.88 2.25 4.88 4.95 0 .9-.22 1.72-.67 2.4l2.25 2.25c.9-1.35 1.5-2.93 1.5-4.65 0-4.43-3.6-7.96-7.96-7.96h-.07c-4.35 0-7.95 3.53-7.95 7.96 0 1.72.52 3.3 1.5 4.65l2.17-2.25c-.37-.75-.6-1.58-.6-2.4z" style="fill:#009136;fill-opacity:1;fill-rule:nonzero;stroke:none;stroke-width:.181588;stroke-dasharray:none;stroke-opacity:1" transform="matrix(20.93786 0 0 20.9592 -9067.789 -16251.962)"/></g></g><path style="fill:#e2010d" d="M470.905 774.36a1.8 1.835 0 0 1-1.8 1.835 1.8 1.835 0 0 1-1.8-1.835 1.8 1.835 0 0 1 1.8-1.835 1.8 1.835 0 0 1 1.8 1.835z" transform="matrix(0 -20.9592 -20.93788 0 16967.738 10118.335)"/><g style="fill:#fff;stroke:#000;stroke-width:2.23424;stroke-linecap:round;stroke-linejoin:round;stroke-dasharray:none;stroke-dashoffset:0;stroke-opacity:1;paint-order:normal"><path style="font-size:67.0674px;font-family:TheSans-Regular,TheSans;-inkscape-font-specification:'TheSans-Regular, TheSans';white-space:pre;inline-size:326.177;stroke-width:2.15937" d="M1021.2 738.223q0 6.371-4.629 9.926-4.627 3.554-12.474 3.554-4.024 0-7.445-.603-3.42-.604-5.7-1.677v-5.768q2.414 1.073 5.969 1.945 3.621.872 7.444.872 5.366 0 8.048-2.08 2.75-2.078 2.75-5.633 0-2.347-1.006-3.957-1.006-1.61-3.487-2.95-2.415-1.41-6.774-2.952-6.103-2.213-9.256-5.432-3.085-3.22-3.085-8.786 0-3.823 1.945-6.505 1.945-2.75 5.366-4.226 3.487-1.475 7.98-1.475 3.958 0 7.244.738 3.286.737 5.969 1.944l-1.878 5.165q-2.481-1.073-5.432-1.811-2.884-.738-6.036-.738-4.494 0-6.774 1.945-2.28 1.878-2.28 5.03 0 2.415 1.005 4.024 1.006 1.61 3.287 2.884 2.28 1.274 6.17 2.75 4.225 1.542 7.11 3.353 2.95 1.744 4.425 4.225 1.543 2.482 1.543 6.238zm24.814 12.81h-6.036v-42.588h-14.956v-5.299h35.881v5.299h-14.889zm35.613 0h-17.304v-3.488l5.634-1.274v-38.296l-5.634-1.341v-3.488h17.304v3.488l-5.634 1.341v38.296l5.634 1.274zm15.291 0h-6.036v-47.887h26.76v5.299h-20.724v16.968h19.45v5.298h-19.45zm43.93 0h-6.037v-42.588h-14.956v-5.299h35.881v5.299h-14.889zm58.55-16.901q0 4.963-2.013 8.987-2.012 3.957-6.17 6.304-4.091 2.28-10.463 2.28-8.92 0-13.614-4.829-4.628-4.896-4.628-12.877v-30.85h6.036v31.052q0 5.835 3.085 9.054 3.152 3.219 9.457 3.219 6.505 0 9.39-3.42 2.95-3.488 2.95-8.92v-30.986h5.97zm50.568 16.9h-7.042l-25.62-39.77h-.268l.335 5.834q.201 3.488.201 7.177v26.76h-5.566v-47.887h6.975l25.553 39.637h.268l-.201-3.219q-.067-2.146-.202-4.695-.067-2.548-.067-4.694v-27.029h5.634zm33.802-25.284h16.566v23.474q-3.89 1.274-7.847 1.878-3.957.603-8.987.603-7.445 0-12.542-2.95-5.097-3.019-7.78-8.518-2.615-5.567-2.615-13.145 0-7.512 2.95-13.012 2.952-5.5 8.451-8.517 5.567-3.085 13.414-3.085 4.024 0 7.578.738 3.622.737 6.707 2.079l-2.28 5.23q-2.549-1.14-5.768-1.944-3.152-.805-6.573-.805-8.584 0-13.413 5.164-4.762 5.165-4.762 14.152 0 5.7 1.81 10.127 1.879 4.36 5.836 6.84 3.957 2.415 10.395 2.415 3.152 0 5.366-.335 2.213-.336 4.024-.805v-14.218h-10.53z" transform="matrix(3.8553 0 0 4.01908 -3816.26 -2475.574)" aria-label="STIFTUNG"/></g><g style="fill:#e3001b;fill-opacity:1"><g style="font-weight:500;font-size:5.165px;font-family:TheSans-Regular,TheSans" aria-label="NORDRHEIN-WESTFALEN"><path d="M67.19 657.742H55.822L14.464 593.54h-.44q.21 3.789.545 9.419.314 5.63.314 11.584v43.199H5.897v-77.303h11.259l41.25 63.986h.44q-.21-1.731-.314-5.197-.21-3.464-.315-7.578-.21-4.115-.21-7.58v-43.63h9.096zm88.454-38.76q0 12.018-4.114 21.004-4.006 8.878-11.909 13.858-7.904 4.98-19.596 4.98-12.018 0-20.03-4.98-7.904-4.98-11.8-13.966-3.9-8.986-3.9-21.004 0-11.91 3.9-20.787 3.896-8.878 11.8-13.858 8.012-4.98 20.139-4.98 11.583 0 19.487 4.98 7.903 4.872 11.909 13.858 4.114 8.878 4.114 20.895zm-61.063 0q0 14.616 6.171 23.061 6.172 8.337 19.273 8.337 13.207 0 19.272-8.337 6.062-8.445 6.062-23.06 0-14.617-6.062-22.845-6.065-8.336-19.163-8.336-13.101 0-19.382 8.336-6.17 8.228-6.17 22.844zM183.194 580.44q14.4 0 21.222 5.521 6.928 5.413 6.928 16.457 0 6.17-2.273 10.285-2.274 4.114-5.846 6.604-3.465 2.382-7.364 3.79l21.222 34.645h-11.368l-18.73-31.939H171.61v31.939h-9.745v-77.303zm-.545 8.444h-11.042v28.69h11.583q9.42 0 13.75-3.68 4.332-3.79 4.332-11.043 0-7.579-4.547-10.719-4.549-3.248-14.076-3.248zm103.607 29.449q0 19.596-10.718 29.556-10.61 9.853-29.664 9.853h-21.547v-77.303h23.819q11.692 0 20.247 4.331 8.552 4.33 13.207 12.775 4.656 8.337 4.656 20.788zm-10.286.325q0-15.483-7.686-22.628-7.578-7.254-21.545-7.254h-12.667v60.63h10.502q31.396 0 31.396-30.748zm44.728-38.219q14.398 0 21.22 5.522 6.93 5.413 6.93 16.457 0 6.17-2.275 10.285-2.272 4.114-5.846 6.604-3.465 2.382-7.362 3.79l21.22 34.645h-11.368l-18.73-31.939h-15.375v31.939h-9.742v-77.303zm-.545 8.445h-11.045v28.69h11.586q9.418 0 13.748-3.68 4.331-3.79 4.331-11.043 0-7.579-4.546-10.719-4.547-3.248-14.074-3.248zm100.79 68.858h-9.744v-36.053h-39.625v36.053h-9.743v-77.303h9.743v32.697h39.625v-32.697h9.743zm63.32 0h-43.197v-77.303h43.197v8.554h-33.455v24.143h31.508v8.445h-31.508v27.608h33.455zm34.323 0h-27.934v-5.63l9.095-2.057v-61.82l-9.095-2.165v-5.63h27.934v5.63l-9.096 2.165v61.82l9.096 2.057zm71.378 0h-11.368L537.24 593.54h-.44q.21 3.789.545 9.419.314 5.63.314 11.584v43.199h-8.986v-77.303h11.26l41.251 63.986h.44q-.21-1.731-.314-5.197-.21-3.464-.315-7.578-.21-4.115-.21-7.58v-43.63h9.094zM604.805 632.949v-8.445h26.202v8.445zm129.813-52.51-20.572 77.303h-9.852l-15.048-50.67q-.86-3.139-1.74-6.279-.86-3.14-1.405-5.521-.545-2.49-.754-3.465-.21 1.407-1.195 6.063-.964 4.548-2.49 9.528l-14.617 50.344h-9.852l-20.462-77.303h10.179l12.017 47.205q1.3 4.98 2.165 9.635.964 4.656 1.51 8.77.544-4.222 1.613-9.203 1.09-4.98 2.49-9.744l13.64-46.663h10.07l14.183 46.988q1.51 4.98 2.6 9.96 1.09 4.873 1.613 8.662.545-4.006 1.51-8.661.985-4.764 2.274-9.853l11.91-47.096zm55.107 77.303h-43.2v-77.303h43.2v8.554h-33.454v24.143h31.505v8.445h-31.505v27.608h33.454zM845.253 637.063q0 10.285-7.471 16.023-7.47 5.738-20.138 5.738-6.496 0-12.017-.974-5.521-.975-9.202-2.707v-9.311q3.897 1.731 9.634 3.14 5.848 1.406 12.02 1.406 8.66 0 12.991-3.356 4.438-3.356 4.438-9.094 0-3.79-1.635-6.388-1.614-2.598-5.629-4.764-3.898-2.273-10.935-4.764-9.852-3.572-14.942-8.769-4.98-5.197-4.98-14.183 0-6.171 3.14-10.502 3.14-4.439 8.661-6.82 5.63-2.383 12.885-2.383 6.387 0 11.693 1.191 5.305 1.19 9.636 3.14l-3.033 8.336q-4.006-1.731-8.769-2.923-4.655-1.19-9.745-1.19-7.252 0-10.933 3.139-3.681 3.031-3.681 8.12 0 3.898 1.614 6.496 1.635 2.599 5.305 4.655 3.681 2.057 9.961 4.44 6.821 2.49 11.477 5.413 4.762 2.815 7.146 6.82 2.49 4.006 2.49 10.07zm32.813 20.679h-9.743v-68.75h-24.144v-8.553h57.924v8.554h-24.037zm41.661 0h-9.743v-77.303h43.198v8.554h-33.455v27.39h31.398v8.554h-31.398zm84.878 0-9.312-23.927h-30.64l-9.201 23.927h-9.854l30.207-77.627h8.769l30.098 77.627zm-20.897-55.974q-.314-.866-1.09-3.14-.755-2.273-1.51-4.655-.65-2.49-1.09-3.79-.754 3.357-1.74 6.605-.963 3.14-1.613 4.98l-8.77 23.386h24.468zm40.519 55.974v-77.303h9.743v68.641h33.78v8.662zm90.778 0h-43.198v-77.303h43.198v8.554h-33.455v24.143h31.505v8.445h-31.505v27.608h33.455zM1193.282 657.742h-11.368l-41.359-64.202h-.44q.21 3.789.545 9.419.314 5.63.314 11.584v43.199h-8.986v-77.303h11.258l41.25 63.986h.44q-.209-1.731-.314-5.197-.21-3.464-.314-7.578-.21-4.115-.21-7.58v-43.63h9.096z"/></g></g></svg>