<svg id="Ebene_1" data-name="Ebene 1" xmlns="http://www.w3.org/2000/svg" viewBox="0 0 29.58 48.75"><defs><style>.cls-1{fill:none;}.cls-2{fill:#0f69b1;}</style></defs><g id="Pfad_3" data-name="Pfad 3"><path class="cls-1" d="M5.38,1.8,28,20.85h0a3.45,3.45,0,0,1,.38,4.88,2.28,2.28,0,0,1-.38.38C25.24,28.91,6.1,47.72,6.1,47.72l-4-3.91L22.58,23.17,2.12,6Z" transform="translate(-0.7 -0.37)"/><path class="cls-2" d="M5.38,1.8,28,20.85h0a3.47,3.47,0,0,1,0,5.27C25.24,28.91,6.1,47.72,6.1,47.72l-4-3.9L22.58,23.17,2.12,6,5.38,1.8M5.23.37.74,6.09,21.11,23.24.7,43.83l5.4,5.3.7-.69C7,48.25,26,29.59,28.75,26.82a4.42,4.42,0,0,0,1.47-4.06,4.85,4.85,0,0,0-.86-1.92,4.18,4.18,0,0,0-.68-.75h0Z" transform="translate(-0.7 -0.37)"/></g></svg>