<svg id="Ebene_1" data-name="Ebene 1" xmlns="http://www.w3.org/2000/svg" viewBox="0 0 29.58 48.76"><defs><style>.cls-1{fill:none;}.cls-2{fill:#c3b9f5;}</style></defs><g id="Pfad_3" data-name="Pfad 3"><path class="cls-1" d="M4.69,1.43,27.3,20.48h0a3.44,3.44,0,0,1,.39,4.86v0a2.28,2.28,0,0,1-.38.38C24.5,28.54,5.36,47.35,5.36,47.35l-4-3.91L21.89,22.8,1.43,5.63Z" transform="translate(-0.01 0)"/><path class="cls-2" d="M4.69,1.43,27.3,20.48h0a3.47,3.47,0,0,1,.38,4.89,3.41,3.41,0,0,1-.38.38c-2.8,2.79-21.94,21.6-21.94,21.6l-4-3.9L21.89,22.8,1.43,5.63l3.26-4.2M4.54,0,.05,5.72,20.42,22.87,0,43.46l5.4,5.3.7-.69c.19-.19,19.19-18.85,22-21.62a4.43,4.43,0,0,0,1.47-4.06,4.84,4.84,0,0,0-.86-1.92,4,4,0,0,0-.68-.75h0Z" transform="translate(-0.01 0)"/></g></svg>