<svg id="Ebene_1" data-name="Ebene 1" xmlns="http://www.w3.org/2000/svg" viewBox="0 0 29.58 48.76"><defs><style>.cls-1{fill:none;}.cls-2{fill:#c3b9f5;}</style></defs><g id="Pfad_3" data-name="Pfad 3"><path class="cls-1" d="M24.91,1.43,2.3,20.48h0a3.44,3.44,0,0,0-.39,4.86v0a2.28,2.28,0,0,0,.38.38c2.8,2.8,21.94,21.61,21.94,21.61l4-3.91L7.71,22.8,28.17,5.63Z" transform="translate(-0.01 0)"/><path class="cls-2" d="M24.91,1.43,2.3,20.48h0a3.47,3.47,0,0,0-.38,4.89,3.41,3.41,0,0,0,.38.38c2.8,2.79,21.94,21.6,21.94,21.6l4-3.9L7.71,22.8,28.17,5.63l-3.26-4.2M25.06,0l4.49,5.72L9.18,22.87,29.59,43.46l-5.4,5.3-.7-.69C23.3,47.88,4.3,29.22,1.54,26.45A4.43,4.43,0,0,1,.07,22.39a4.84,4.84,0,0,1,.86-1.92,4,4,0,0,1,.68-.75h0Z" transform="translate(-0.01 0)"/></g></svg>