<svg id="arrow_left" data-name="arrow_left" xmlns="http://www.w3.org/2000/svg" viewBox="0 0 29.58 48.75">
<defs><style>#arrow_left .cls-1{fill:none;}#arrow_left .cls-2{fill:#0f69b1;}</style></defs><g id="Pfad_3" data-name="Pfad 3"><path class="cls-1" d="M26.61,1.8,4,20.85H4a3.45,3.45,0,0,0-.38,4.88,2.28,2.28,0,0,0,.38.38c2.8,2.8,21.94,21.61,21.94,21.61l4-3.91L9.41,23.17,29.87,6Z" transform="translate(-1.7 -0.37)"/><path class="cls-2" d="M26.61,1.8,4,20.85h0a3.47,3.47,0,0,0,0,5.27c2.8,2.79,21.94,21.6,21.94,21.6l4-3.9L9.41,23.17,29.87,6,26.61,1.8M26.76.37l4.49,5.72L10.88,23.24,31.29,43.83l-5.4,5.3-.7-.69C25,48.25,6,29.59,3.24,26.82a4.42,4.42,0,0,1-1.47-4.06,4.85,4.85,0,0,1,.86-1.92,4.18,4.18,0,0,1,.68-.75h0Z" transform="translate(-1.7 -0.37)"/></g></svg>